<?xml version="1.0" encoding="utf-8"?>
<!-- Generator: Adobe Illustrator 23.0.6, SVG Export Plug-In . SVG Version: 6.00 Build 0)  -->
<svg version="1.1" xmlns="http://www.w3.org/2000/svg" xmlns:xlink="http://www.w3.org/1999/xlink" x="0px" y="0px"
	 viewBox="0 0 793 420.8" enable-background="new 0 0 793 420.8" xml:space="preserve">
<g id="Layer_2" display="none">

		<line display="inline" fill="none" stroke="#D6D6D6" stroke-width="0.25" stroke-miterlimit="10" x1="72.1" y1="-551.2" x2="72.1" y2="62"/>

		<line display="inline" fill="none" stroke="#D6D6D6" stroke-width="0.25" stroke-miterlimit="10" x1="144.2" y1="-551.2" x2="144.2" y2="62"/>

		<line display="inline" fill="none" stroke="#D6D6D6" stroke-width="0.25" stroke-miterlimit="10" x1="216.3" y1="-551.2" x2="216.3" y2="62"/>

		<line display="inline" fill="none" stroke="#D6D6D6" stroke-width="0.25" stroke-miterlimit="10" x1="288.4" y1="-551.2" x2="288.4" y2="62"/>

		<line display="inline" fill="none" stroke="#D6D6D6" stroke-width="0.25" stroke-miterlimit="10" x1="360.5" y1="-551.2" x2="360.5" y2="62"/>

		<line display="inline" fill="none" stroke="#D6D6D6" stroke-width="0.25" stroke-miterlimit="10" x1="432.6" y1="-551.2" x2="432.6" y2="62"/>

		<line display="inline" fill="none" stroke="#D6D6D6" stroke-width="0.25" stroke-miterlimit="10" x1="504.7" y1="-551.2" x2="504.7" y2="62"/>

		<line display="inline" fill="none" stroke="#D6D6D6" stroke-width="0.25" stroke-miterlimit="10" x1="576.7" y1="-551.2" x2="576.7" y2="62"/>

		<line display="inline" fill="none" stroke="#D6D6D6" stroke-width="0.25" stroke-miterlimit="10" x1="648.8" y1="-551.2" x2="648.8" y2="62"/>

		<line display="inline" fill="none" stroke="#D6D6D6" stroke-width="0.25" stroke-miterlimit="10" x1="720.9" y1="-551.2" x2="720.9" y2="62"/>

		<line display="inline" fill="none" stroke="#D6D6D6" stroke-width="0.25" stroke-miterlimit="10" x1="684.9" y1="-551.2" x2="684.9" y2="62"/>

		<line display="inline" fill="none" stroke="#D6D6D6" stroke-width="0.25" stroke-miterlimit="10" x1="612.8" y1="-551.2" x2="612.8" y2="62"/>

		<line display="inline" fill="none" stroke="#D6D6D6" stroke-width="0.25" stroke-miterlimit="10" x1="540.7" y1="-551.2" x2="540.7" y2="62"/>

		<line display="inline" fill="none" stroke="#D6D6D6" stroke-width="0.25" stroke-miterlimit="10" x1="468.6" y1="-551.2" x2="468.6" y2="62"/>

		<line display="inline" fill="none" stroke="#D6D6D6" stroke-width="0.25" stroke-miterlimit="10" x1="396.5" y1="-551.2" x2="396.5" y2="62"/>

		<line display="inline" fill="none" stroke="#D6D6D6" stroke-width="0.25" stroke-miterlimit="10" x1="324.4" y1="-551.2" x2="324.4" y2="62"/>

		<line display="inline" fill="none" stroke="#D6D6D6" stroke-width="0.25" stroke-miterlimit="10" x1="252.3" y1="-551.2" x2="252.3" y2="62"/>

		<line display="inline" fill="none" stroke="#D6D6D6" stroke-width="0.25" stroke-miterlimit="10" x1="180.2" y1="-551.2" x2="180.2" y2="62"/>

		<line display="inline" fill="none" stroke="#D6D6D6" stroke-width="0.25" stroke-miterlimit="10" x1="108.1" y1="-551.2" x2="108.1" y2="62"/>

		<line display="inline" fill="none" stroke="#D6D6D6" stroke-width="0.25" stroke-miterlimit="10" x1="36" y1="-551.2" x2="36" y2="62"/>

		<line display="inline" fill="none" stroke="#D6D6D6" stroke-width="0.25" stroke-miterlimit="10" x1="757" y1="-551.2" x2="757" y2="62"/>

		<line display="inline" fill="none" stroke="#D6D6D6" stroke-width="0.25" stroke-miterlimit="10" x1="54.1" y1="-551.2" x2="54.1" y2="62"/>

		<line display="inline" fill="none" stroke="#D6D6D6" stroke-width="0.25" stroke-miterlimit="10" x1="126.2" y1="-551.2" x2="126.2" y2="62"/>

		<line display="inline" fill="none" stroke="#D6D6D6" stroke-width="0.25" stroke-miterlimit="10" x1="198.3" y1="-551.2" x2="198.3" y2="62"/>

		<line display="inline" fill="none" stroke="#D6D6D6" stroke-width="0.25" stroke-miterlimit="10" x1="270.3" y1="-551.2" x2="270.3" y2="62"/>

		<line display="inline" fill="none" stroke="#D6D6D6" stroke-width="0.25" stroke-miterlimit="10" x1="342.4" y1="-551.2" x2="342.4" y2="62"/>

		<line display="inline" fill="none" stroke="#D6D6D6" stroke-width="0.25" stroke-miterlimit="10" x1="414.5" y1="-551.2" x2="414.5" y2="62"/>

		<line display="inline" fill="none" stroke="#D6D6D6" stroke-width="0.25" stroke-miterlimit="10" x1="486.6" y1="-551.2" x2="486.6" y2="62"/>

		<line display="inline" fill="none" stroke="#D6D6D6" stroke-width="0.25" stroke-miterlimit="10" x1="558.7" y1="-551.2" x2="558.7" y2="62"/>

		<line display="inline" fill="none" stroke="#D6D6D6" stroke-width="0.25" stroke-miterlimit="10" x1="630.8" y1="-551.2" x2="630.8" y2="62"/>

		<line display="inline" fill="none" stroke="#D6D6D6" stroke-width="0.25" stroke-miterlimit="10" x1="702.9" y1="-551.2" x2="702.9" y2="62"/>

		<line display="inline" fill="none" stroke="#D6D6D6" stroke-width="0.25" stroke-miterlimit="10" x1="666.9" y1="-551.2" x2="666.9" y2="62"/>

		<line display="inline" fill="none" stroke="#D6D6D6" stroke-width="0.25" stroke-miterlimit="10" x1="594.8" y1="-551.2" x2="594.8" y2="62"/>

		<line display="inline" fill="none" stroke="#D6D6D6" stroke-width="0.25" stroke-miterlimit="10" x1="522.7" y1="-551.2" x2="522.7" y2="62"/>

		<line display="inline" fill="none" stroke="#D6D6D6" stroke-width="0.25" stroke-miterlimit="10" x1="450.6" y1="-551.2" x2="450.6" y2="62"/>

		<line display="inline" fill="none" stroke="#D6D6D6" stroke-width="0.25" stroke-miterlimit="10" x1="378.5" y1="-551.2" x2="378.5" y2="62"/>

		<line display="inline" fill="none" stroke="#D6D6D6" stroke-width="0.25" stroke-miterlimit="10" x1="306.4" y1="-551.2" x2="306.4" y2="62"/>

		<line display="inline" fill="none" stroke="#D6D6D6" stroke-width="0.25" stroke-miterlimit="10" x1="234.3" y1="-551.2" x2="234.3" y2="62"/>

		<line display="inline" fill="none" stroke="#D6D6D6" stroke-width="0.25" stroke-miterlimit="10" x1="162.2" y1="-551.2" x2="162.2" y2="62"/>

		<line display="inline" fill="none" stroke="#D6D6D6" stroke-width="0.25" stroke-miterlimit="10" x1="90.1" y1="-551.2" x2="90.1" y2="62"/>

		<line display="inline" fill="none" stroke="#D6D6D6" stroke-width="0.25" stroke-miterlimit="10" x1="18" y1="-551.2" x2="18" y2="62"/>

		<line display="inline" fill="none" stroke="#D6D6D6" stroke-width="0.25" stroke-miterlimit="10" x1="775" y1="-551.2" x2="775" y2="62"/>

		<line display="inline" fill="none" stroke="#D6D6D6" stroke-width="0.25" stroke-miterlimit="10" x1="739" y1="-551.2" x2="739" y2="62"/>
</g>
<g id="Layer_1">
	<rect x="331.9" y="152.6" fill="#F0F0F0" width="238.7" height="219"/>
	<g>
		<circle fill="#0DB5B3" cx="504.7" cy="181.7" r="18"/>
		<g>

				<line fill="none" stroke="#FFFFFF" stroke-width="0.75" stroke-linecap="round" stroke-linejoin="round" stroke-miterlimit="10" x1="504.6" y1="183.9" x2="504.6" y2="168.3"/>

				<line fill="none" stroke="#FFFFFF" stroke-width="0.75" stroke-linecap="round" stroke-linejoin="round" stroke-miterlimit="10" x1="509.4" y1="181.5" x2="509.4" y2="168.3"/>

				<line fill="none" stroke="#FFFFFF" stroke-width="0.75" stroke-linecap="round" stroke-linejoin="round" stroke-miterlimit="10" x1="499.8" y1="181.5" x2="499.8" y2="168.3"/>
			<g>
				<polyline fill="none" stroke="#FFFFFF" stroke-width="0.75" stroke-linecap="round" stroke-linejoin="round" points="516,182.5
					504.6,175.9 493.3,182.5 493.3,188 504.6,194.6 516,188 516,182.5 				"/>
			</g>
			<g>
				<polyline fill="none" stroke="#FFFFFF" stroke-width="0.75" stroke-linecap="round" stroke-linejoin="round" points="
					493.3,182.5 504.6,189 516,182.5 				"/>
			</g>

				<circle fill="#0DB5B3" stroke="#FFFFFF" stroke-width="0.75" stroke-linecap="round" stroke-linejoin="round" stroke-miterlimit="10" cx="504.6" cy="183.9" r="1.2"/>

				<circle fill="#0DB5B3" stroke="#FFFFFF" stroke-width="0.75" stroke-linecap="round" stroke-linejoin="round" stroke-miterlimit="10" cx="499.8" cy="181.5" r="1.2"/>

				<circle fill="#0DB5B3" stroke="#FFFFFF" stroke-width="0.75" stroke-linecap="round" stroke-linejoin="round" stroke-miterlimit="10" cx="509.4" cy="181.5" r="1.2"/>
		</g>
	</g>
	<g>
		<circle fill="#757575" cx="216.6" cy="254.1" r="18"/>

			<polyline fill="#757575" stroke="#FFFFFF" stroke-width="0.75" stroke-linecap="round" stroke-linejoin="round" stroke-miterlimit="10" points="
			226,251.8 208.3,251.8 208.3,253.8 		"/>

			<polyline fill="#757575" stroke="#FFFFFF" stroke-width="0.75" stroke-linecap="round" stroke-linejoin="round" stroke-miterlimit="10" points="
			209.1,263.8 226,263.8 226,251.8 		"/>

			<line fill="#006161" stroke="#FFFFFF" stroke-width="0.75" stroke-linecap="round" stroke-linejoin="round" stroke-miterlimit="10" x1="216.1" y1="245.8" x2="216.1" y2="263.8"/>

			<circle fill="#757575" stroke="#FFFFFF" stroke-width="0.75" stroke-linecap="round" stroke-linejoin="round" stroke-miterlimit="10" cx="216.1" cy="245.8" r="1.1"/>

			<line fill="#006161" stroke="#FFFFFF" stroke-width="0.75" stroke-linecap="round" stroke-linejoin="round" stroke-miterlimit="10" x1="221.2" y1="242.9" x2="221.2" y2="263.8"/>

			<circle fill="#757575" stroke="#FFFFFF" stroke-width="0.75" stroke-linecap="round" stroke-linejoin="round" stroke-miterlimit="10" cx="221.2" cy="242.9" r="1.1"/>

			<line fill="#006161" stroke="#FFFFFF" stroke-width="0.75" stroke-linecap="round" stroke-linejoin="round" stroke-miterlimit="10" x1="210.9" y1="248.9" x2="210.9" y2="263.8"/>

			<circle fill="#757575" stroke="#FFFFFF" stroke-width="0.75" stroke-linecap="round" stroke-linejoin="round" stroke-miterlimit="10" cx="210.9" cy="248.8" r="1.1"/>

			<polygon fill="#757575" stroke="#FFFFFF" stroke-width="0.75" stroke-linecap="round" stroke-linejoin="round" stroke-miterlimit="10" points="
			203.2,253.9 208.9,263.8 226,263.8 220.2,253.9 		"/>
	</g>
	<g>
		<g>
			<line fill="none" stroke="#A0A0A0" stroke-linejoin="round" x1="195.3" y1="254.3" x2="162.2" y2="254.3"/>
			<g>
				<polygon fill="#A0A0A0" points="194.6,251.8 198.9,254.3 194.6,256.8 				"/>
			</g>
		</g>
	</g>
	<g>
		<g>
			<path fill="none" stroke="#A0A0A0" stroke-linejoin="round" d="M234.9,254.2h4.3c7,0,12.7-5.7,12.7-12.7v-46.8
				c0-7,5.7-12.7,12.7-12.7h1.5"/>
			<g>
				<polygon fill="#A0A0A0" points="265.5,184.4 269.8,181.9 265.5,179.5 				"/>
			</g>
		</g>
	</g>
	<g>
		<g>
			<path fill="none" stroke="#A0A0A0" stroke-linejoin="round" d="M305.7,326.3h23.9c7,0,12.7-5.7,12.7-12.7v-84.8
				c0-7,5.7-12.7,12.7-12.7h18.9"/>
			<g>
				<polygon fill="#A0A0A0" points="373.2,218.6 377.5,216.1 373.2,213.6 				"/>
			</g>
		</g>
	</g>
	<g>
		<g>
			<path fill="none" stroke="#A0A0A0" stroke-linejoin="round" d="M414.7,215.3h22.9c7,0,12.7-5.7,12.7-12.7v-7.8
				c0-7,5.7-12.7,12.7-12.7h19.9"/>
			<g>
				<polygon fill="#A0A0A0" points="482.1,184.6 486.5,182.1 482.1,179.6 				"/>
			</g>
		</g>
	</g>
	<g>
		<g>
			<path fill="none" stroke="#A0A0A0" stroke-linecap="round" stroke-linejoin="round" stroke-dasharray="0,4,0,4,0,4" d="
				M414.7,292.1h22.9c7,0,12.7-5.7,12.7-12.7v-60.2"/>
			<g>
				<polygon fill="#A0A0A0" points="452.8,219.9 450.3,215.6 447.8,219.9 				"/>
			</g>
		</g>
	</g>
	<g>
		<g>
			<path fill="none" stroke="#A0A0A0" stroke-linejoin="round" d="M522.3,326.3h22.9c7,0,12.7-5.7,12.7-12.7v-37.8
				c0-7,5.7-12.7,12.7-12.7h19.9"/>
			<g>
				<polygon fill="#A0A0A0" points="589.7,265.6 594,263.1 589.7,260.6 				"/>
			</g>
		</g>
	</g>
	<g>
		<g>
			<line fill="none" stroke="#A0A0A0" stroke-linejoin="round" x1="122.5" y1="254.3" x2="90.1" y2="254.3"/>
			<g>
				<polygon fill="#A0A0A0" points="121.8,251.8 126.1,254.3 121.8,256.8 				"/>
			</g>
		</g>
	</g>
	<g>
		<g>
			<line fill="none" stroke="#A0A0A0" stroke-linejoin="round" x1="504.7" y1="304.7" x2="504.7" y2="221.6"/>
			<g>
				<polygon fill="#A0A0A0" points="507.1,303.9 504.7,308.3 502.2,303.9 				"/>
			</g>
		</g>
	</g>
	<g>
		<g>
			<line fill="none" stroke="#A0A0A0" stroke-linejoin="round" x1="287.9" y1="232.1" x2="287.9" y2="221.4"/>
			<g>
				<polygon fill="#A0A0A0" points="290.4,231.4 287.9,235.7 285.4,231.4 				"/>
			</g>
		</g>
	</g>
	<g>
		<g>
			<line fill="none" stroke="#A0A0A0" stroke-linejoin="round" x1="287.9" y1="304.8" x2="287.9" y2="287.1"/>
			<g>
				<polygon fill="#A0A0A0" points="290.4,304.1 287.9,308.4 285.4,304.1 				"/>
			</g>
		</g>
	</g>
	<g>
		<g>

				<line fill="none" stroke="#A0A0A0" stroke-linecap="round" stroke-linejoin="round" stroke-dasharray="0,4,0,4,0,4" x1="395.5" y1="274.3" x2="395.5" y2="256.5"/>
			<g>
				<polygon fill="#A0A0A0" points="398,273.5 395.5,277.9 393,273.5 				"/>
			</g>
		</g>
	</g>
	<g>
		<g>

				<line fill="none" stroke="#A0A0A0" stroke-linecap="round" stroke-linejoin="round" stroke-dasharray="0,4,0,4,0,4" x1="396.5" y1="276" x2="396.5" y2="294.1"/>
			<g>
				<polygon fill="#A0A0A0" points="394,276.7 396.5,272.4 399,276.7 				"/>
			</g>
		</g>
	</g>
	<rect x="594.8" y="175.9" fill="#F0F0F0" width="162.2" height="168.4"/>
	<g>
		<text transform="matrix(1 0 0 1 38.7863 281.9481)" font-family="IBMPlexSans, IBM Plex Sans" font-size="7px">Cluster administrator</text>
	</g>
	<g>
		<text transform="matrix(1 0 0 1 183.7584 281.9481)"><tspan x="0" y="0" font-family="IBMPlexSans, IBM Plex Sans" font-size="7px">Openshift Container  </tspan><tspan x="6.8" y="8.4" font-family="IBMPlexSans, IBM Plex Sans" font-size="7px">Platform project</tspan></text>
	</g>
	<g>
		<text transform="matrix(1 0 0 1 465.6652 209.6551)"><tspan x="0" y="0" font-family="IBMPlexSans, IBM Plex Sans" font-size="7px">IBM Blockchain Platform </tspan><tspan x="25.5" y="8.4" font-family="IBMPlexSans, IBM Plex Sans" font-size="7px">operator</tspan></text>
	</g>
	<g>
		<text transform="matrix(1 0 0 1 465.6637 353.9232)"><tspan x="0" y="0" font-family="IBMPlexSans, IBM Plex Sans" font-size="7px">IBM Blockchain Platform </tspan><tspan x="22.2" y="8.4" font-family="IBMPlexSans, IBM Plex Sans" font-size="7px">console UI</tspan></text>
	</g>
	<g>
		<text transform="matrix(1 0 0 1 609.2505 245.262)"><tspan x="0" y="0" font-family="IBMPlexSans, IBM Plex Sans" font-size="7px">Hyperledger Fabric </tspan><tspan x="22.8" y="8.4" font-family="IBMPlexSans, IBM Plex Sans" font-size="7px">Peer</tspan></text>
	</g>
	<g>
		<text transform="matrix(1 0 0 1 682.0126 245.147)"><tspan x="0" y="0" font-family="IBMPlexSans, IBM Plex Sans" font-size="7px">Hyperledger Fabric </tspan><tspan x="25.6" y="8.4" font-family="IBMPlexSans, IBM Plex Sans" font-size="7px">CA</tspan></text>
	</g>
	<circle cx="72.1" cy="254.2" r="18"/>
	<g>
		<text transform="matrix(1 0 0 1 370.953 243.6551)"><tspan x="0" y="0" font-family="IBMPlexSans, IBM Plex Sans" font-size="7px">Docker registry  </tspan><tspan x="-3.5" y="8.4" font-family="IBMPlexSans, IBM Plex Sans" font-size="7px">credentials secret</tspan></text>
	</g>
	<g>
		<text transform="matrix(1 0 0 1 356.5497 317.9232)"><tspan x="0" y="0" font-family="IBMPlexSans, IBM Plex Sans" font-size="7px">IBM Blockchain Platform </tspan><tspan x="9.6" y="8.4" font-family="IBMPlexSans, IBM Plex Sans" font-size="7px">console TLS secret</tspan><tspan x="25.8" y="16.8" fill="#757575" font-family="IBMPlexSans-Italic, IBM Plex Sans" font-size="7px">Optional</tspan></text>
	</g>
	<circle fill="#EB4B86" cx="395.6" cy="215.7" r="18"/>
	<circle fill="#0DB5B3" cx="711.7" cy="217.5" r="18"/>
	<g>
		<text transform="matrix(1 0 0 1 112.3057 281.9737)"><tspan x="0" y="0" font-family="IBMPlexSans, IBM Plex Sans" font-size="7px">Openshift Container </tspan><tspan x="11.7" y="8.4" font-family="IBMPlexSans, IBM Plex Sans" font-size="7px">Platform CLI</tspan></text>
	</g>
	<circle fill="#E3E3E3" cx="144.2" cy="254.3" r="18"/>
	<circle fill="#EB4B86" cx="395.8" cy="290.3" r="18"/>
	<circle fill="#0F6DFF" cx="504.6" cy="326.3" r="18"/>
	<circle fill="#0DB5B3" cx="639.6" cy="217.5" r="18"/>
	<text transform="matrix(1 0 0 1 269.6443 281.9481)" font-family="IBMPlexSans, IBM Plex Sans" font-size="7px">ClusterRole</text>
	<text transform="matrix(1 0 0 1 261.2068 209.6553)"><tspan x="0" y="0" font-family="IBMPlexSans, IBM Plex Sans" font-size="7px">Security Context  </tspan><tspan x="10.5" y="8.4" font-family="IBMPlexSans, IBM Plex Sans" font-size="7px">Constraint</tspan></text>
	<text transform="matrix(1 0 0 1 340.9905 167.6802)" font-family="IBMPlexSans, IBM Plex Sans" font-size="7px">Kubernetes operations</text>
	<text transform="matrix(1 0 0 1 604.3396 190.6812)" font-family="IBMPlexSans, IBM Plex Sans" font-size="7px">Blockchain operations</text>
	<text transform="matrix(1 0 0 1 257.7044 353.9232)" font-family="IBMPlexSans, IBM Plex Sans" font-size="7px">ClusterRoleBinding</text>
	<circle fill="#A11950" cx="287.9" cy="181.7" r="18"/>
	<circle fill="#A11950" cx="288.6" cy="254.2" r="18"/>
	<circle fill="#A11950" cx="288" cy="326.3" r="18"/>
	<g>
		<polyline fill="#FFFFFF" stroke="#000000" stroke-width="0.35" stroke-miterlimit="10" points="36,72.1 757,72.1 757,36.1
			36,36.1 		"/>
		<text transform="matrix(1 0 0 1 35.4694 30.1254)" font-family="IBMPlexSans, IBM Plex Sans" font-size="8.1319px">IBM Blockchain Platform</text>
		<text transform="matrix(1 0 0 1 425.8009 30.1254)" font-family="IBMPlexSans, IBM Plex Sans" font-size="8.1319px">Legend</text>
		<text transform="matrix(1 0 0 1 35.4691 60.5863)" font-family="IBMPlexSans-Bold, IBM Plex Sans" font-weight="700" font-size="18.1025px">Openshift Container Platform install</text>
		<g>
			<text transform="matrix(1 0 0 1 574.6507 63.8464)" font-family="IBMPlexSans, IBM Plex Sans" font-size="6.3935px">Infrastructure</text>
		</g>
		<g>
			<text transform="matrix(1 0 0 1 574.687 48.5784)" font-family="IBMPlexSans, IBM Plex Sans" font-size="6.3935px">Management</text>
			<g>
				<circle fill="#A11950" cx="497.5" cy="45.9" r="5.4"/>
			</g>
		</g>
		<g>
			<g>
				<circle fill="#EB4B86" cx="497.5" cy="61.5" r="5.4"/>
			</g>
		</g>
		<g>
			<text transform="matrix(1 0 0 1 443.172 48.6256)" font-family="IBMPlexSans, IBM Plex Sans" font-size="6.3935px">User</text>
			<g>
				<circle cx="431.4" cy="45.9" r="5.4"/>
			</g>
		</g>
		<g>
			<text transform="matrix(1 0 0 1 508.7246 63.7001)" font-family="IBMPlexSans, IBM Plex Sans" font-size="6.3935px">Security</text>
		</g>
		<g>
			<text transform="matrix(1 0 0 1 442.6898 63.6529)" font-family="IBMPlexSans, IBM Plex Sans" font-size="6.3935px">Application</text>
			<g>
				<circle fill="#757575" cx="431.4" cy="61" r="5.4"/>
			</g>
		</g>
		<g>
			<g>
				<circle fill="#0DB5B3" cx="563.5" cy="61.1" r="5.4"/>
			</g>
		</g>
		<text transform="matrix(1 0 0 1 509.1991 48.6248)" font-family="IBMPlexSans, IBM Plex Sans" font-size="6.3935px">Cluster Policies</text>
		<g>
			<circle fill="#0F6DFF" cx="563.5" cy="46.4" r="5.4"/>
		</g>
		<line fill="none" stroke="#000000" stroke-width="0.35" stroke-miterlimit="10" x1="414.5" y1="72.1" x2="414.5" y2="36.1"/>
	</g>
	<g>
		<text transform="matrix(1 0 0 1 645.8349 318.0003)"><tspan x="0" y="0" font-family="IBMPlexSans, IBM Plex Sans" font-size="7px">Hyperledger Fabric </tspan><tspan x="17.8" y="8.4" font-family="IBMPlexSans, IBM Plex Sans" font-size="7px">Orderer</tspan></text>
	</g>
	<circle fill="#0DB5B3" cx="675.9" cy="290.1" r="18"/>
	<path fill="none" stroke="#FFFFFF" stroke-width="0.75" stroke-linecap="round" stroke-miterlimit="10" d="M76.9,248.2
		c0,2.7-2.2,4.8-4.8,4.8c-2.7,0-4.8-2.2-4.8-4.8c0-2.7,2.2-4.8,4.8-4.8C74.7,243.4,76.9,245.5,76.9,248.2"/>
	<path fill="none" stroke="#FFFFFF" stroke-width="0.75" stroke-linecap="round" stroke-miterlimit="10" d="M62.6,265
		c0.9-4.4,4.8-7.8,9.5-7.8c4.7,0,8.6,3.3,9.5,7.7"/>

		<circle fill="none" stroke="#FFFFFF" stroke-width="0.75" stroke-linecap="round" stroke-miterlimit="10" cx="72.1" cy="254.3" r="14.3"/>

		<ellipse transform="matrix(0.8231 -0.5679 0.5679 0.8231 -139.4301 82.4201)" stroke="#FFFFFF" stroke-width="0.75" stroke-miterlimit="10" cx="62.6" cy="265" rx="1.1" ry="1.1"/>
	<g>
		<g>
			<path fill="none" stroke="#FFFFFF" stroke-width="0.75" stroke-linecap="round" stroke-linejoin="round" d="M513,334.9
				c-4.7,4.7-12.4,4.7-17.1,0s-4.7-12.4,0-17.1"/>
		</g>
		<g>
			<path fill="none" stroke="#FFFFFF" stroke-width="0.75" stroke-linecap="round" stroke-linejoin="round" d="M495.9,317.7
				c4.7-4.7,12.4-4.7,17.1,0c4.7,4.7,4.7,12.4,0,17.1"/>
		</g>
		<g>

				<line fill="none" stroke="#FFFFFF" stroke-width="0.75" stroke-linecap="round" stroke-linejoin="round" stroke-miterlimit="10" x1="498.5" y1="321.1" x2="498.5" y2="325.5"/>

				<line fill="none" stroke="#FFFFFF" stroke-width="0.75" stroke-linecap="round" stroke-linejoin="round" stroke-miterlimit="10" x1="498.5" y1="331.4" x2="498.5" y2="327"/>

				<line fill="none" stroke="#FFFFFF" stroke-width="0.75" stroke-linecap="round" stroke-linejoin="round" stroke-miterlimit="10" x1="503.6" y1="326.3" x2="499.2" y2="326.3"/>

				<line fill="none" stroke="#FFFFFF" stroke-width="0.75" stroke-linecap="round" stroke-linejoin="round" stroke-miterlimit="10" x1="493.3" y1="326.3" x2="497.7" y2="326.3"/>
		</g>
		<g>

				<line fill="none" stroke="#FFFFFF" stroke-width="0.75" stroke-linecap="round" stroke-linejoin="round" stroke-miterlimit="10" x1="510.3" y1="321.1" x2="510.3" y2="325.6"/>

				<line fill="none" stroke="#FFFFFF" stroke-width="0.75" stroke-linecap="round" stroke-linejoin="round" stroke-miterlimit="10" x1="510.2" y1="331.5" x2="510.2" y2="327"/>

				<line fill="none" stroke="#FFFFFF" stroke-width="0.75" stroke-linecap="round" stroke-linejoin="round" stroke-miterlimit="10" x1="515.4" y1="326.3" x2="511" y2="326.3"/>

				<line fill="none" stroke="#FFFFFF" stroke-width="0.75" stroke-linecap="round" stroke-linejoin="round" stroke-miterlimit="10" x1="505.1" y1="326.3" x2="509.5" y2="326.3"/>
		</g>

			<line fill="none" stroke="#FFFFFF" stroke-width="0.75" stroke-linecap="round" stroke-linejoin="round" stroke-miterlimit="10" x1="504.4" y1="327" x2="504.4" y2="331.5"/>

			<line fill="none" stroke="#FFFFFF" stroke-width="0.75" stroke-linecap="round" stroke-linejoin="round" stroke-miterlimit="10" x1="504.4" y1="337.3" x2="504.4" y2="332.9"/>

			<line fill="none" stroke="#FFFFFF" stroke-width="0.75" stroke-linecap="round" stroke-linejoin="round" stroke-miterlimit="10" x1="509.5" y1="332.2" x2="505.1" y2="332.2"/>

			<line fill="none" stroke="#FFFFFF" stroke-width="0.75" stroke-linecap="round" stroke-linejoin="round" stroke-miterlimit="10" x1="499.2" y1="332.2" x2="503.6" y2="332.2"/>
		<g>

				<line fill="none" stroke="#FFFFFF" stroke-width="0.75" stroke-linecap="round" stroke-linejoin="round" stroke-miterlimit="10" x1="504.4" y1="325.6" x2="504.4" y2="321.1"/>

				<line fill="none" stroke="#FFFFFF" stroke-width="0.75" stroke-linecap="round" stroke-linejoin="round" stroke-miterlimit="10" x1="509.5" y1="320.4" x2="505.1" y2="320.4"/>

				<line fill="none" stroke="#FFFFFF" stroke-width="0.75" stroke-linecap="round" stroke-linejoin="round" stroke-miterlimit="10" x1="499.2" y1="320.4" x2="503.6" y2="320.4"/>
		</g>

			<line fill="none" stroke="#FFFFFF" stroke-width="0.75" stroke-linecap="round" stroke-linejoin="round" stroke-miterlimit="10" x1="504.4" y1="319.7" x2="504.4" y2="315.3"/>

			<rect x="494.8" y="316.6" fill="#0F6DFF" stroke="#FFFFFF" stroke-width="0.75" stroke-linecap="round" stroke-linejoin="round" stroke-miterlimit="10" width="2.2" height="2.2"/>

			<rect x="511.9" y="333.8" fill="#0F6DFF" stroke="#FFFFFF" stroke-width="0.75" stroke-linecap="round" stroke-linejoin="round" stroke-miterlimit="10" width="2.2" height="2.2"/>
	</g>
	<g>
		<g>
			<polyline fill="none" stroke="#FFFFFF" stroke-width="0.75" stroke-linecap="round" stroke-linejoin="round" points="138,243.6
				132.1,253.8 138,264.1 			"/>
		</g>
		<g>
			<polyline fill="none" stroke="#FFFFFF" stroke-width="0.75" stroke-linecap="round" stroke-linejoin="round" points="
				150.4,264.1 156.2,253.8 150.4,243.6 			"/>
		</g>

			<circle fill="#E3E3E3" stroke="#FFFFFF" stroke-width="0.75" stroke-linecap="round" stroke-linejoin="round" stroke-miterlimit="10" cx="150.3" cy="264.1" r="1.1"/>

			<circle fill="#E3E3E3" stroke="#FFFFFF" stroke-width="0.75" stroke-linecap="round" stroke-linejoin="round" stroke-miterlimit="10" cx="150.3" cy="243.5" r="1.1"/>

			<circle fill="#E3E3E3" stroke="#FFFFFF" stroke-width="0.75" stroke-linecap="round" stroke-linejoin="round" stroke-miterlimit="10" cx="138.1" cy="264.1" r="1.1"/>

			<circle fill="#E3E3E3" stroke="#FFFFFF" stroke-width="0.75" stroke-linecap="round" stroke-linejoin="round" stroke-miterlimit="10" cx="138" cy="243.6" r="1.1"/>
		<g>

				<line fill="none" stroke="#FFFFFF" stroke-width="0.75" stroke-linecap="round" stroke-linejoin="round" x1="137.3" y1="248.3" x2="149.3" y2="248.3"/>
		</g>
		<g>

				<line fill="none" stroke="#FFFFFF" stroke-width="0.75" stroke-linecap="round" stroke-linejoin="round" x1="137.3" y1="259.3" x2="149.3" y2="259.3"/>
		</g>
		<g>

				<line fill="none" stroke="#FFFFFF" stroke-width="0.75" stroke-linecap="round" stroke-linejoin="round" x1="153.9" y1="253.8" x2="136.2" y2="253.8"/>
		</g>

			<circle fill="#E3E3E3" stroke="#FFFFFF" stroke-width="0.75" stroke-linecap="round" stroke-linejoin="round" stroke-miterlimit="10" cx="149.3" cy="259.3" r="1.1"/>

			<circle fill="#E3E3E3" stroke="#FFFFFF" stroke-width="0.75" stroke-linecap="round" stroke-linejoin="round" stroke-miterlimit="10" cx="136.2" cy="253.8" r="1.1"/>

			<circle fill="#E3E3E3" stroke="#FFFFFF" stroke-width="0.75" stroke-linecap="round" stroke-linejoin="round" stroke-miterlimit="10" cx="149.3" cy="248.3" r="1.1"/>
	</g>
	<g>

			<line fill="none" stroke="#FFFFFF" stroke-width="0.72" stroke-linecap="round" stroke-linejoin="round" stroke-miterlimit="10" x1="643" y1="223.7" x2="646.3" y2="229.5"/>

			<path fill="none" stroke="#FFFFFF" stroke-width="0.72" stroke-linecap="round" stroke-linejoin="round" stroke-miterlimit="10" d="
			M643.5,221.7c0.9-1,1.5-2.3,1.5-3.8c0-3-2.4-5.5-5.5-5.5c-3,0-5.5,2.4-5.5,5.5c0,1.5,0.6,2.8,1.5,3.8l1.2,1l-4,6.8"/>

			<path fill="none" stroke="#FFFFFF" stroke-width="0.72" stroke-linecap="round" stroke-linejoin="round" stroke-miterlimit="10" d="
			M644.2,203.6c-1.5-0.5-3-0.7-4.7-0.7c-8.3,0-15,6.7-15,15c0,5,2.4,9.4,6.1,12.1"/>

			<path fill="none" stroke="#FFFFFF" stroke-width="0.72" stroke-linecap="round" stroke-linejoin="round" stroke-miterlimit="10" d="
			M648.4,230c3.7-2.7,6.1-7.1,6.1-12.1c0-5.6-3.1-10.5-7.6-13.1"/>
		<circle fill="none" stroke="#FFFFFF" stroke-width="0.72" stroke-miterlimit="10" cx="642.3" cy="222.5" r="1.4"/>
		<circle fill="none" stroke="#FFFFFF" stroke-width="0.72" stroke-miterlimit="10" cx="647.2" cy="230.8" r="1.4"/>
		<circle fill="none" stroke="#FFFFFF" stroke-width="0.72" stroke-miterlimit="10" cx="645.6" cy="204.1" r="1.4"/>
		<path fill="none" stroke="#FFFFFF" stroke-width="0.72" stroke-miterlimit="10" d="M630.9,230.1c0.1-0.1,0.1-0.2,0.2-0.3
			c0.5-0.5,1.4-0.5,1.9,0s0.5,1.4,0,1.9s-1.4,0.5-1.9,0C630.6,231.4,630.6,230.7,630.9,230.1"/>
	</g>
	<g>

			<line fill="none" stroke="#FFFFFF" stroke-width="0.72" stroke-linecap="round" stroke-linejoin="round" stroke-miterlimit="10" x1="679.2" y1="296.2" x2="682.5" y2="302"/>

			<path fill="none" stroke="#FFFFFF" stroke-width="0.72" stroke-linecap="round" stroke-linejoin="round" stroke-miterlimit="10" d="
			M679.7,294.2c0.9-1,1.5-2.3,1.5-3.8c0-3-2.4-5.5-5.5-5.5s-5.5,2.4-5.5,5.5c0,1.5,0.6,2.8,1.5,3.8l1.2,1l-4,6.8"/>

			<path fill="none" stroke="#FFFFFF" stroke-width="0.72" stroke-linecap="round" stroke-linejoin="round" stroke-miterlimit="10" d="
			M680.4,276.1c-1.5-0.5-3-0.7-4.7-0.7c-8.3,0-15,6.7-15,15c0,5,2.4,9.4,6.1,12.1"/>

			<path fill="none" stroke="#FFFFFF" stroke-width="0.72" stroke-linecap="round" stroke-linejoin="round" stroke-miterlimit="10" d="
			M684.6,302.5c3.7-2.7,6.1-7.1,6.1-12.1c0-5.6-3.1-10.5-7.6-13.1"/>
		<circle fill="none" stroke="#FFFFFF" stroke-width="0.72" stroke-miterlimit="10" cx="678.5" cy="295.1" r="1.4"/>
		<circle fill="none" stroke="#FFFFFF" stroke-width="0.72" stroke-miterlimit="10" cx="683.4" cy="303.4" r="1.4"/>
		<circle fill="none" stroke="#FFFFFF" stroke-width="0.72" stroke-miterlimit="10" cx="681.8" cy="276.7" r="1.4"/>
		<path fill="none" stroke="#FFFFFF" stroke-width="0.72" stroke-miterlimit="10" d="M667.1,302.7c0.1-0.1,0.1-0.2,0.2-0.3
			c0.5-0.5,1.4-0.5,1.9,0c0.5,0.5,0.5,1.4,0,1.9c-0.5,0.5-1.4,0.5-1.9,0C666.9,303.9,666.8,303.2,667.1,302.7"/>
	</g>
	<g>

			<line fill="none" stroke="#FFFFFF" stroke-width="0.72" stroke-linecap="round" stroke-linejoin="round" stroke-miterlimit="10" x1="714.9" y1="223.7" x2="718.2" y2="229.5"/>

			<path fill="none" stroke="#FFFFFF" stroke-width="0.72" stroke-linecap="round" stroke-linejoin="round" stroke-miterlimit="10" d="
			M715.4,221.7c0.9-1,1.5-2.3,1.5-3.8c0-3-2.4-5.5-5.5-5.5s-5.5,2.4-5.5,5.5c0,1.5,0.6,2.8,1.5,3.8l1.2,1l-4,6.8"/>

			<path fill="none" stroke="#FFFFFF" stroke-width="0.72" stroke-linecap="round" stroke-linejoin="round" stroke-miterlimit="10" d="
			M716.1,203.6c-1.5-0.5-3-0.7-4.7-0.7c-8.3,0-15,6.7-15,15c0,5,2.4,9.4,6.1,12.1"/>

			<path fill="none" stroke="#FFFFFF" stroke-width="0.72" stroke-linecap="round" stroke-linejoin="round" stroke-miterlimit="10" d="
			M720.3,230c3.7-2.7,6.1-7.1,6.1-12.1c0-5.6-3.1-10.5-7.6-13.1"/>
		<circle fill="none" stroke="#FFFFFF" stroke-width="0.72" stroke-miterlimit="10" cx="714.2" cy="222.5" r="1.4"/>
		<circle fill="none" stroke="#FFFFFF" stroke-width="0.72" stroke-miterlimit="10" cx="719.1" cy="230.8" r="1.4"/>
		<circle fill="none" stroke="#FFFFFF" stroke-width="0.72" stroke-miterlimit="10" cx="717.5" cy="204.1" r="1.4"/>
		<path fill="none" stroke="#FFFFFF" stroke-width="0.72" stroke-miterlimit="10" d="M702.8,230.1c0.1-0.1,0.1-0.2,0.2-0.3
			c0.5-0.5,1.4-0.5,1.9,0s0.5,1.4,0,1.9s-1.4,0.5-1.9,0C702.5,231.4,702.5,230.7,702.8,230.1"/>
	</g>
	<g>
		<path fill="none" stroke="#FFFFFF" stroke-width="0.648" stroke-linejoin="round" stroke-miterlimit="10" d="M300.6,182.7
			c-2.1,2.3-7.3,7.5-12.5,7.5c-6.7,0-13.4-8.6-13.4-8.6s6.7-8.6,13.4-8.6c5.2,0,10.4,5.2,12.5,7.5"/>

			<circle fill="none" stroke="#FFFFFF" stroke-width="0.648" stroke-linecap="round" stroke-linejoin="round" stroke-miterlimit="10" cx="288.1" cy="181.6" r="6.1"/>
		<g>

				<line fill="none" stroke="#FFFFFF" stroke-width="0.648" stroke-linejoin="round" stroke-miterlimit="10" x1="286.9" y1="179.5" x2="282" y2="171"/>
		</g>
		<g>

				<line fill="none" stroke="#FFFFFF" stroke-width="0.648" stroke-linejoin="round" stroke-miterlimit="10" x1="290.6" y1="181.6" x2="300.1" y2="181.6"/>
		</g>
		<g>

				<line fill="none" stroke="#FFFFFF" stroke-width="0.648" stroke-linejoin="round" stroke-miterlimit="10" x1="286.9" y1="183.8" x2="282" y2="192.3"/>
		</g>
		<circle fill="none" stroke="#FFFFFF" stroke-width="0.648" stroke-miterlimit="10" cx="301.3" cy="181.7" r="1.2"/>

			<circle fill="none" stroke="#FFFFFF" stroke-width="0.648" stroke-linecap="round" stroke-linejoin="round" stroke-miterlimit="10" cx="281.4" cy="170" r="1.2"/>

			<circle fill="none" stroke="#FFFFFF" stroke-width="0.648" stroke-linecap="round" stroke-linejoin="round" stroke-miterlimit="10" cx="281.4" cy="193.3" r="1.2"/>

			<circle fill="none" stroke="#FFFFFF" stroke-width="0.648" stroke-linecap="round" stroke-linejoin="round" stroke-miterlimit="10" cx="288.1" cy="181.6" r="2.4"/>
	</g>
	<g>
		<path fill="none" stroke="#FFFFFF" stroke-width="0.648" stroke-linejoin="round" stroke-miterlimit="10" d="M300.6,255.3
			c-2.1,2.3-7.3,7.5-12.5,7.5c-6.7,0-13.4-8.6-13.4-8.6s6.7-8.6,13.4-8.6c5.2,0,10.4,5.2,12.5,7.5"/>

			<circle fill="none" stroke="#FFFFFF" stroke-width="0.648" stroke-linecap="round" stroke-linejoin="round" stroke-miterlimit="10" cx="288.1" cy="254.3" r="6.1"/>
		<g>

				<line fill="none" stroke="#FFFFFF" stroke-width="0.648" stroke-linejoin="round" stroke-miterlimit="10" x1="286.9" y1="252.2" x2="282" y2="243.6"/>
		</g>
		<g>

				<line fill="none" stroke="#FFFFFF" stroke-width="0.648" stroke-linejoin="round" stroke-miterlimit="10" x1="290.6" y1="254.3" x2="300.1" y2="254.3"/>
		</g>
		<g>

				<line fill="none" stroke="#FFFFFF" stroke-width="0.648" stroke-linejoin="round" stroke-miterlimit="10" x1="286.9" y1="256.4" x2="282" y2="264.9"/>
		</g>
		<circle fill="none" stroke="#FFFFFF" stroke-width="0.648" stroke-miterlimit="10" cx="301.3" cy="254.4" r="1.2"/>

			<circle fill="none" stroke="#FFFFFF" stroke-width="0.648" stroke-linecap="round" stroke-linejoin="round" stroke-miterlimit="10" cx="281.4" cy="242.6" r="1.2"/>

			<circle fill="none" stroke="#FFFFFF" stroke-width="0.648" stroke-linecap="round" stroke-linejoin="round" stroke-miterlimit="10" cx="281.4" cy="266" r="1.2"/>

			<circle fill="none" stroke="#FFFFFF" stroke-width="0.648" stroke-linecap="round" stroke-linejoin="round" stroke-miterlimit="10" cx="288.1" cy="254.3" r="2.4"/>
	</g>
	<g>
		<path fill="none" stroke="#FFFFFF" stroke-width="0.648" stroke-linejoin="round" stroke-miterlimit="10" d="M300.6,327.4
			c-2.1,2.3-7.3,7.5-12.5,7.5c-6.7,0-13.4-8.6-13.4-8.6s6.7-8.6,13.4-8.6c5.2,0,10.4,5.2,12.5,7.5"/>

			<circle fill="none" stroke="#FFFFFF" stroke-width="0.648" stroke-linecap="round" stroke-linejoin="round" stroke-miterlimit="10" cx="288.1" cy="326.3" r="6.1"/>
		<g>

				<line fill="none" stroke="#FFFFFF" stroke-width="0.648" stroke-linejoin="round" stroke-miterlimit="10" x1="286.9" y1="324.2" x2="282" y2="315.7"/>
		</g>
		<g>

				<line fill="none" stroke="#FFFFFF" stroke-width="0.648" stroke-linejoin="round" stroke-miterlimit="10" x1="290.6" y1="326.3" x2="300.1" y2="326.3"/>
		</g>
		<g>

				<line fill="none" stroke="#FFFFFF" stroke-width="0.648" stroke-linejoin="round" stroke-miterlimit="10" x1="286.9" y1="328.4" x2="282" y2="336.9"/>
		</g>
		<circle fill="none" stroke="#FFFFFF" stroke-width="0.648" stroke-miterlimit="10" cx="301.3" cy="326.4" r="1.2"/>

			<circle fill="none" stroke="#FFFFFF" stroke-width="0.648" stroke-linecap="round" stroke-linejoin="round" stroke-miterlimit="10" cx="281.4" cy="314.7" r="1.2"/>

			<circle fill="none" stroke="#FFFFFF" stroke-width="0.648" stroke-linecap="round" stroke-linejoin="round" stroke-miterlimit="10" cx="281.4" cy="338" r="1.2"/>

			<circle fill="none" stroke="#FFFFFF" stroke-width="0.648" stroke-linecap="round" stroke-linejoin="round" stroke-miterlimit="10" cx="288.1" cy="326.3" r="2.4"/>
	</g>
	<g>

			<line fill="none" stroke="#FFFFFF" stroke-width="0.648" stroke-linecap="round" stroke-linejoin="round" stroke-miterlimit="10" x1="407.3" y1="284.9" x2="397.8" y2="290.4"/>

			<line fill="none" stroke="#FFFFFF" stroke-width="0.648" stroke-linecap="round" stroke-linejoin="round" stroke-miterlimit="10" x1="407.5" y1="290" x2="397.8" y2="295.6"/>

			<line fill="none" stroke="#FFFFFF" stroke-width="0.648" stroke-linecap="round" stroke-linejoin="round" stroke-miterlimit="10" x1="403.5" y1="281.4" x2="397.8" y2="284.7"/>
		<circle fill="none" stroke="#FFFFFF" stroke-width="0.648" stroke-miterlimit="10" cx="396.8" cy="291" r="1.2"/>

			<path fill="none" stroke="#FFFFFF" stroke-width="0.648" stroke-linecap="round" stroke-linejoin="round" stroke-miterlimit="10" d="
			M408.3,285.5c-0.7,12.6-11.6,19-11.6,19s-11.7-6.8-11.7-20.2"/>

			<path fill="none" stroke="#FFFFFF" stroke-width="0.648" stroke-linecap="round" stroke-linejoin="round" stroke-miterlimit="10" d="
			M385,284.3c2.5-1.5,11.7-6.8,11.7-6.8s8.1,4.6,10.6,6.1"/>
		<circle fill="none" stroke="#FFFFFF" stroke-width="0.648" stroke-miterlimit="10" cx="408.4" cy="284.3" r="1.2"/>
		<circle fill="none" stroke="#FFFFFF" stroke-width="0.648" stroke-miterlimit="10" cx="396.8" cy="296.2" r="1.2"/>
		<circle fill="none" stroke="#FFFFFF" stroke-width="0.648" stroke-miterlimit="10" cx="396.8" cy="285.3" r="1.2"/>
	</g>
	<g>
		<path fill="none" stroke="#FFFFFF" stroke-width="0.648" stroke-linecap="round" stroke-miterlimit="10" d="M392.6,222.9
			c1.1-0.1,2.2-0.1,3.4-0.1c3.4,0,6.5,0.3,8.7,0.7c2.2,0.4,3.6,1.1,3.6,1.7c0,0.7-1.4,1.3-3.6,1.7c-2.2,0.4-5.3,0.7-8.7,0.7
			c-0.9,0-1.7,0-2.5-0.1c-0.3,0-0.6,0-0.9,0"/>
		<path fill="none" stroke="#FFFFFF" stroke-width="0.648" stroke-linecap="round" stroke-miterlimit="10" d="M385.9,226.6
			c-1.3-0.4-2.1-0.9-2.1-1.4c0-0.7,1.4-1.3,3.6-1.7c0.8-0.2,1.7-0.3,2.6-0.4"/>
		<path fill="none" stroke="#FFFFFF" stroke-width="0.648" stroke-linecap="round" stroke-miterlimit="10" d="M392.6,218
			c1.1-0.1,2.2-0.1,3.4-0.1c3.4,0,6.5,0.3,8.7,0.7c2.2,0.4,3.6,1.1,3.6,1.7c0,0.7-1.4,1.3-3.6,1.7c-2.2,0.4-5.3,0.7-8.7,0.7
			c-0.9,0-1.7,0-2.5-0.1c-0.3,0-0.6,0-0.9,0"/>
		<path fill="none" stroke="#FFFFFF" stroke-width="0.648" stroke-linecap="round" stroke-miterlimit="10" d="M385.9,221.7
			c-1.3-0.4-2.1-0.9-2.1-1.4c0-0.7,1.4-1.3,3.6-1.7c0.8-0.2,1.7-0.3,2.6-0.4"/>
		<path fill="none" stroke="#FFFFFF" stroke-width="0.648" stroke-linecap="round" stroke-miterlimit="10" d="M392.6,213.1
			c1.1-0.1,2.2-0.1,3.4-0.1c3.4,0,6.5,0.3,8.7,0.7c2.2,0.4,3.6,1.1,3.6,1.7c0,0.7-1.4,1.3-3.6,1.7c-2.2,0.4-5.3,0.7-8.7,0.7
			c-0.9,0-1.7,0-2.5-0.1c-0.3,0-0.6,0-0.9,0"/>
		<path fill="none" stroke="#FFFFFF" stroke-width="0.648" stroke-linecap="round" stroke-miterlimit="10" d="M385.9,216.8
			c-1.3-0.4-2.1-0.9-2.1-1.4c0-0.7,1.4-1.3,3.6-1.7c0.8-0.2,1.7-0.3,2.6-0.4"/>
		<path fill="none" stroke="#FFFFFF" stroke-width="0.648" stroke-linecap="round" stroke-miterlimit="10" d="M392.6,208.2
			c1.1-0.1,2.2-0.1,3.4-0.1c3.4,0,6.5,0.3,8.7,0.7c2.2,0.4,3.6,1.1,3.6,1.7s-1.4,1.3-3.6,1.7c-2.2,0.4-5.3,0.7-8.7,0.7
			c-0.9,0-1.7,0-2.5-0.1c-0.3,0-0.6,0-0.9,0"/>
		<path fill="none" stroke="#FFFFFF" stroke-width="0.648" stroke-linecap="round" stroke-miterlimit="10" d="M385.9,211.9
			c-1.3-0.4-2.1-0.9-2.1-1.4c0-0.7,1.4-1.3,3.6-1.7c0.8-0.2,1.7-0.3,2.6-0.4"/>

			<circle fill="none" stroke="#FFFFFF" stroke-width="0.648" stroke-linecap="round" stroke-linejoin="round" stroke-miterlimit="10" cx="391.2" cy="212.8" r="1.2"/>
		<path fill="none" stroke="#FFFFFF" stroke-width="0.648" stroke-linecap="round" stroke-miterlimit="10" d="M385.9,207
			c-1.3-0.4-2.1-0.9-2.1-1.4c0-0.7,1.4-1.3,3.6-1.7s5.3-0.7,8.7-0.7c3.4,0,6.5,0.3,8.7,0.7c2.2,0.4,3.6,1.1,3.6,1.7
			c0,0.7-1.4,1.3-3.6,1.7c-2.2,0.4-5.3,0.7-8.7,0.7c-0.9,0-1.7,0-2.5-0.1c-0.3,0-0.6,0-1,0"/>

			<circle fill="none" stroke="#FFFFFF" stroke-width="0.648" stroke-linecap="round" stroke-linejoin="round" stroke-miterlimit="10" cx="391.2" cy="207.9" r="1.2"/>

			<circle fill="none" stroke="#FFFFFF" stroke-width="0.648" stroke-linecap="round" stroke-linejoin="round" stroke-miterlimit="10" cx="391.2" cy="217.7" r="1.2"/>

			<circle fill="none" stroke="#FFFFFF" stroke-width="0.648" stroke-linecap="round" stroke-linejoin="round" stroke-miterlimit="10" cx="391.2" cy="222.6" r="1.2"/>

			<circle fill="none" stroke="#FFFFFF" stroke-width="0.648" stroke-linecap="round" stroke-linejoin="round" stroke-miterlimit="10" cx="391.2" cy="227.5" r="1.2"/>
	</g>
	<text transform="matrix(1 0 0 1 162.2099 102.3465)" font-family="IBMPlexSans-Bold, IBM Plex Sans" font-weight="700" font-size="10px">Openshift Container Platform</text>

		<line fill="none" stroke="#A0A0A0" stroke-linecap="round" stroke-linejoin="round" stroke-miterlimit="10" stroke-dasharray="0,4,0,4,0,4" x1="144.2" y1="90.9" x2="144.2" y2="218.1"/>
	<text transform="matrix(1 0 0 1 522.6757 102.346)" font-family="IBMPlexSans-Bold, IBM Plex Sans" font-weight="700" font-size="10px">IBM Blockchain Platform</text>

		<line fill="none" stroke="#A0A0A0" stroke-linecap="round" stroke-linejoin="round" stroke-miterlimit="10" stroke-dasharray="0,4,0,4,0,4" x1="504.7" y1="90.9" x2="504.7" y2="145.9"/>

		<line fill="none" stroke="#A0A0A0" stroke-linecap="round" stroke-linejoin="round" stroke-miterlimit="10" stroke-dasharray="0,4,0,4,0,4" x1="504.7" y1="380.4" x2="504.7" y2="404.6"/>

		<line fill="none" stroke="#A0A0A0" stroke-linecap="round" stroke-linejoin="round" stroke-miterlimit="10" stroke-dasharray="0,4,0,4,0,4" x1="144.2" y1="306.6" x2="144.2" y2="404.6"/>
</g>
</svg>
