<svg id="ae6ffc70-890d-430d-96af-b87315ee0d26" data-name="Layer 1" xmlns="http://www.w3.org/2000/svg" width="793.03" height="420.77" viewBox="0 0 793.03 420.77">
  <rect x="331.87" y="139.45" width="238.68" height="238.68" fill="#f0f0f0"/>
  <g>
    <circle cx="504.73" cy="181.68" r="18" fill="#0db5b3"/>
    <g>
      <line x1="504.61" y1="183.87" x2="504.61" y2="168.35" fill="none" stroke="#fff" stroke-linecap="round" stroke-linejoin="round" stroke-width="0.75"/>
      <line x1="509.39" y1="181.48" x2="509.39" y2="168.35" fill="none" stroke="#fff" stroke-linecap="round" stroke-linejoin="round" stroke-width="0.75"/>
      <line x1="499.84" y1="181.48" x2="499.84" y2="168.35" fill="none" stroke="#fff" stroke-linecap="round" stroke-linejoin="round" stroke-width="0.75"/>
      <polyline points="516.02 182.47 504.65 175.91 493.27 182.47 493.27 188.04 504.65 194.61 516.02 188.04 516.02 182.47" fill="none" stroke="#fff" stroke-linecap="round" stroke-linejoin="round" stroke-width="0.75"/>
      <polyline points="493.27 182.47 504.65 189.04 516.02 182.47" fill="none" stroke="#fff" stroke-linecap="round" stroke-linejoin="round" stroke-width="0.75"/>
      <circle cx="504.61" cy="183.87" r="1.19" fill="#0db5b3" stroke="#fff" stroke-linecap="round" stroke-linejoin="round" stroke-width="0.75"/>
      <circle cx="499.84" cy="181.48" r="1.19" fill="#0db5b3" stroke="#fff" stroke-linecap="round" stroke-linejoin="round" stroke-width="0.75"/>
      <circle cx="509.39" cy="181.48" r="1.19" fill="#0db5b3" stroke="#fff" stroke-linecap="round" stroke-linejoin="round" stroke-width="0.75"/>
    </g>
  </g>
  <g>
    <circle cx="216.6" cy="254.13" r="18" fill="#757575"/>
    <polyline points="226 251.8 208.34 251.8 208.34 253.82" fill="#757575" stroke="#fff" stroke-linecap="round" stroke-linejoin="round" stroke-width="0.75"/>
    <polyline points="209.08 263.84 226 263.84 226 251.8" fill="#757575" stroke="#fff" stroke-linecap="round" stroke-linejoin="round" stroke-width="0.75"/>
    <line x1="216.06" y1="245.82" x2="216.06" y2="263.84" fill="#006161" stroke="#fff" stroke-linecap="round" stroke-linejoin="round" stroke-width="0.75"/>
    <circle cx="216.06" cy="245.82" r="1.1" fill="#757575" stroke="#fff" stroke-linecap="round" stroke-linejoin="round" stroke-width="0.75"/>
    <line x1="221.21" y1="242.88" x2="221.21" y2="263.84" fill="#006161" stroke="#fff" stroke-linecap="round" stroke-linejoin="round" stroke-width="0.75"/>
    <circle cx="221.21" cy="242.88" r="1.1" fill="#757575" stroke="#fff" stroke-linecap="round" stroke-linejoin="round" stroke-width="0.75"/>
    <line x1="210.91" y1="248.94" x2="210.91" y2="263.84" fill="#006161" stroke="#fff" stroke-linecap="round" stroke-linejoin="round" stroke-width="0.75"/>
    <circle cx="210.91" cy="248.76" r="1.1" fill="#757575" stroke="#fff" stroke-linecap="round" stroke-linejoin="round" stroke-width="0.75"/>
    <polygon points="203.19 253.91 208.89 263.84 226 263.84 220.2 253.91 203.19 253.91" fill="#757575" stroke="#fff" stroke-linecap="round" stroke-linejoin="round" stroke-width="0.75"/>
  </g>
  <g>
    <line x1="195.29" y1="254.31" x2="162.19" y2="254.31" fill="none" stroke="#a0a0a0" stroke-linejoin="round"/>
    <polygon points="194.56 251.81 198.88 254.31 194.56 256.8 194.56 251.81" fill="#a0a0a0"/>
  </g>
  <g>
    <line x1="483.4" y1="180.5" x2="413.29" y2="180.5" fill="none" stroke="#a0a0a0" stroke-linejoin="round"/>
    <polygon points="482.67 178.01 486.99 180.5 482.67 183 482.67 178.01" fill="#a0a0a0"/>
  </g>
  <g>
    <path d="M234.94,254.17h4.31A12.71,12.71,0,0,0,252,241.46V194.65a12.7,12.7,0,0,1,12.7-12.7h1.53" fill="none" stroke="#a0a0a0" stroke-linejoin="round"/>
    <polygon points="265.46 184.44 269.78 181.95 265.46 179.46 265.46 184.44" fill="#a0a0a0"/>
  </g>
  <g>
    <path d="M305.72,326.3h23.9a12.7,12.7,0,0,0,12.7-12.7V194.79a12.69,12.69,0,0,1,12.7-12.7H373.9" fill="none" stroke="#a0a0a0" stroke-linejoin="round"/>
    <polygon points="373.17 184.58 377.49 182.09 373.17 179.59 373.17 184.58" fill="#a0a0a0"/>
  </g>
  <g>
    <path d="M414.7,258.08h22.89a12.69,12.69,0,0,0,12.7-12.7V185.15" fill="none" stroke="#a0a0a0" stroke-linecap="round" stroke-linejoin="round" stroke-dasharray="0 4 0 4 0 4"/>
    <polygon points="452.79 185.88 450.3 181.57 447.8 185.88 452.79 185.88" fill="#a0a0a0"/>
  </g>
  <g>
    <path d="M414.7,328.4h22.89a12.7,12.7,0,0,0,12.7-12.7V255.47" fill="none" stroke="#a0a0a0" stroke-linecap="round" stroke-linejoin="round" stroke-dasharray="0 4 0 4 0 4"/>
    <polygon points="452.79 256.2 450.3 251.88 447.8 256.2 452.79 256.2" fill="#a0a0a0"/>
  </g>
  <g>
    <path d="M522.25,326.3h22.9a12.7,12.7,0,0,0,12.7-12.7V275.79a12.69,12.69,0,0,1,12.7-12.7h19.88" fill="none" stroke="#a0a0a0" stroke-linejoin="round"/>
    <polygon points="589.7 265.58 594.02 263.09 589.7 260.59 589.7 265.58" fill="#a0a0a0"/>
  </g>
  <g>
    <line x1="122.54" y1="254.31" x2="90.12" y2="254.31" fill="none" stroke="#a0a0a0" stroke-linejoin="round"/>
    <polygon points="121.81 251.81 126.13 254.31 121.81 256.8 121.81 251.81" fill="#a0a0a0"/>
  </g>
  <g>
    <line x1="504.65" y1="304.68" x2="504.65" y2="221.56" fill="none" stroke="#a0a0a0" stroke-linejoin="round"/>
    <polygon points="507.15 303.95 504.65 308.26 502.16 303.95 507.15 303.95" fill="#a0a0a0"/>
  </g>
  <g>
    <line x1="287.94" y1="232.14" x2="287.94" y2="221.43" fill="none" stroke="#a0a0a0" stroke-linejoin="round"/>
    <polygon points="290.43 231.41 287.94 235.72 285.45 231.41 290.43 231.41" fill="#a0a0a0"/>
  </g>
  <g>
    <line x1="287.94" y1="304.78" x2="287.94" y2="287.05" fill="none" stroke="#a0a0a0" stroke-linejoin="round"/>
    <polygon points="290.43 304.05 287.94 308.37 285.45 304.05 290.43 304.05" fill="#a0a0a0"/>
  </g>
  <g>
    <line x1="395.53" y1="240.26" x2="395.53" y2="222.54" fill="none" stroke="#a0a0a0" stroke-linecap="round" stroke-linejoin="round" stroke-dasharray="0 4 0 4 0 4"/>
    <polygon points="398.02 239.53 395.53 243.85 393.04 239.53 398.02 239.53" fill="#a0a0a0"/>
  </g>
  <g>
    <line x1="395.53" y1="318.52" x2="395.53" y2="300.79" fill="none" stroke="#a0a0a0" stroke-linecap="round" stroke-linejoin="round" stroke-dasharray="0 4 0 4 0 4"/>
    <polygon points="398.02 317.79 395.53 322.1 393.04 317.79 398.02 317.79" fill="#a0a0a0"/>
  </g>
  <g>
    <line x1="396.51" y1="239.96" x2="396.51" y2="258.07" fill="none" stroke="#a0a0a0" stroke-linecap="round" stroke-linejoin="round" stroke-dasharray="0 4 0 4 0 4"/>
    <polygon points="394.02 240.69 396.51 236.37 399.01 240.69 394.02 240.69" fill="#a0a0a0"/>
  </g>
  <rect x="594.77" y="175.91" width="162.21" height="168.39" fill="#f0f0f0"/>
  <text transform="translate(38.79 281.95)" font-size="7" font-family="IBMPlexSans, IBM Plex Sans">Cluster administrator</text>
  <circle cx="72.12" cy="254.17" r="18"/>
  <circle cx="395.62" cy="181.68" r="18" fill="#eb4b86"/>
  <circle cx="711.68" cy="217.49" r="18" fill="#0db5b3"/>
  <circle cx="144.19" cy="254.31" r="18" fill="#e3e3e3"/>
  <circle cx="395.84" cy="254.26" r="18" fill="#eb4b86"/>
  <circle cx="504.57" cy="326.26" r="18" fill="#0f6dff"/>
  <circle cx="639.59" cy="217.49" r="18" fill="#0db5b3"/>
  <text transform="translate(269.64 281.95)" font-size="7" font-family="IBMPlexSans, IBM Plex Sans">ClusterRole</text>
  <text transform="translate(340.99 153.59)" font-size="7" font-family="IBMPlexSans, IBM Plex Sans">Kubernetes operations</text>
  <text transform="translate(604.34 190.68)" font-size="7" font-family="IBMPlexSans, IBM Plex Sans">Blockchain operations</text>
  <text transform="translate(257.7 353.92)" font-size="7" font-family="IBMPlexSans, IBM Plex Sans">ClusterRoleBinding</text>
  <circle cx="287.92" cy="181.68" r="18" fill="#a11950"/>
  <circle cx="288.62" cy="254.17" r="18" fill="#a11950"/>
  <circle cx="287.96" cy="326.26" r="18" fill="#a11950"/>
  <g>
    <polyline points="36.05 72.14 756.98 72.14 756.98 36.07 36.05 36.07" fill="#fff" stroke="#000" stroke-miterlimit="10" stroke-width="0.35"/>
    <text transform="translate(35.47 30.13)" font-size="8.13" font-family="IBMPlexSans, IBM Plex Sans">IBM Blockchain Platform</text>
    <text transform="translate(425.8 30.13)" font-size="8.13" font-family="IBMPlexSans, IBM Plex Sans">Legend</text>
    <text transform="translate(35.47 60.59)" font-size="18.1" font-family="IBMPlexSans-Bold, IBM Plex Sans" font-weight="700">Openshift Container Platform install</text>
    <text transform="translate(574.65 63.85)" font-size="6.39" font-family="IBMPlexSans, IBM Plex Sans">Infrastructure</text>
    <g>
      <text transform="translate(574.69 48.58)" font-size="6.39" font-family="IBMPlexSans, IBM Plex Sans">Management</text>
      <circle cx="497.45" cy="45.91" r="5.35" fill="#a11950"/>
    </g>
    <circle cx="497.45" cy="61.48" r="5.35" fill="#eb4b86"/>
    <g>
      <text transform="translate(443.17 48.63)" font-size="6.39" font-family="IBMPlexSans, IBM Plex Sans">User</text>
      <circle cx="431.42" cy="45.91" r="5.35"/>
    </g>
    <text transform="translate(508.72 63.7)" font-size="6.39" font-family="IBMPlexSans, IBM Plex Sans">Security</text>
    <g>
      <text transform="translate(442.69 63.65)" font-size="6.39" font-family="IBMPlexSans, IBM Plex Sans">Application</text>
      <circle cx="431.42" cy="60.99" r="5.35" fill="#757575"/>
    </g>
    <circle cx="563.49" cy="61.13" r="5.35" fill="#0db5b3"/>
    <text transform="translate(509.2 48.62)" font-size="6.39" font-family="IBMPlexSans, IBM Plex Sans">Cluster Policies</text>
    <circle cx="563.52" cy="46.4" r="5.35" fill="#0f6dff"/>
    <line x1="414.54" y1="72.14" x2="414.54" y2="36.07" fill="none" stroke="#000" stroke-miterlimit="10" stroke-width="0.35"/>
  </g>
  <circle cx="675.87" cy="290.14" r="18" fill="#0db5b3"/>
  <path d="M76.88,248.21A4.85,4.85,0,1,1,72,243.36a4.85,4.85,0,0,1,4.85,4.85" fill="none" stroke="#fff" stroke-linecap="round" stroke-miterlimit="10" stroke-width="0.75"/>
  <path d="M62.58,265a9.7,9.7,0,0,1,19-.13" fill="none" stroke="#fff" stroke-linecap="round" stroke-miterlimit="10" stroke-width="0.75"/>
  <circle cx="72.09" cy="254.31" r="14.32" fill="none" stroke="#fff" stroke-linecap="round" stroke-miterlimit="10" stroke-width="0.75"/>
  <circle cx="62.58" cy="265.02" r="1.1" transform="translate(-139.43 82.42) rotate(-34.6)" stroke="#fff" stroke-miterlimit="10" stroke-width="0.75"/>
  <g>
    <path d="M513,334.86a12.1,12.1,0,0,1-17.12-17.11" fill="none" stroke="#fff" stroke-linecap="round" stroke-linejoin="round" stroke-width="0.75"/>
    <path d="M495.88,317.75A12.1,12.1,0,0,1,513,334.86" fill="none" stroke="#fff" stroke-linecap="round" stroke-linejoin="round" stroke-width="0.75"/>
    <g>
      <line x1="498.46" y1="321.13" x2="498.46" y2="325.54" fill="none" stroke="#fff" stroke-linecap="round" stroke-linejoin="round" stroke-width="0.75"/>
      <line x1="498.46" y1="331.44" x2="498.46" y2="327.01" fill="none" stroke="#fff" stroke-linecap="round" stroke-linejoin="round" stroke-width="0.75"/>
      <line x1="503.64" y1="326.29" x2="499.23" y2="326.29" fill="none" stroke="#fff" stroke-linecap="round" stroke-linejoin="round" stroke-width="0.75"/>
      <line x1="493.34" y1="326.29" x2="497.72" y2="326.29" fill="none" stroke="#fff" stroke-linecap="round" stroke-linejoin="round" stroke-width="0.75"/>
    </g>
    <g>
      <line x1="510.25" y1="321.14" x2="510.25" y2="325.56" fill="none" stroke="#fff" stroke-linecap="round" stroke-linejoin="round" stroke-width="0.75"/>
      <line x1="510.24" y1="331.46" x2="510.24" y2="327.03" fill="none" stroke="#fff" stroke-linecap="round" stroke-linejoin="round" stroke-width="0.75"/>
      <line x1="515.42" y1="326.29" x2="510.99" y2="326.29" fill="none" stroke="#fff" stroke-linecap="round" stroke-linejoin="round" stroke-width="0.75"/>
      <line x1="505.12" y1="326.29" x2="509.52" y2="326.29" fill="none" stroke="#fff" stroke-linecap="round" stroke-linejoin="round" stroke-width="0.75"/>
    </g>
    <line x1="504.38" y1="327.03" x2="504.38" y2="331.46" fill="none" stroke="#fff" stroke-linecap="round" stroke-linejoin="round" stroke-width="0.75"/>
    <line x1="504.38" y1="337.33" x2="504.38" y2="332.93" fill="none" stroke="#fff" stroke-linecap="round" stroke-linejoin="round" stroke-width="0.75"/>
    <line x1="509.52" y1="332.2" x2="505.12" y2="332.2" fill="none" stroke="#fff" stroke-linecap="round" stroke-linejoin="round" stroke-width="0.75"/>
    <line x1="499.23" y1="332.18" x2="503.64" y2="332.18" fill="none" stroke="#fff" stroke-linecap="round" stroke-linejoin="round" stroke-width="0.75"/>
    <g>
      <line x1="504.39" y1="325.56" x2="504.39" y2="321.14" fill="none" stroke="#fff" stroke-linecap="round" stroke-linejoin="round" stroke-width="0.75"/>
      <line x1="509.52" y1="320.4" x2="505.12" y2="320.4" fill="none" stroke="#fff" stroke-linecap="round" stroke-linejoin="round" stroke-width="0.75"/>
      <line x1="499.23" y1="320.4" x2="503.64" y2="320.4" fill="none" stroke="#fff" stroke-linecap="round" stroke-linejoin="round" stroke-width="0.75"/>
    </g>
    <line x1="504.38" y1="319.67" x2="504.38" y2="315.25" fill="none" stroke="#fff" stroke-linecap="round" stroke-linejoin="round" stroke-width="0.75"/>
    <rect x="494.78" y="316.64" width="2.21" height="2.21" stroke-width="0.75" stroke="#fff" stroke-linecap="round" stroke-linejoin="round" fill="#0f6dff"/>
    <rect x="511.89" y="333.76" width="2.21" height="2.21" stroke-width="0.75" stroke="#fff" stroke-linecap="round" stroke-linejoin="round" fill="#0f6dff"/>
  </g>
  <g>
    <polyline points="137.98 243.56 132.13 253.82 137.98 264.08" fill="none" stroke="#fff" stroke-linecap="round" stroke-linejoin="round" stroke-width="0.75"/>
    <polyline points="150.4 264.08 156.24 253.82 150.4 243.56" fill="none" stroke="#fff" stroke-linecap="round" stroke-linejoin="round" stroke-width="0.75"/>
    <circle cx="150.3" cy="264.14" r="1.1" fill="#e3e3e3" stroke="#fff" stroke-linecap="round" stroke-linejoin="round" stroke-width="0.75"/>
    <circle cx="150.3" cy="243.5" r="1.1" fill="#e3e3e3" stroke="#fff" stroke-linecap="round" stroke-linejoin="round" stroke-width="0.75"/>
    <circle cx="138.07" cy="264.14" r="1.1" fill="#e3e3e3" stroke="#fff" stroke-linecap="round" stroke-linejoin="round" stroke-width="0.75"/>
    <circle cx="137.98" cy="243.59" r="1.1" fill="#e3e3e3" stroke="#fff" stroke-linecap="round" stroke-linejoin="round" stroke-width="0.75"/>
    <line x1="137.34" y1="248.34" x2="149.3" y2="248.34" fill="none" stroke="#fff" stroke-linecap="round" stroke-linejoin="round" stroke-width="0.75"/>
    <line x1="137.34" y1="259.3" x2="149.3" y2="259.3" fill="none" stroke="#fff" stroke-linecap="round" stroke-linejoin="round" stroke-width="0.75"/>
    <line x1="153.86" y1="253.82" x2="136.15" y2="253.82" fill="none" stroke="#fff" stroke-linecap="round" stroke-linejoin="round" stroke-width="0.75"/>
    <circle cx="149.3" cy="259.3" r="1.1" fill="#e3e3e3" stroke="#fff" stroke-linecap="round" stroke-linejoin="round" stroke-width="0.75"/>
    <circle cx="136.15" cy="253.82" r="1.1" fill="#e3e3e3" stroke="#fff" stroke-linecap="round" stroke-linejoin="round" stroke-width="0.75"/>
    <circle cx="149.3" cy="248.34" r="1.1" fill="#e3e3e3" stroke="#fff" stroke-linecap="round" stroke-linejoin="round" stroke-width="0.75"/>
  </g>
  <g>
    <line x1="642.97" y1="223.72" x2="646.28" y2="229.48" fill="none" stroke="#fff" stroke-linecap="round" stroke-linejoin="round" stroke-width="0.72"/>
    <path d="M643.5,221.67a5.46,5.46,0,1,0-9.39-3.78,5.4,5.4,0,0,0,1.51,3.76l1.22,1-4,6.82" fill="none" stroke="#fff" stroke-linecap="round" stroke-linejoin="round" stroke-width="0.72"/>
    <path d="M644.22,203.62A15,15,0,0,0,630.7,230" fill="none" stroke="#fff" stroke-linecap="round" stroke-linejoin="round" stroke-width="0.72"/>
    <path d="M648.43,230A15,15,0,0,0,647,204.83" fill="none" stroke="#fff" stroke-linecap="round" stroke-linejoin="round" stroke-width="0.72"/>
    <circle cx="642.29" cy="222.55" r="1.36" fill="none" stroke="#fff" stroke-miterlimit="10" stroke-width="0.72"/>
    <circle cx="647.18" cy="230.84" r="1.36" fill="none" stroke="#fff" stroke-miterlimit="10" stroke-width="0.72"/>
    <circle cx="645.59" cy="204.14" r="1.36" fill="none" stroke="#fff" stroke-miterlimit="10" stroke-width="0.72"/>
    <path d="M630.9,230.13a1,1,0,0,1,.2-.25,1.35,1.35,0,1,1-.2.25" fill="none" stroke="#fff" stroke-miterlimit="10" stroke-width="0.72"/>
  </g>
  <g>
    <line x1="679.18" y1="296.24" x2="682.49" y2="302" fill="none" stroke="#fff" stroke-linecap="round" stroke-linejoin="round" stroke-width="0.72"/>
    <path d="M679.71,294.19a5.46,5.46,0,1,0-9.39-3.78,5.4,5.4,0,0,0,1.51,3.76l1.22,1-4,6.82" fill="none" stroke="#fff" stroke-linecap="round" stroke-linejoin="round" stroke-width="0.72"/>
    <path d="M680.43,276.14a15,15,0,0,0-13.52,26.37" fill="none" stroke="#fff" stroke-linecap="round" stroke-linejoin="round" stroke-width="0.72"/>
    <path d="M684.64,302.51a15,15,0,0,0-1.48-25.16" fill="none" stroke="#fff" stroke-linecap="round" stroke-linejoin="round" stroke-width="0.72"/>
    <circle cx="678.5" cy="295.06" r="1.36" fill="none" stroke="#fff" stroke-miterlimit="10" stroke-width="0.72"/>
    <circle cx="683.39" cy="303.36" r="1.36" fill="none" stroke="#fff" stroke-miterlimit="10" stroke-width="0.72"/>
    <circle cx="681.8" cy="276.66" r="1.36" fill="none" stroke="#fff" stroke-miterlimit="10" stroke-width="0.72"/>
    <path d="M667.11,302.65a1,1,0,0,1,.2-.25,1.35,1.35,0,1,1-.2.25" fill="none" stroke="#fff" stroke-miterlimit="10" stroke-width="0.72"/>
  </g>
  <g>
    <line x1="714.86" y1="223.72" x2="718.17" y2="229.48" fill="none" stroke="#fff" stroke-linecap="round" stroke-linejoin="round" stroke-width="0.72"/>
    <path d="M715.38,221.67a5.45,5.45,0,1,0-7.87,0l1.22,1-4,6.82" fill="none" stroke="#fff" stroke-linecap="round" stroke-linejoin="round" stroke-width="0.72"/>
    <path d="M716.11,203.62A15,15,0,0,0,702.59,230" fill="none" stroke="#fff" stroke-linecap="round" stroke-linejoin="round" stroke-width="0.72"/>
    <path d="M720.32,230a15,15,0,0,0-1.48-25.16" fill="none" stroke="#fff" stroke-linecap="round" stroke-linejoin="round" stroke-width="0.72"/>
    <circle cx="714.18" cy="222.55" r="1.36" fill="none" stroke="#fff" stroke-miterlimit="10" stroke-width="0.72"/>
    <circle cx="719.07" cy="230.84" r="1.36" fill="none" stroke="#fff" stroke-miterlimit="10" stroke-width="0.72"/>
    <circle cx="717.48" cy="204.14" r="1.36" fill="none" stroke="#fff" stroke-miterlimit="10" stroke-width="0.72"/>
    <path d="M702.79,230.13a1,1,0,0,1,.2-.25,1.35,1.35,0,1,1-.2.25" fill="none" stroke="#fff" stroke-miterlimit="10" stroke-width="0.72"/>
  </g>
  <g>
    <path d="M300.62,182.72c-2.06,2.3-7.27,7.46-12.51,7.46-6.75,0-13.44-8.55-13.44-8.55s6.69-8.55,13.44-8.55c5.24,0,10.45,5.15,12.51,7.46" fill="none" stroke="#fff" stroke-linejoin="round" stroke-width="0.65"/>
    <circle cx="288.11" cy="181.63" r="6.11" fill="none" stroke="#fff" stroke-linecap="round" stroke-linejoin="round" stroke-width="0.65"/>
    <line x1="286.86" y1="179.53" x2="282" y2="171.02" fill="none" stroke="#fff" stroke-linejoin="round" stroke-width="0.65"/>
    <line x1="290.56" y1="181.63" x2="300.12" y2="181.63" fill="none" stroke="#fff" stroke-linejoin="round" stroke-width="0.65"/>
    <line x1="286.93" y1="183.76" x2="281.96" y2="192.26" fill="none" stroke="#fff" stroke-linejoin="round" stroke-width="0.65"/>
    <circle cx="301.35" cy="181.73" r="1.23" fill="none" stroke="#fff" stroke-miterlimit="10" stroke-width="0.65"/>
    <circle cx="281.39" cy="170.02" r="1.23" fill="none" stroke="#fff" stroke-linecap="round" stroke-linejoin="round" stroke-width="0.65"/>
    <circle cx="281.39" cy="193.34" r="1.23" fill="none" stroke="#fff" stroke-linecap="round" stroke-linejoin="round" stroke-width="0.65"/>
    <circle cx="288.11" cy="181.63" r="2.44" fill="none" stroke="#fff" stroke-linecap="round" stroke-linejoin="round" stroke-width="0.65"/>
  </g>
  <g>
    <path d="M300.62,255.35c-2.06,2.3-7.27,7.46-12.51,7.46-6.75,0-13.44-8.55-13.44-8.55s6.69-8.56,13.44-8.56c5.24,0,10.45,5.16,12.51,7.47" fill="none" stroke="#fff" stroke-linejoin="round" stroke-width="0.65"/>
    <circle cx="288.11" cy="254.26" r="6.11" fill="none" stroke="#fff" stroke-linecap="round" stroke-linejoin="round" stroke-width="0.65"/>
    <line x1="286.86" y1="252.16" x2="282" y2="243.64" fill="none" stroke="#fff" stroke-linejoin="round" stroke-width="0.65"/>
    <line x1="290.56" y1="254.26" x2="300.12" y2="254.26" fill="none" stroke="#fff" stroke-linejoin="round" stroke-width="0.65"/>
    <line x1="286.93" y1="256.39" x2="281.96" y2="264.89" fill="none" stroke="#fff" stroke-linejoin="round" stroke-width="0.65"/>
    <circle cx="301.35" cy="254.36" r="1.23" fill="none" stroke="#fff" stroke-miterlimit="10" stroke-width="0.65"/>
    <circle cx="281.39" cy="242.65" r="1.23" fill="none" stroke="#fff" stroke-linecap="round" stroke-linejoin="round" stroke-width="0.65"/>
    <circle cx="281.39" cy="265.97" r="1.23" fill="none" stroke="#fff" stroke-linecap="round" stroke-linejoin="round" stroke-width="0.65"/>
    <circle cx="288.11" cy="254.26" r="2.44" fill="none" stroke="#fff" stroke-linecap="round" stroke-linejoin="round" stroke-width="0.65"/>
  </g>
  <g>
    <path d="M300.62,327.37c-2.06,2.31-7.27,7.47-12.51,7.47-6.75,0-13.44-8.56-13.44-8.56s6.69-8.55,13.44-8.55c5.24,0,10.45,5.16,12.51,7.46" fill="none" stroke="#fff" stroke-linejoin="round" stroke-width="0.65"/>
    <circle cx="288.11" cy="326.28" r="6.11" fill="none" stroke="#fff" stroke-linecap="round" stroke-linejoin="round" stroke-width="0.65"/>
    <line x1="286.86" y1="324.19" x2="282" y2="315.67" fill="none" stroke="#fff" stroke-linejoin="round" stroke-width="0.65"/>
    <line x1="290.56" y1="326.28" x2="300.12" y2="326.28" fill="none" stroke="#fff" stroke-linejoin="round" stroke-width="0.65"/>
    <line x1="286.93" y1="328.41" x2="281.96" y2="336.91" fill="none" stroke="#fff" stroke-linejoin="round" stroke-width="0.65"/>
    <circle cx="301.35" cy="326.38" r="1.23" fill="none" stroke="#fff" stroke-miterlimit="10" stroke-width="0.65"/>
    <circle cx="281.39" cy="314.67" r="1.23" fill="none" stroke="#fff" stroke-linecap="round" stroke-linejoin="round" stroke-width="0.65"/>
    <circle cx="281.39" cy="337.99" r="1.23" fill="none" stroke="#fff" stroke-linecap="round" stroke-linejoin="round" stroke-width="0.65"/>
    <circle cx="288.11" cy="326.28" r="2.44" fill="none" stroke="#fff" stroke-linecap="round" stroke-linejoin="round" stroke-width="0.65"/>
  </g>
  <g>
    <line x1="407.34" y1="248.94" x2="397.82" y2="254.41" fill="none" stroke="#fff" stroke-linecap="round" stroke-linejoin="round" stroke-width="0.65"/>
    <line x1="407.5" y1="254.01" x2="397.81" y2="259.62" fill="none" stroke="#fff" stroke-linecap="round" stroke-linejoin="round" stroke-width="0.65"/>
    <line x1="403.46" y1="245.4" x2="397.81" y2="248.66" fill="none" stroke="#fff" stroke-linecap="round" stroke-linejoin="round" stroke-width="0.65"/>
    <circle cx="396.76" cy="255.01" r="1.23" fill="none" stroke="#fff" stroke-miterlimit="10" stroke-width="0.65"/>
    <path d="M408.33,249.49c-.68,12.61-11.63,19-11.63,19s-11.65-6.83-11.65-20.25" fill="none" stroke="#fff" stroke-linecap="round" stroke-linejoin="round" stroke-width="0.65"/>
    <path d="M385.05,248.26c2.54-1.46,11.65-6.75,11.65-6.75s8.07,4.56,10.62,6.12" fill="none" stroke="#fff" stroke-linecap="round" stroke-linejoin="round" stroke-width="0.65"/>
    <circle cx="408.36" cy="248.26" r="1.23" fill="none" stroke="#fff" stroke-miterlimit="10" stroke-width="0.65"/>
    <circle cx="396.76" cy="260.23" r="1.23" fill="none" stroke="#fff" stroke-miterlimit="10" stroke-width="0.65"/>
    <circle cx="396.76" cy="249.29" r="1.23" fill="none" stroke="#fff" stroke-miterlimit="10" stroke-width="0.65"/>
  </g>
  <g>
    <path d="M392.62,188.9c1.09-.07,2.24-.1,3.43-.1a46.9,46.9,0,0,1,8.68.72c2.22.44,3.6,1.06,3.6,1.74s-1.38,1.29-3.6,1.73a46,46,0,0,1-8.68.72c-.85,0-1.68,0-2.49-.05l-.94,0" fill="none" stroke="#fff" stroke-linecap="round" stroke-miterlimit="10" stroke-width="0.65"/>
    <path d="M385.87,192.63c-1.32-.4-2.09-.87-2.09-1.37,0-.68,1.37-1.3,3.6-1.74.78-.16,1.67-.29,2.64-.4" fill="none" stroke="#fff" stroke-linecap="round" stroke-miterlimit="10" stroke-width="0.65"/>
    <path d="M392.62,184c1.09-.06,2.24-.1,3.43-.1a46.9,46.9,0,0,1,8.68.72c2.22.44,3.6,1.06,3.6,1.74s-1.38,1.29-3.6,1.73a46,46,0,0,1-8.68.72c-.85,0-1.68,0-2.49-.05l-.94-.05" fill="none" stroke="#fff" stroke-linecap="round" stroke-miterlimit="10" stroke-width="0.65"/>
    <path d="M385.87,187.72c-1.32-.4-2.09-.87-2.09-1.37,0-.68,1.37-1.3,3.6-1.74.78-.16,1.67-.29,2.64-.4" fill="none" stroke="#fff" stroke-linecap="round" stroke-miterlimit="10" stroke-width="0.65"/>
    <path d="M392.62,179.08c1.09-.06,2.24-.1,3.43-.1a46.9,46.9,0,0,1,8.68.72c2.22.45,3.6,1.06,3.6,1.74s-1.38,1.29-3.6,1.73a46,46,0,0,1-8.68.72c-.85,0-1.68,0-2.49,0l-.94-.05" fill="none" stroke="#fff" stroke-linecap="round" stroke-miterlimit="10" stroke-width="0.65"/>
    <path d="M385.87,182.81c-1.32-.39-2.09-.87-2.09-1.37,0-.68,1.37-1.29,3.6-1.74.78-.16,1.67-.29,2.64-.4" fill="none" stroke="#fff" stroke-linecap="round" stroke-miterlimit="10" stroke-width="0.65"/>
    <path d="M392.62,174.17c1.09-.06,2.24-.1,3.43-.1a46.9,46.9,0,0,1,8.68.72c2.22.45,3.6,1.06,3.6,1.74s-1.38,1.29-3.6,1.73a46,46,0,0,1-8.68.72c-.85,0-1.68,0-2.49,0l-.94,0" fill="none" stroke="#fff" stroke-linecap="round" stroke-miterlimit="10" stroke-width="0.65"/>
    <path d="M385.87,177.9c-1.32-.39-2.09-.86-2.09-1.37,0-.68,1.37-1.29,3.6-1.74.78-.15,1.67-.29,2.64-.4" fill="none" stroke="#fff" stroke-linecap="round" stroke-miterlimit="10" stroke-width="0.65"/>
    <circle cx="391.25" cy="178.78" r="1.23" fill="none" stroke="#fff" stroke-linecap="round" stroke-linejoin="round" stroke-width="0.65"/>
    <path d="M385.87,173c-1.32-.39-2.09-.86-2.09-1.37,0-.68,1.37-1.29,3.6-1.74a52.62,52.62,0,0,1,17.35,0c2.22.45,3.6,1.06,3.6,1.74s-1.38,1.29-3.6,1.73a46,46,0,0,1-8.68.72c-.85,0-1.68,0-2.49,0l-1-.05" fill="none" stroke="#fff" stroke-linecap="round" stroke-miterlimit="10" stroke-width="0.65"/>
    <circle cx="391.25" cy="173.87" r="1.23" fill="none" stroke="#fff" stroke-linecap="round" stroke-linejoin="round" stroke-width="0.65"/>
    <circle cx="391.25" cy="183.69" r="1.23" fill="none" stroke="#fff" stroke-linecap="round" stroke-linejoin="round" stroke-width="0.65"/>
    <circle cx="391.25" cy="188.6" r="1.23" fill="none" stroke="#fff" stroke-linecap="round" stroke-linejoin="round" stroke-width="0.65"/>
    <circle cx="391.25" cy="193.51" r="1.23" fill="none" stroke="#fff" stroke-linecap="round" stroke-linejoin="round" stroke-width="0.65"/>
  </g>
  <circle cx="395.62" cy="326.6" r="18" fill="#eb4b86"/>
  <g>
    <path d="M392.62,333.81c1.09-.06,2.24-.09,3.43-.09a46,46,0,0,1,8.68.72c2.22.44,3.6,1.05,3.6,1.73s-1.38,1.29-3.6,1.74a46.9,46.9,0,0,1-8.68.72q-1.28,0-2.49-.06l-.94,0" fill="none" stroke="#fff" stroke-linecap="round" stroke-miterlimit="10" stroke-width="0.65"/>
    <path d="M385.87,337.54c-1.32-.39-2.09-.86-2.09-1.37,0-.68,1.37-1.29,3.6-1.73.78-.16,1.67-.3,2.64-.41" fill="none" stroke="#fff" stroke-linecap="round" stroke-miterlimit="10" stroke-width="0.65"/>
    <path d="M392.62,328.9c1.09-.06,2.24-.09,3.43-.09a46,46,0,0,1,8.68.72c2.22.44,3.6,1.05,3.6,1.73s-1.38,1.29-3.6,1.74a46.9,46.9,0,0,1-8.68.72c-.85,0-1.68,0-2.49-.05l-.94-.05" fill="none" stroke="#fff" stroke-linecap="round" stroke-miterlimit="10" stroke-width="0.65"/>
    <path d="M385.87,332.63c-1.32-.39-2.09-.86-2.09-1.37,0-.68,1.37-1.29,3.6-1.73.78-.16,1.67-.3,2.64-.41" fill="none" stroke="#fff" stroke-linecap="round" stroke-miterlimit="10" stroke-width="0.65"/>
    <path d="M392.62,324c1.09-.07,2.24-.1,3.43-.1a46,46,0,0,1,8.68.72c2.22.44,3.6,1.05,3.6,1.73s-1.38,1.29-3.6,1.74a46.9,46.9,0,0,1-8.68.72c-.85,0-1.68,0-2.49-.05l-.94-.05" fill="none" stroke="#fff" stroke-linecap="round" stroke-miterlimit="10" stroke-width="0.65"/>
    <path d="M385.87,327.72c-1.32-.39-2.09-.86-2.09-1.37,0-.68,1.37-1.29,3.6-1.73.78-.16,1.67-.3,2.64-.41" fill="none" stroke="#fff" stroke-linecap="round" stroke-miterlimit="10" stroke-width="0.65"/>
    <path d="M392.62,319.09c1.09-.07,2.24-.1,3.43-.1a46,46,0,0,1,8.68.72c2.22.44,3.6,1.06,3.6,1.73s-1.38,1.29-3.6,1.74a46.9,46.9,0,0,1-8.68.72c-.85,0-1.68,0-2.49,0l-.94-.05" fill="none" stroke="#fff" stroke-linecap="round" stroke-miterlimit="10" stroke-width="0.65"/>
    <path d="M385.87,322.81c-1.32-.39-2.09-.86-2.09-1.37,0-.67,1.37-1.29,3.6-1.73.78-.16,1.67-.29,2.64-.4" fill="none" stroke="#fff" stroke-linecap="round" stroke-miterlimit="10" stroke-width="0.65"/>
    <circle cx="391.25" cy="323.69" r="1.23" fill="none" stroke="#fff" stroke-linecap="round" stroke-linejoin="round" stroke-width="0.65"/>
    <path d="M385.87,317.9c-1.32-.39-2.09-.86-2.09-1.37,0-.67,1.37-1.29,3.6-1.73a52.62,52.62,0,0,1,17.35,0c2.22.44,3.6,1.06,3.6,1.73s-1.38,1.3-3.6,1.74a46.9,46.9,0,0,1-8.68.72c-.85,0-1.68,0-2.49-.05l-1-.05" fill="none" stroke="#fff" stroke-linecap="round" stroke-miterlimit="10" stroke-width="0.65"/>
    <circle cx="391.25" cy="318.78" r="1.23" fill="none" stroke="#fff" stroke-linecap="round" stroke-linejoin="round" stroke-width="0.65"/>
    <circle cx="391.25" cy="328.6" r="1.23" fill="none" stroke="#fff" stroke-linecap="round" stroke-linejoin="round" stroke-width="0.65"/>
    <circle cx="391.25" cy="333.51" r="1.23" fill="none" stroke="#fff" stroke-linecap="round" stroke-linejoin="round" stroke-width="0.65"/>
    <circle cx="391.25" cy="338.42" r="1.23" fill="none" stroke="#fff" stroke-linecap="round" stroke-linejoin="round" stroke-width="0.65"/>
  </g>
  <text transform="translate(162.21 102.35)" font-size="10" font-family="IBMPlexSans-Bold, IBM Plex Sans" font-weight="700">Openshift Container Platform</text>
  <line x1="144.19" y1="90.86" x2="144.19" y2="218.06" fill="none" stroke="#a0a0a0" stroke-linecap="round" stroke-linejoin="round" stroke-dasharray="0 4 0 4 0 4"/>
  <text transform="translate(522.68 102.35)" font-size="10" font-family="IBMPlexSans-Bold, IBM Plex Sans" font-weight="700">IBM Blockchain Platform</text>
  <line x1="504.65" y1="90.86" x2="504.65" y2="118.92" fill="none" stroke="#a0a0a0" stroke-linecap="round" stroke-linejoin="round" stroke-dasharray="0 4 0 4 0 4"/>
  <line x1="504.65" y1="387.37" x2="504.65" y2="404.64" fill="none" stroke="#a0a0a0" stroke-linecap="round" stroke-linejoin="round" stroke-dasharray="0 4 0 4 0 4"/>
  <line x1="144.19" y1="306.59" x2="144.19" y2="404.64" fill="none" stroke="#a0a0a0" stroke-linecap="round" stroke-linejoin="round" stroke-dasharray="0 4 0 4 0 4"/>
  <text transform="translate(368.77 354.1)" font-size="7" font-family="IBMPlexSans, IBM Plex Sans">Custom resource <tspan x="10.21" y="8.4">definitions</tspan></text>
  <g>
    <path d="M613,243.17h-2.47v2.21h-.58V240.5h.58v2.15H613V240.5h.59v4.88H613Z"/>
    <path d="M617,241.77h.56L616,246.22a1.13,1.13,0,0,1-.13.27.5.5,0,0,1-.15.17.43.43,0,0,1-.23.09,1.55,1.55,0,0,1-.33,0h-.29v-.49h.57l.27-.77-1.35-3.75h.56l.87,2.45.17.59h0l.2-.59Z"/>
    <path d="M618.29,241.77h.56v.58h0a1,1,0,0,1,.41-.5,1.21,1.21,0,0,1,.65-.16,1.32,1.32,0,0,1,.6.13,1.24,1.24,0,0,1,.47.38,1.55,1.55,0,0,1,.29.59,2.79,2.79,0,0,1,.11.79,2.67,2.67,0,0,1-.11.78,1.68,1.68,0,0,1-.29.6,1.21,1.21,0,0,1-.47.37,1.33,1.33,0,0,1-.6.14,1.09,1.09,0,0,1-1.06-.67h0v2h-.56Zm1.49,3.2a1,1,0,0,0,.75-.3,1.12,1.12,0,0,0,.27-.78v-.62a1.13,1.13,0,0,0-.27-.79,1,1,0,0,0-.75-.3,1.13,1.13,0,0,0-.36.06,1,1,0,0,0-.3.14.83.83,0,0,0-.2.22.68.68,0,0,0-.07.28v1.35a.74.74,0,0,0,.07.31.78.78,0,0,0,.2.24,1,1,0,0,0,.3.14A1.49,1.49,0,0,0,619.78,245Z"/>
    <path d="M623.71,245.47a1.6,1.6,0,0,1-.67-.14,1.27,1.27,0,0,1-.51-.38,1.77,1.77,0,0,1-.33-.59,2.6,2.6,0,0,1,0-1.56,1.93,1.93,0,0,1,.33-.6,1.48,1.48,0,0,1,.51-.38,1.6,1.6,0,0,1,.67-.13,1.51,1.51,0,0,1,.65.13,1.53,1.53,0,0,1,.8.92,2.23,2.23,0,0,1,.11.7v.27h-2.6v.17a1.22,1.22,0,0,0,.08.43,1,1,0,0,0,.21.35,1.14,1.14,0,0,0,.33.23,1.33,1.33,0,0,0,.45.08,1.08,1.08,0,0,0,.6-.16,1.13,1.13,0,0,0,.4-.46l.4.29a1.44,1.44,0,0,1-.55.6A1.67,1.67,0,0,1,623.71,245.47Zm0-3.31a.93.93,0,0,0-.42.08.83.83,0,0,0-.33.22,1,1,0,0,0-.21.35,1.18,1.18,0,0,0-.08.43v0h2v-.08a1.14,1.14,0,0,0-.26-.77A.91.91,0,0,0,623.71,242.16Z"/>
    <path d="M626.19,245.38v-3.61h.56v.67h0a1,1,0,0,1,.35-.47,1.11,1.11,0,0,1,.69-.2h.22v.56h-.33a1.31,1.31,0,0,0-.71.17.52.52,0,0,0-.26.43v2.45Z"/>
    <path d="M629.36,245.38a.58.58,0,0,1-.45-.16.6.6,0,0,1-.15-.42v-4.6h.56v4.69h.53v.49Z"/>
    <path d="M632,245.47a1.57,1.57,0,0,1-.67-.14,1.27,1.27,0,0,1-.51-.38,1.48,1.48,0,0,1-.33-.59,2.6,2.6,0,0,1,0-1.56,1.6,1.6,0,0,1,.33-.6,1.48,1.48,0,0,1,.51-.38,1.57,1.57,0,0,1,.67-.13,1.54,1.54,0,0,1,.65.13,1.48,1.48,0,0,1,.49.37,1.64,1.64,0,0,1,.31.55,2.23,2.23,0,0,1,.11.7v.27H631v.17a1.21,1.21,0,0,0,.07.43,1.13,1.13,0,0,0,.21.35,1.2,1.2,0,0,0,.34.23,1.25,1.25,0,0,0,.45.08,1.08,1.08,0,0,0,.6-.16,1,1,0,0,0,.39-.46l.4.29a1.41,1.41,0,0,1-.54.6A1.67,1.67,0,0,1,632,245.47Zm0-3.31a.93.93,0,0,0-.42.08.83.83,0,0,0-.33.22,1,1,0,0,0-.21.35,1,1,0,0,0-.08.43v0h2v-.08a1.09,1.09,0,0,0-.26-.77A.89.89,0,0,0,632,242.16Z"/>
    <path d="M636.82,244.8h0a1.09,1.09,0,0,1-1,.67,1.34,1.34,0,0,1-.61-.14,1.21,1.21,0,0,1-.47-.37,1.68,1.68,0,0,1-.29-.6,2.67,2.67,0,0,1-.11-.78,2.79,2.79,0,0,1,.11-.79,1.55,1.55,0,0,1,.29-.59,1.24,1.24,0,0,1,.47-.38,1.33,1.33,0,0,1,.61-.13,1.19,1.19,0,0,1,.64.16,1,1,0,0,1,.41.5h0V240.2h.56v5.18h-.56Zm-.93.17a1.49,1.49,0,0,0,.36-.05,1,1,0,0,0,.3-.14.78.78,0,0,0,.2-.24.62.62,0,0,0,.07-.31v-1.35a.55.55,0,0,0-.07-.28.83.83,0,0,0-.2-.22,1,1,0,0,0-.3-.14,1.13,1.13,0,0,0-.36-.06,1,1,0,0,0-.75.3,1.13,1.13,0,0,0-.27.79v.62a1.12,1.12,0,0,0,.27.78A1,1,0,0,0,635.89,245Z"/>
    <path d="M641.61,245.79a.89.89,0,0,1-.43.82,2.67,2.67,0,0,1-1.32.26,2.41,2.41,0,0,1-1.21-.23.74.74,0,0,1-.37-.66.65.65,0,0,1,.15-.46.86.86,0,0,1,.42-.24v-.08a.56.56,0,0,1-.15-.91,1.18,1.18,0,0,1,.45-.22v0a1.27,1.27,0,0,1-.58-1.62,1.12,1.12,0,0,1,.28-.4,1.17,1.17,0,0,1,.42-.25,1.64,1.64,0,0,1,.56-.09,1.55,1.55,0,0,1,.69.14v-.07a.63.63,0,0,1,.09-.35.39.39,0,0,1,.33-.14h.53v.5h-.68V242a1.21,1.21,0,0,1,.3.41,1.25,1.25,0,0,1,.11.53,1.18,1.18,0,0,1-.1.5,1,1,0,0,1-.27.4,1.31,1.31,0,0,1-.43.25,1.47,1.47,0,0,1-.56.1,2,2,0,0,1-.35,0,1.22,1.22,0,0,0-.33.14.31.31,0,0,0-.15.27.2.2,0,0,0,.15.21,1.16,1.16,0,0,0,.4.06h.77a1.58,1.58,0,0,1,1,.25A.89.89,0,0,1,641.61,245.79Zm-.52,0a.41.41,0,0,0-.17-.34.92.92,0,0,0-.58-.13h-1.2a.5.5,0,0,0-.34.49.52.52,0,0,0,.18.4.83.83,0,0,0,.6.17h.52a1.47,1.47,0,0,0,.73-.15A.47.47,0,0,0,641.09,245.82Zm-1.25-2.08a.89.89,0,0,0,.56-.17.66.66,0,0,0,.21-.53v-.2a.64.64,0,0,0-.21-.53.84.84,0,0,0-.56-.18.85.85,0,0,0-.57.18.64.64,0,0,0-.21.53v.2a.66.66,0,0,0,.21.53A.9.9,0,0,0,639.84,243.74Z"/>
    <path d="M643.62,245.47a1.64,1.64,0,0,1-.67-.14,1.42,1.42,0,0,1-.51-.38,1.6,1.6,0,0,1-.32-.59,2.6,2.6,0,0,1,0-1.56,1.73,1.73,0,0,1,.32-.6,1.7,1.7,0,0,1,.51-.38,1.63,1.63,0,0,1,.67-.13,1.48,1.48,0,0,1,.65.13,1.3,1.3,0,0,1,.49.37,1.66,1.66,0,0,1,.32.55,2.24,2.24,0,0,1,.1.7v.27h-2.59v.17a1.21,1.21,0,0,0,.07.43,1.13,1.13,0,0,0,.21.35,1.07,1.07,0,0,0,.34.23,1.25,1.25,0,0,0,.45.08,1.08,1.08,0,0,0,.6-.16,1,1,0,0,0,.39-.46l.4.29a1.41,1.41,0,0,1-.54.6A1.71,1.71,0,0,1,643.62,245.47Zm0-3.31a1,1,0,0,0-.42.08.87.87,0,0,0-.32.22,1.23,1.23,0,0,0-.22.35,1.18,1.18,0,0,0-.07.43v0h2v-.08a1.14,1.14,0,0,0-.26-.77A.9.9,0,0,0,643.62,242.16Z"/>
    <path d="M646.11,245.38v-3.61h.56v.67h0a1.21,1.21,0,0,1,.35-.47,1.12,1.12,0,0,1,.7-.2H648v.56h-.33a1.31,1.31,0,0,0-.71.17.51.51,0,0,0-.25.43v2.45Z"/>
    <path d="M650.39,245.38V240.5h2.91V241H651v1.64h2.13v.52H651v2.21Z"/>
    <path d="M656.87,245.38a.52.52,0,0,1-.45-.17.9.9,0,0,1-.18-.42h0a.93.93,0,0,1-.39.51,1.41,1.41,0,0,1-1.54-.13,1,1,0,0,1-.32-.79.9.9,0,0,1,.37-.79,2,2,0,0,1,1.17-.27h.71V243a.79.79,0,0,0-.21-.59.91.91,0,0,0-.64-.2.94.94,0,0,0-.55.15,1.26,1.26,0,0,0-.37.39l-.34-.32a1.39,1.39,0,0,1,.47-.5,1.57,1.57,0,0,1,.81-.2,1.5,1.5,0,0,1,1,.32,1.12,1.12,0,0,1,.36.89v2h.41v.49Zm-1.61-.39a1.46,1.46,0,0,0,.38-.05.83.83,0,0,0,.3-.14.66.66,0,0,0,.2-.21.46.46,0,0,0,.07-.26v-.59h-.74a1.33,1.33,0,0,0-.71.14.46.46,0,0,0-.22.4v.15a.47.47,0,0,0,.2.41A.82.82,0,0,0,655.26,245Z"/>
    <path d="M658,240.2h.56v2.15h0a1,1,0,0,1,.41-.5,1.21,1.21,0,0,1,.65-.16,1.39,1.39,0,0,1,.61.13,1.29,1.29,0,0,1,.46.38,1.55,1.55,0,0,1,.29.59,2.79,2.79,0,0,1,.11.79,2.67,2.67,0,0,1-.11.78,1.68,1.68,0,0,1-.29.6,1.26,1.26,0,0,1-.46.37,1.4,1.4,0,0,1-.61.14,1.09,1.09,0,0,1-1.06-.67h0v.58H658Zm1.49,4.77a1,1,0,0,0,.75-.3,1.12,1.12,0,0,0,.27-.78v-.62a1.13,1.13,0,0,0-.27-.79,1,1,0,0,0-.75-.3,1.13,1.13,0,0,0-.36.06,1,1,0,0,0-.3.14.66.66,0,0,0-.19.22.57.57,0,0,0-.08.28v1.35a.62.62,0,0,0,.08.31.63.63,0,0,0,.19.24,1,1,0,0,0,.3.14A1.49,1.49,0,0,0,659.47,245Z"/>
    <path d="M662,245.38v-3.61h.56v.67h0A1,1,0,0,1,663,242a1.09,1.09,0,0,1,.69-.2h.22v.56h-.33a1.28,1.28,0,0,0-.71.17.52.52,0,0,0-.26.43v2.45Z"/>
    <path d="M664.89,240.92a.37.37,0,0,1-.26-.08.31.31,0,0,1-.08-.23v-.09a.3.3,0,0,1,.08-.23.42.42,0,0,1,.52,0,.3.3,0,0,1,.08.23v.09a.31.31,0,0,1-.08.23A.37.37,0,0,1,664.89,240.92Zm-.28.85h.56v3.61h-.56Z"/>
    <path d="M667.7,245.47a1.6,1.6,0,0,1-.67-.14,1.34,1.34,0,0,1-.51-.37,1.91,1.91,0,0,1-.32-.6,2.67,2.67,0,0,1-.11-.78,2.79,2.79,0,0,1,.11-.79,1.76,1.76,0,0,1,.32-.59,1.37,1.37,0,0,1,.51-.38,1.6,1.6,0,0,1,.67-.13,1.44,1.44,0,0,1,.87.23,1.46,1.46,0,0,1,.49.61l-.47.24a.89.89,0,0,0-.33-.43,1,1,0,0,0-.56-.16,1.23,1.23,0,0,0-.44.08.9.9,0,0,0-.31.23.81.81,0,0,0-.19.34,1.51,1.51,0,0,0-.06.44v.61a1.21,1.21,0,0,0,.25.79.93.93,0,0,0,.75.3,1,1,0,0,0,1-.63l.41.27a1.53,1.53,0,0,1-.52.63A1.56,1.56,0,0,1,667.7,245.47Z"/>
    <path d="M632.67,253.78V248.9h2a1.32,1.32,0,0,1,1,.37,1.68,1.68,0,0,1,0,2,1.33,1.33,0,0,1-1,.38h-1.36v2.08Zm.59-2.6h1.36a.77.77,0,0,0,.54-.18.68.68,0,0,0,.19-.52v-.36a.67.67,0,0,0-.19-.52.77.77,0,0,0-.54-.18h-1.36Z"/>
    <path d="M638.22,253.87a1.57,1.57,0,0,1-.67-.14,1.27,1.27,0,0,1-.51-.38,1.48,1.48,0,0,1-.33-.59,2.6,2.6,0,0,1,0-1.56,1.6,1.6,0,0,1,.33-.6,1.48,1.48,0,0,1,.51-.38,1.57,1.57,0,0,1,.67-.13,1.54,1.54,0,0,1,.65.13,1.48,1.48,0,0,1,.49.37,1.64,1.64,0,0,1,.31.55,2.23,2.23,0,0,1,.11.7v.27h-2.6v.17a1.21,1.21,0,0,0,.07.43,1.13,1.13,0,0,0,.21.35,1.2,1.2,0,0,0,.34.23,1.25,1.25,0,0,0,.45.08,1.08,1.08,0,0,0,.6-.16,1,1,0,0,0,.39-.46l.4.29a1.36,1.36,0,0,1-.54.6A1.67,1.67,0,0,1,638.22,253.87Zm0-3.31a.93.93,0,0,0-.42.08.83.83,0,0,0-.33.22,1,1,0,0,0-.21.35,1,1,0,0,0-.08.43v.05h2v-.08a1.09,1.09,0,0,0-.26-.77A.89.89,0,0,0,638.22,250.56Z"/>
    <path d="M642.06,253.87a1.6,1.6,0,0,1-.67-.14,1.27,1.27,0,0,1-.51-.38,1.77,1.77,0,0,1-.33-.59,2.6,2.6,0,0,1,0-1.56,1.93,1.93,0,0,1,.33-.6,1.48,1.48,0,0,1,.51-.38,1.6,1.6,0,0,1,.67-.13,1.51,1.51,0,0,1,.65.13,1.48,1.48,0,0,1,.49.37,1.64,1.64,0,0,1,.31.55,2.23,2.23,0,0,1,.11.7v.27H641v.17a1.22,1.22,0,0,0,.08.43.84.84,0,0,0,.21.35,1.14,1.14,0,0,0,.33.23,1.33,1.33,0,0,0,.45.08,1.08,1.08,0,0,0,.6-.16,1.13,1.13,0,0,0,.4-.46l.4.29a1.38,1.38,0,0,1-.55.6A1.67,1.67,0,0,1,642.06,253.87Zm0-3.31a.93.93,0,0,0-.42.08.83.83,0,0,0-.33.22,1,1,0,0,0-.21.35,1.18,1.18,0,0,0-.08.43v.05h2v-.08a1.1,1.1,0,0,0-.27-.77A.88.88,0,0,0,642.06,250.56Z"/>
    <path d="M644.54,253.78v-3.61h.56v.67h0a1,1,0,0,1,.35-.47,1.11,1.11,0,0,1,.69-.2h.22v.56h-.33a1.31,1.31,0,0,0-.71.17.52.52,0,0,0-.26.43v2.45Z"/>
  </g>
  <g>
    <path d="M649.57,316.49H647.1v2.21h-.59v-4.88h.59V316h2.47v-2.15h.59v4.88h-.59Z"/>
    <path d="M653.63,315.09h.55l-1.61,4.45c-.05.11-.09.2-.13.27a.44.44,0,0,1-.16.17.5.5,0,0,1-.22.1l-.33,0h-.29v-.49H652l.27-.77-1.35-3.75h.56l.87,2.45.16.59h0l.19-.59Z"/>
    <path d="M654.9,315.09h.56v.58h0a1.08,1.08,0,0,1,.41-.5,1.23,1.23,0,0,1,.65-.16,1.33,1.33,0,0,1,.61.13,1.32,1.32,0,0,1,.47.38,1.91,1.91,0,0,1,.29.59,2.8,2.8,0,0,1,.1.79,2.68,2.68,0,0,1-.1.78,2.09,2.09,0,0,1-.29.6,1.29,1.29,0,0,1-.47.37,1.34,1.34,0,0,1-.61.14,1.1,1.1,0,0,1-1.06-.67h0v2h-.56Zm1.49,3.2a1,1,0,0,0,.75-.3,1.12,1.12,0,0,0,.27-.78v-.62a1.13,1.13,0,0,0-.27-.79,1,1,0,0,0-.75-.3,1,1,0,0,0-.36.06.8.8,0,0,0-.5.36.55.55,0,0,0-.07.28v1.35a.62.62,0,0,0,.07.31.78.78,0,0,0,.2.24.83.83,0,0,0,.3.14A1.36,1.36,0,0,0,656.39,318.29Z"/>
    <path d="M660.31,318.79a1.56,1.56,0,0,1-.66-.14,1.37,1.37,0,0,1-.52-.38,1.6,1.6,0,0,1-.32-.59,2.59,2.59,0,0,1,0-1.56,1.73,1.73,0,0,1,.32-.6,1.62,1.62,0,0,1,.52-.38,1.56,1.56,0,0,1,.66-.13,1.48,1.48,0,0,1,.65.13,1.3,1.3,0,0,1,.49.37,1.66,1.66,0,0,1,.32.55,2.24,2.24,0,0,1,.1.7V317h-2.59v.17a1.21,1.21,0,0,0,.07.43,1.13,1.13,0,0,0,.21.35,1.07,1.07,0,0,0,.34.23,1.25,1.25,0,0,0,.45.08,1.08,1.08,0,0,0,.6-.16,1,1,0,0,0,.39-.46l.4.29a1.36,1.36,0,0,1-.54.6A1.68,1.68,0,0,1,660.31,318.79Zm0-3.31a1,1,0,0,0-.42.08.87.87,0,0,0-.32.22,1,1,0,0,0-.21.35,1,1,0,0,0-.08.43v.05h2v-.08a1.09,1.09,0,0,0-.26-.77A.9.9,0,0,0,660.31,315.48Z"/>
    <path d="M662.8,318.7v-3.61h.56v.67h0a1.21,1.21,0,0,1,.35-.47,1.12,1.12,0,0,1,.7-.2h.21v.56h-.32a1.32,1.32,0,0,0-.72.17.51.51,0,0,0-.25.43v2.45Z"/>
    <path d="M666,318.7a.57.57,0,0,1-.44-.16.6.6,0,0,1-.15-.42v-4.6h.56v4.69h.53v.49Z"/>
    <path d="M668.63,318.79a1.6,1.6,0,0,1-.67-.14,1.27,1.27,0,0,1-.51-.38,1.77,1.77,0,0,1-.33-.59,2.82,2.82,0,0,1,0-1.56,1.93,1.93,0,0,1,.33-.6,1.48,1.48,0,0,1,.51-.38,1.6,1.6,0,0,1,.67-.13,1.51,1.51,0,0,1,.65.13,1.38,1.38,0,0,1,.49.37,1.49,1.49,0,0,1,.31.55,2,2,0,0,1,.11.7V317h-2.6v.17a1.22,1.22,0,0,0,.08.43,1.13,1.13,0,0,0,.21.35,1.14,1.14,0,0,0,.33.23,1.34,1.34,0,0,0,.46.08,1,1,0,0,0,1-.62l.4.29a1.38,1.38,0,0,1-.55.6A1.65,1.65,0,0,1,668.63,318.79Zm0-3.31a1,1,0,0,0-.42.08.91.91,0,0,0-.33.22,1,1,0,0,0-.21.35,1.18,1.18,0,0,0-.08.43v.05h2v-.08a1.14,1.14,0,0,0-.26-.77A.91.91,0,0,0,668.63,315.48Z"/>
    <path d="M673.43,318.12h0a1.1,1.1,0,0,1-1.06.67,1.37,1.37,0,0,1-.61-.14,1.18,1.18,0,0,1-.46-.37,1.88,1.88,0,0,1-.3-.6,2.68,2.68,0,0,1-.1-.78,2.8,2.8,0,0,1,.1-.79,1.73,1.73,0,0,1,.3-.59,1.21,1.21,0,0,1,.46-.38,1.36,1.36,0,0,1,.61-.13,1.23,1.23,0,0,1,.65.16,1.08,1.08,0,0,1,.41.5h0v-2.15H674v5.18h-.56Zm-.94.17a1.5,1.5,0,0,0,.37-.05.87.87,0,0,0,.29-.14.66.66,0,0,0,.2-.24.62.62,0,0,0,.08-.31V316.2a.57.57,0,0,0-.08-.28.69.69,0,0,0-.2-.22.87.87,0,0,0-.29-.14,1.15,1.15,0,0,0-.37-.06,1,1,0,0,0-.75.3,1.13,1.13,0,0,0-.27.79v.62a1.12,1.12,0,0,0,.27.78A1,1,0,0,0,672.49,318.29Z"/>
    <path d="M678.22,319.11a.9.9,0,0,1-.44.82,2.65,2.65,0,0,1-1.31.26,2.48,2.48,0,0,1-1.22-.23.74.74,0,0,1-.37-.66.65.65,0,0,1,.15-.46,1,1,0,0,1,.42-.24v-.08a.52.52,0,0,1-.32-.5.48.48,0,0,1,.18-.41,1.05,1.05,0,0,1,.45-.22v0a1.1,1.1,0,0,1-.5-.45,1.21,1.21,0,0,1-.18-.66,1.4,1.4,0,0,1,.09-.51,1.26,1.26,0,0,1,.28-.4,1.39,1.39,0,0,1,.43-.25,1.6,1.6,0,0,1,.56-.09,1.51,1.51,0,0,1,.68.14v-.07a.58.58,0,0,1,.1-.35.36.36,0,0,1,.32-.14h.54v.5h-.69v.23a1.24,1.24,0,0,1,.31.41,1.25,1.25,0,0,1,.11.53,1.35,1.35,0,0,1-.1.5,1.15,1.15,0,0,1-.28.4,1.41,1.41,0,0,1-.43.26,1.64,1.64,0,0,1-.56.09,2.21,2.21,0,0,1-.35,0,1.22,1.22,0,0,0-.33.14.3.3,0,0,0-.14.27.2.2,0,0,0,.15.21,1.12,1.12,0,0,0,.4.06h.77a1.6,1.6,0,0,1,1,.25A.89.89,0,0,1,678.22,319.11Zm-.52,0a.41.41,0,0,0-.17-.34.94.94,0,0,0-.58-.13h-1.21a.5.5,0,0,0-.33.49.54.54,0,0,0,.17.4.86.86,0,0,0,.61.17h.52a1.63,1.63,0,0,0,.73-.14A.49.49,0,0,0,677.7,319.14Zm-1.26-2.08a.9.9,0,0,0,.57-.17.66.66,0,0,0,.21-.53v-.2a.64.64,0,0,0-.21-.53,1,1,0,0,0-1.14,0,.67.67,0,0,0-.21.53v.2a.7.7,0,0,0,.21.53A.9.9,0,0,0,676.44,317.06Z"/>
    <path d="M680.23,318.79a1.6,1.6,0,0,1-.67-.14,1.27,1.27,0,0,1-.51-.38,1.77,1.77,0,0,1-.33-.59,2.82,2.82,0,0,1,0-1.56,1.93,1.93,0,0,1,.33-.6,1.48,1.48,0,0,1,.51-.38,1.6,1.6,0,0,1,.67-.13,1.51,1.51,0,0,1,.65.13,1.38,1.38,0,0,1,.49.37,1.49,1.49,0,0,1,.31.55,2.23,2.23,0,0,1,.11.7V317h-2.6v.17a1.22,1.22,0,0,0,.08.43,1.13,1.13,0,0,0,.21.35,1.14,1.14,0,0,0,.33.23,1.33,1.33,0,0,0,.45.08,1.08,1.08,0,0,0,.6-.16,1.13,1.13,0,0,0,.4-.46l.4.29a1.38,1.38,0,0,1-.55.6A1.67,1.67,0,0,1,680.23,318.79Zm0-3.31a1,1,0,0,0-.42.08.91.91,0,0,0-.33.22,1,1,0,0,0-.21.35,1.18,1.18,0,0,0-.08.43v.05h2v-.08a1.14,1.14,0,0,0-.26-.77A.91.91,0,0,0,680.23,315.48Z"/>
    <path d="M682.71,318.7v-3.61h.56v.67h0a1,1,0,0,1,.35-.47,1.11,1.11,0,0,1,.69-.2h.22v.56h-.33a1.31,1.31,0,0,0-.71.17.52.52,0,0,0-.26.43v2.45Z"/>
    <path d="M687,318.7v-4.88h2.91v.52h-2.32V316h2.12v.52h-2.12v2.21Z"/>
    <path d="M693.47,318.7a.55.55,0,0,1-.45-.16.87.87,0,0,1-.17-.42h0a.91.91,0,0,1-.4.5,1.21,1.21,0,0,1-.65.17,1.24,1.24,0,0,1-.89-.3,1,1,0,0,1-.32-.79.91.91,0,0,1,.38-.79,2,2,0,0,1,1.16-.27h.72v-.36a.79.79,0,0,0-.21-.59.94.94,0,0,0-.65-.2,1,1,0,0,0-.55.15,1.38,1.38,0,0,0-.37.39l-.33-.32a1.31,1.31,0,0,1,.47-.5,1.52,1.52,0,0,1,.81-.2,1.45,1.45,0,0,1,1,.32,1.13,1.13,0,0,1,.37.89v2h.41v.49Zm-1.61-.39a1.6,1.6,0,0,0,.39-.05.83.83,0,0,0,.3-.14.8.8,0,0,0,.2-.21.56.56,0,0,0,.07-.26v-.59h-.75a1.29,1.29,0,0,0-.7.14.44.44,0,0,0-.22.4v.15a.47.47,0,0,0,.19.41A.82.82,0,0,0,691.86,318.31Z"/>
    <path d="M694.59,313.52h.56v2.15h0a1.15,1.15,0,0,1,.41-.5,1.23,1.23,0,0,1,.65-.16,1.33,1.33,0,0,1,.61.13,1.32,1.32,0,0,1,.47.38,1.91,1.91,0,0,1,.29.59,2.8,2.8,0,0,1,.1.79,2.68,2.68,0,0,1-.1.78,2.09,2.09,0,0,1-.29.6,1.29,1.29,0,0,1-.47.37,1.34,1.34,0,0,1-.61.14,1.1,1.1,0,0,1-1.06-.67h0v.58h-.56Zm1.49,4.77a1,1,0,0,0,.75-.3,1.12,1.12,0,0,0,.27-.78v-.62a1.13,1.13,0,0,0-.27-.79,1,1,0,0,0-.75-.3,1,1,0,0,0-.36.06.8.8,0,0,0-.5.36.55.55,0,0,0-.07.28v1.35a.62.62,0,0,0,.07.31.78.78,0,0,0,.2.24.83.83,0,0,0,.3.14A1.36,1.36,0,0,0,696.08,318.29Z"/>
    <path d="M698.65,318.7v-3.61h.56v.67h0a1,1,0,0,1,1-.67h.22v.56h-.33a1.31,1.31,0,0,0-.71.17.51.51,0,0,0-.25.43v2.45Z"/>
    <path d="M701.5,314.24a.4.4,0,0,1-.27-.08.36.36,0,0,1-.08-.23v-.09a.36.36,0,0,1,.08-.23.35.35,0,0,1,.27-.09.34.34,0,0,1,.26.09.36.36,0,0,1,.08.23v.09a.36.36,0,0,1-.08.23A.38.38,0,0,1,701.5,314.24Zm-.28.85h.56v3.61h-.56Z"/>
    <path d="M704.31,318.79a1.65,1.65,0,0,1-.68-.14,1.34,1.34,0,0,1-.51-.37,1.89,1.89,0,0,1-.31-.6,2.67,2.67,0,0,1-.11-.78,2.79,2.79,0,0,1,.11-.79,1.74,1.74,0,0,1,.31-.59,1.37,1.37,0,0,1,.51-.38,1.65,1.65,0,0,1,.68-.13,1.34,1.34,0,0,1,1.35.84l-.47.24a.82.82,0,0,0-.32-.43,1,1,0,0,0-.56-.16,1,1,0,0,0-.44.09.8.8,0,0,0-.32.22.92.92,0,0,0-.18.34,1.23,1.23,0,0,0-.07.44v.62a1.2,1.2,0,0,0,.26.78.93.93,0,0,0,.75.3,1,1,0,0,0,1-.63l.41.27a1.48,1.48,0,0,1-.53.63A1.53,1.53,0,0,1,704.31,318.79Z"/>
    <path d="M666.15,327.19a2.13,2.13,0,0,1-.86-.17,1.81,1.81,0,0,1-.65-.48,2.29,2.29,0,0,1-.42-.79,3.65,3.65,0,0,1-.14-1.09,3.54,3.54,0,0,1,.14-1.08,2.34,2.34,0,0,1,.42-.8,1.81,1.81,0,0,1,.65-.48,2.13,2.13,0,0,1,.86-.17,2.15,2.15,0,0,1,.85.17,1.76,1.76,0,0,1,.66.48,2.32,2.32,0,0,1,.41.8,3.52,3.52,0,0,1,.15,1.08,3.64,3.64,0,0,1-.15,1.09,2.27,2.27,0,0,1-.41.79,1.76,1.76,0,0,1-.66.48A2.15,2.15,0,0,1,666.15,327.19Zm0-.52a1.58,1.58,0,0,0,.58-.11,1.26,1.26,0,0,0,.46-.33,1.66,1.66,0,0,0,.3-.5,2.28,2.28,0,0,0,.1-.66v-.82a2.28,2.28,0,0,0-.1-.66,1.66,1.66,0,0,0-.3-.5,1.39,1.39,0,0,0-.46-.33,1.58,1.58,0,0,0-.58-.11,1.54,1.54,0,0,0-.58.11,1.39,1.39,0,0,0-.46.33,1.48,1.48,0,0,0-.3.5,2,2,0,0,0-.1.66v.82a2,2,0,0,0,.1.66,1.48,1.48,0,0,0,.3.5,1.26,1.26,0,0,0,.46.33A1.54,1.54,0,0,0,666.15,326.67Z"/>
    <path d="M669.22,327.1v-3.61h.56v.67h0a1,1,0,0,1,.35-.47,1.09,1.09,0,0,1,.69-.2h.22v.56h-.33a1.28,1.28,0,0,0-.71.17.52.52,0,0,0-.26.43v2.45Z"/>
    <path d="M674.1,326.52h0a1.09,1.09,0,0,1-1.05.67,1.34,1.34,0,0,1-.61-.14,1.21,1.21,0,0,1-.47-.37,1.68,1.68,0,0,1-.29-.6,2.67,2.67,0,0,1-.11-.78,2.79,2.79,0,0,1,.11-.79,1.55,1.55,0,0,1,.29-.59,1.24,1.24,0,0,1,.47-.38,1.33,1.33,0,0,1,.61-.13,1.19,1.19,0,0,1,.64.16,1,1,0,0,1,.41.5h0v-2.15h.56v5.18h-.56Zm-.93.17a1.49,1.49,0,0,0,.36-.05,1,1,0,0,0,.3-.14.78.78,0,0,0,.2-.24.62.62,0,0,0,.07-.31V324.6a.55.55,0,0,0-.07-.28.83.83,0,0,0-.2-.22,1,1,0,0,0-.3-.14,1.13,1.13,0,0,0-.36-.06,1,1,0,0,0-.75.3,1.13,1.13,0,0,0-.27.79v.62a1.12,1.12,0,0,0,.27.78A1,1,0,0,0,673.17,326.69Z"/>
    <path d="M677.21,327.19a1.6,1.6,0,0,1-.67-.14,1.27,1.27,0,0,1-.51-.38,1.77,1.77,0,0,1-.33-.59,2.59,2.59,0,0,1,0-1.56,1.93,1.93,0,0,1,.33-.6,1.48,1.48,0,0,1,.51-.38,1.6,1.6,0,0,1,.67-.13,1.51,1.51,0,0,1,.65.13,1.48,1.48,0,0,1,.49.37,1.64,1.64,0,0,1,.31.55,2.25,2.25,0,0,1,.11.71v.26h-2.6v.17a1.49,1.49,0,0,0,.07.43,1.13,1.13,0,0,0,.21.35,1.36,1.36,0,0,0,.34.23,1.29,1.29,0,0,0,.45.08,1.08,1.08,0,0,0,.6-.16,1.13,1.13,0,0,0,.4-.46l.4.29a1.38,1.38,0,0,1-.55.6A1.67,1.67,0,0,1,677.21,327.19Zm0-3.31a.93.93,0,0,0-.42.08,1,1,0,0,0-.33.22,1,1,0,0,0-.21.35,1.18,1.18,0,0,0-.08.43V325h2v-.08a1.05,1.05,0,0,0-.27-.76A.85.85,0,0,0,677.21,323.88Z"/>
    <path d="M679.69,327.1v-3.61h.56v.67h0a1,1,0,0,1,.35-.47,1.11,1.11,0,0,1,.69-.2h.22v.56h-.33a1.28,1.28,0,0,0-.71.17.52.52,0,0,0-.26.43v2.45Z"/>
    <path d="M683.62,327.19a1.6,1.6,0,0,1-.67-.14,1.27,1.27,0,0,1-.51-.38,1.77,1.77,0,0,1-.33-.59,2.82,2.82,0,0,1,0-1.56,1.93,1.93,0,0,1,.33-.6,1.48,1.48,0,0,1,.51-.38,1.6,1.6,0,0,1,.67-.13,1.51,1.51,0,0,1,.65.13,1.38,1.38,0,0,1,.49.37,1.49,1.49,0,0,1,.31.55,2.25,2.25,0,0,1,.11.71v.26h-2.6v.17a1.22,1.22,0,0,0,.08.43,1.13,1.13,0,0,0,.21.35,1.14,1.14,0,0,0,.33.23,1.34,1.34,0,0,0,.46.08,1,1,0,0,0,1-.62l.4.29a1.38,1.38,0,0,1-.55.6A1.67,1.67,0,0,1,683.62,327.19Zm0-3.31a1,1,0,0,0-.42.08,1.06,1.06,0,0,0-.33.22,1,1,0,0,0-.21.35,1.18,1.18,0,0,0-.08.43V325h2v-.08a1.09,1.09,0,0,0-.26-.76A.89.89,0,0,0,683.62,323.88Z"/>
    <path d="M686.1,327.1v-3.61h.56v.67h0a1,1,0,0,1,.35-.47,1.11,1.11,0,0,1,.69-.2H688v.56h-.33a1.31,1.31,0,0,0-.71.17.52.52,0,0,0-.26.43v2.45Z"/>
  </g>
  <g>
    <path d="M685.38,243.17h-2.47v2.21h-.59V240.5h.59v2.15h2.47V240.5H686v4.88h-.58Z"/>
    <path d="M689.44,241.77H690l-1.62,4.45a1.78,1.78,0,0,1-.12.27.66.66,0,0,1-.16.17.4.4,0,0,1-.23.09,1.55,1.55,0,0,1-.33,0h-.29v-.49h.57l.27-.77-1.35-3.75h.56l.87,2.45.17.59h0l.19-.59Z"/>
    <path d="M690.7,241.77h.56v.58h0a1,1,0,0,1,.41-.5,1.23,1.23,0,0,1,.65-.16,1.36,1.36,0,0,1,.61.13,1.29,1.29,0,0,1,.46.38,1.73,1.73,0,0,1,.3.59,3.22,3.22,0,0,1,.1.79,3.08,3.08,0,0,1-.1.78,1.88,1.88,0,0,1-.3.6,1.26,1.26,0,0,1-.46.37,1.37,1.37,0,0,1-.61.14,1.1,1.1,0,0,1-1.06-.67h0v2h-.56Zm1.49,3.2a1,1,0,0,0,.75-.3,1.13,1.13,0,0,0,.28-.78v-.62a1.14,1.14,0,0,0-.28-.79,1,1,0,0,0-.75-.3,1.13,1.13,0,0,0-.36.06.87.87,0,0,0-.29.14.69.69,0,0,0-.2.22.57.57,0,0,0-.08.28v1.35a.62.62,0,0,0,.08.31.66.66,0,0,0,.2.24.87.87,0,0,0,.29.14A1.49,1.49,0,0,0,692.19,245Z"/>
    <path d="M696.12,245.47a1.6,1.6,0,0,1-.67-.14,1.27,1.27,0,0,1-.51-.38,1.77,1.77,0,0,1-.33-.59,2.82,2.82,0,0,1,0-1.56,1.93,1.93,0,0,1,.33-.6,1.48,1.48,0,0,1,.51-.38,1.6,1.6,0,0,1,.67-.13,1.51,1.51,0,0,1,.65.13,1.38,1.38,0,0,1,.49.37,1.49,1.49,0,0,1,.31.55,2,2,0,0,1,.11.7v.27h-2.6v.17a1.22,1.22,0,0,0,.08.43,1.13,1.13,0,0,0,.21.35,1.14,1.14,0,0,0,.33.23,1.34,1.34,0,0,0,.46.08,1,1,0,0,0,1-.62l.4.29a1.44,1.44,0,0,1-.55.6A1.65,1.65,0,0,1,696.12,245.47Zm0-3.31a1,1,0,0,0-.42.08,1,1,0,0,0-.33.22,1,1,0,0,0-.21.35,1.18,1.18,0,0,0-.08.43v0h2v-.08a1.14,1.14,0,0,0-.26-.77A.91.91,0,0,0,696.12,242.16Z"/>
    <path d="M698.61,245.38v-3.61h.56v.67h0a1,1,0,0,1,1-.67h.22v.56h-.33a1.31,1.31,0,0,0-.71.17.51.51,0,0,0-.25.43v2.45Z"/>
    <path d="M701.77,245.38a.55.55,0,0,1-.44-.16.61.61,0,0,1-.16-.42v-4.6h.57v4.69h.53v.49Z"/>
    <path d="M704.44,245.47a1.6,1.6,0,0,1-.67-.14,1.27,1.27,0,0,1-.51-.38,1.77,1.77,0,0,1-.33-.59,2.6,2.6,0,0,1,0-1.56,1.93,1.93,0,0,1,.33-.6,1.48,1.48,0,0,1,.51-.38,1.6,1.6,0,0,1,.67-.13,1.51,1.51,0,0,1,.65.13,1.48,1.48,0,0,1,.49.37,1.64,1.64,0,0,1,.31.55,2.23,2.23,0,0,1,.11.7v.27h-2.6v.17a1.49,1.49,0,0,0,.07.43,1.13,1.13,0,0,0,.21.35,1.36,1.36,0,0,0,.34.23,1.25,1.25,0,0,0,.45.08,1.08,1.08,0,0,0,.6-.16,1.13,1.13,0,0,0,.4-.46l.4.29a1.44,1.44,0,0,1-.55.6A1.67,1.67,0,0,1,704.44,245.47Zm0-3.31a.93.93,0,0,0-.42.08.83.83,0,0,0-.33.22,1,1,0,0,0-.21.35,1.18,1.18,0,0,0-.08.43v0h2v-.08a1.1,1.1,0,0,0-.27-.77A.88.88,0,0,0,704.44,242.16Z"/>
    <path d="M709.23,244.8h0a1.09,1.09,0,0,1-1.05.67,1.34,1.34,0,0,1-.61-.14,1.29,1.29,0,0,1-.47-.37,1.86,1.86,0,0,1-.29-.6,2.68,2.68,0,0,1-.1-.78,2.8,2.8,0,0,1,.1-.79,1.71,1.71,0,0,1,.29-.59,1.32,1.32,0,0,1,.47-.38,1.33,1.33,0,0,1,.61-.13,1.17,1.17,0,0,1,.64.16,1,1,0,0,1,.41.5h0V240.2h.56v5.18h-.56Zm-.93.17a1.36,1.36,0,0,0,.36-.05.92.92,0,0,0,.3-.14.78.78,0,0,0,.2-.24.62.62,0,0,0,.07-.31v-1.35a.55.55,0,0,0-.07-.28.83.83,0,0,0-.2-.22.92.92,0,0,0-.3-.14,1,1,0,0,0-.36-.06,1,1,0,0,0-.75.3,1.13,1.13,0,0,0-.27.79v.62a1.12,1.12,0,0,0,.27.78A1,1,0,0,0,708.3,245Z"/>
    <path d="M714,245.79a.9.9,0,0,1-.44.82,2.65,2.65,0,0,1-1.31.26,2.45,2.45,0,0,1-1.22-.23.74.74,0,0,1-.37-.66.65.65,0,0,1,.15-.46.86.86,0,0,1,.42-.24v-.08a.52.52,0,0,1-.32-.5.51.51,0,0,1,.17-.41,1.18,1.18,0,0,1,.45-.22v0a1.2,1.2,0,0,1-.68-1.11,1.4,1.4,0,0,1,.1-.51,1.26,1.26,0,0,1,.28-.4,1.22,1.22,0,0,1,.43-.25,1.59,1.59,0,0,1,.55-.09,1.52,1.52,0,0,1,.69.14v-.07a.56.56,0,0,1,.1-.35.36.36,0,0,1,.32-.14h.54v.5h-.69V242a1.21,1.21,0,0,1,.3.41,1.12,1.12,0,0,1,.11.53,1.35,1.35,0,0,1-.09.5,1.15,1.15,0,0,1-.28.4,1.22,1.22,0,0,1-.43.25,1.47,1.47,0,0,1-.56.1,2.09,2.09,0,0,1-.35,0,1.22,1.22,0,0,0-.33.14.31.31,0,0,0-.15.27.2.2,0,0,0,.16.21,1.09,1.09,0,0,0,.4.06h.77a1.57,1.57,0,0,1,1,.25A.89.89,0,0,1,714,245.79Zm-.53,0a.4.4,0,0,0-.16-.34,1,1,0,0,0-.59-.13h-1.2a.53.53,0,0,0-.16.89.84.84,0,0,0,.61.17h.51a1.45,1.45,0,0,0,.73-.15A.47.47,0,0,0,713.5,245.82Zm-1.25-2.08a.9.9,0,0,0,.57-.17A.66.66,0,0,0,713,243v-.2a.64.64,0,0,0-.21-.53,1,1,0,0,0-1.14,0,.64.64,0,0,0-.21.53v.2a.66.66,0,0,0,.21.53A.9.9,0,0,0,712.25,243.74Z"/>
    <path d="M716,245.47a1.6,1.6,0,0,1-.67-.14,1.27,1.27,0,0,1-.51-.38,1.48,1.48,0,0,1-.33-.59,2.6,2.6,0,0,1,0-1.56,1.6,1.6,0,0,1,.33-.6,1.48,1.48,0,0,1,.51-.38,1.6,1.6,0,0,1,.67-.13,1.54,1.54,0,0,1,.65.13,1.48,1.48,0,0,1,.49.37,1.64,1.64,0,0,1,.31.55,2.23,2.23,0,0,1,.11.7v.27H715v.17a1.21,1.21,0,0,0,.07.43,1.13,1.13,0,0,0,.21.35,1.2,1.2,0,0,0,.34.23,1.25,1.25,0,0,0,.45.08,1.08,1.08,0,0,0,.6-.16,1.13,1.13,0,0,0,.4-.46l.39.29a1.41,1.41,0,0,1-.54.6A1.67,1.67,0,0,1,716,245.47Zm0-3.31a.93.93,0,0,0-.42.08.83.83,0,0,0-.33.22,1,1,0,0,0-.21.35,1.18,1.18,0,0,0-.08.43v0h2v-.08a1.09,1.09,0,0,0-.26-.77A.88.88,0,0,0,716,242.16Z"/>
    <path d="M718.52,245.38v-3.61h.56v.67h0a1,1,0,0,1,.35-.47,1.09,1.09,0,0,1,.69-.2h.22v.56h-.33a1.28,1.28,0,0,0-.71.17.52.52,0,0,0-.26.43v2.45Z"/>
    <path d="M722.8,245.38V240.5h2.91V241h-2.32v1.64h2.12v.52h-2.12v2.21Z"/>
    <path d="M729.28,245.38a.52.52,0,0,1-.45-.17.8.8,0,0,1-.17-.42h0a.93.93,0,0,1-.39.51,1.41,1.41,0,0,1-1.54-.13,1,1,0,0,1-.32-.79.9.9,0,0,1,.37-.79,2,2,0,0,1,1.17-.27h.71V243a.79.79,0,0,0-.21-.59.91.91,0,0,0-.64-.2,1,1,0,0,0-.55.15,1.26,1.26,0,0,0-.37.39l-.33-.32a1.28,1.28,0,0,1,.46-.5,1.58,1.58,0,0,1,.82-.2,1.45,1.45,0,0,1,1,.32,1.12,1.12,0,0,1,.36.89v2h.42v.49Zm-1.61-.39a1.6,1.6,0,0,0,.39-.05,1,1,0,0,0,.3-.14.63.63,0,0,0,.19-.21.46.46,0,0,0,.07-.26v-.59h-.74a1.27,1.27,0,0,0-.7.14.44.44,0,0,0-.22.4v.15a.47.47,0,0,0,.19.41A.82.82,0,0,0,727.67,245Z"/>
    <path d="M730.39,240.2H731v2.15h0a1.08,1.08,0,0,1,.41-.5,1.23,1.23,0,0,1,.65-.16,1.36,1.36,0,0,1,.61.13,1.21,1.21,0,0,1,.46.38,1.73,1.73,0,0,1,.3.59,3.22,3.22,0,0,1,.1.79,3.08,3.08,0,0,1-.1.78,1.88,1.88,0,0,1-.3.6,1.18,1.18,0,0,1-.46.37,1.37,1.37,0,0,1-.61.14,1.1,1.1,0,0,1-1.06-.67h0v.58h-.56Zm1.49,4.77a1,1,0,0,0,.75-.3,1.08,1.08,0,0,0,.28-.78v-.62a1.09,1.09,0,0,0-.28-.79,1,1,0,0,0-.75-.3,1.13,1.13,0,0,0-.36.06.87.87,0,0,0-.29.14.69.69,0,0,0-.2.22.57.57,0,0,0-.08.28v1.35a.62.62,0,0,0,.08.31.66.66,0,0,0,.2.24.87.87,0,0,0,.29.14A1.49,1.49,0,0,0,731.88,245Z"/>
    <path d="M734.45,245.38v-3.61H735v.67h0a1,1,0,0,1,.35-.47,1.11,1.11,0,0,1,.69-.2h.22v.56H736a1.31,1.31,0,0,0-.71.17.52.52,0,0,0-.26.43v2.45Z"/>
    <path d="M737.3,240.92a.37.37,0,0,1-.26-.08.36.36,0,0,1-.08-.23v-.09a.34.34,0,0,1,.08-.23.33.33,0,0,1,.26-.09.37.37,0,0,1,.27.09.34.34,0,0,1,.08.23v.09a.36.36,0,0,1-.08.23A.41.41,0,0,1,737.3,240.92Zm-.28.85h.56v3.61H737Z"/>
    <path d="M740.12,245.47a1.62,1.62,0,0,1-.68-.14,1.34,1.34,0,0,1-.51-.37,1.71,1.71,0,0,1-.31-.6,2.37,2.37,0,0,1-.11-.78,2.48,2.48,0,0,1,.11-.79,1.58,1.58,0,0,1,.31-.59,1.37,1.37,0,0,1,.51-.38,1.62,1.62,0,0,1,.68-.13,1.41,1.41,0,0,1,.86.23,1.46,1.46,0,0,1,.49.61l-.47.24a.88.88,0,0,0-.32-.43,1,1,0,0,0-.56-.16,1.15,1.15,0,0,0-.44.08.85.85,0,0,0-.32.23.94.94,0,0,0-.19.34,1.51,1.51,0,0,0-.06.44v.61a1.21,1.21,0,0,0,.25.79.94.94,0,0,0,.76.3,1,1,0,0,0,1-.63l.4.27a1.45,1.45,0,0,1-.52.63A1.55,1.55,0,0,1,740.12,245.47Z"/>
    <path d="M709.64,253.87a1.75,1.75,0,0,1-1.45-.64,2.85,2.85,0,0,1-.52-1.86,3,3,0,0,1,.52-1.9,1.73,1.73,0,0,1,1.45-.66,1.86,1.86,0,0,1,1,.28,1.83,1.83,0,0,1,.65.79l-.48.28a1.37,1.37,0,0,0-.45-.6,1.22,1.22,0,0,0-.75-.23,1.32,1.32,0,0,0-.57.12,1.24,1.24,0,0,0-.42.34,1.64,1.64,0,0,0-.26.53,2.38,2.38,0,0,0-.09.68v.73a1.85,1.85,0,0,0,.35,1.19,1.19,1.19,0,0,0,1,.43,1.25,1.25,0,0,0,.78-.24,1.36,1.36,0,0,0,.46-.64l.47.29a1.77,1.77,0,0,1-.66.81A1.8,1.8,0,0,1,709.64,253.87Z"/>
    <path d="M715.32,253.78l-.49-1.44h-2l-.49,1.44h-.6l1.71-4.88h.75l1.71,4.88Zm-1.46-4.34h0l-.82,2.38h1.68Z"/>
  </g>
  <g>
    <path d="M466.47,354.1v-.49h.69v-3.9h-.69v-.49h2v.49h-.69v3.9h.69v.49Z"/>
    <path d="M469.5,349.22h2a1.29,1.29,0,0,1,.95.34,1.2,1.2,0,0,1,.35.92,1.26,1.26,0,0,1-.08.46,1,1,0,0,1-.19.31.87.87,0,0,1-.26.18,1,1,0,0,1-.26.08v0a1,1,0,0,1,.3.08.93.93,0,0,1,.31.19,1.3,1.3,0,0,1,.25.35,1.38,1.38,0,0,1,.1.52,1.47,1.47,0,0,1-.1.56,1.43,1.43,0,0,1-.26.45,1.18,1.18,0,0,1-.4.29,1,1,0,0,1-.5.11H469.5Zm.59,2.11h1.35a.81.81,0,0,0,.54-.17.63.63,0,0,0,.2-.51v-.24a.61.61,0,0,0-.2-.5.77.77,0,0,0-.54-.18h-1.35Zm0,2.26h1.45a.84.84,0,0,0,.59-.2.69.69,0,0,0,.22-.56v-.24a.69.69,0,0,0-.22-.56.84.84,0,0,0-.59-.19h-1.45Z"/>
    <path d="M477.88,350h0l-.41.82-1.17,2.12-1.17-2.12-.41-.82h0v4.11h-.57v-4.88h.78l1.4,2.63h0l1.41-2.63h.75v4.88h-.57Z"/>
    <path d="M481.41,349.22h2a1.29,1.29,0,0,1,.95.34,1.24,1.24,0,0,1,.35.92,1.26,1.26,0,0,1-.08.46,1.17,1.17,0,0,1-.19.31.87.87,0,0,1-.26.18,1.08,1.08,0,0,1-.26.08v0a.91.91,0,0,1,.29.08,1,1,0,0,1,.32.19,1.28,1.28,0,0,1,.24.35,1.21,1.21,0,0,1,.11.52,1.69,1.69,0,0,1-.1.56,1.43,1.43,0,0,1-.26.45,1.28,1.28,0,0,1-.4.29,1,1,0,0,1-.5.11h-2.22Zm.58,2.11h1.36a.81.81,0,0,0,.54-.17.66.66,0,0,0,.2-.51v-.24a.64.64,0,0,0-.2-.5.77.77,0,0,0-.54-.18H482Zm0,2.26h1.45a.87.87,0,0,0,.6-.2.72.72,0,0,0,.22-.56v-.24A.72.72,0,0,0,484,352a.86.86,0,0,0-.6-.19H482Z"/>
    <path d="M486.52,354.1a.58.58,0,0,1-.45-.16.6.6,0,0,1-.15-.42v-4.6h.56v4.69H487v.49Z"/>
    <path d="M489.19,354.19a1.59,1.59,0,0,1-.66-.14,1.4,1.4,0,0,1-.52-.38,1.77,1.77,0,0,1-.33-.59,2.6,2.6,0,0,1,0-1.56,1.93,1.93,0,0,1,.33-.6,1.52,1.52,0,0,1,.52-.38,1.74,1.74,0,0,1,1.32,0,1.62,1.62,0,0,1,.52.38,1.93,1.93,0,0,1,.33.6,2.6,2.6,0,0,1,0,1.56,1.77,1.77,0,0,1-.33.59,1.49,1.49,0,0,1-.52.38A1.59,1.59,0,0,1,489.19,354.19Zm0-.5a1,1,0,0,0,.74-.28,1.15,1.15,0,0,0,.29-.85V352a1.18,1.18,0,0,0-.29-.86,1.12,1.12,0,0,0-1.48,0,1.18,1.18,0,0,0-.29.86v.52a1.15,1.15,0,0,0,.29.85A1,1,0,0,0,489.19,353.69Z"/>
    <path d="M493.09,354.19a1.65,1.65,0,0,1-.68-.14,1.46,1.46,0,0,1-.51-.37,1.89,1.89,0,0,1-.31-.6,2.67,2.67,0,0,1-.11-.78,2.79,2.79,0,0,1,.11-.79,1.74,1.74,0,0,1,.31-.59,1.37,1.37,0,0,1,.51-.38,1.65,1.65,0,0,1,.68-.13,1.39,1.39,0,0,1,.86.23,1.46,1.46,0,0,1,.49.61l-.47.24a.78.78,0,0,0-.32-.43,1,1,0,0,0-.56-.16,1.19,1.19,0,0,0-.44.08.94.94,0,0,0-.32.23.92.92,0,0,0-.18.34,1.23,1.23,0,0,0-.07.44v.61a1.17,1.17,0,0,0,.26.78.91.91,0,0,0,.75.31,1,1,0,0,0,1-.63l.41.27a1.48,1.48,0,0,1-.53.63A1.53,1.53,0,0,1,493.09,354.19Z"/>
    <path d="M495.27,348.92h.56v3.29h0l.56-.62,1-1.1h.68l-1.34,1.43,1.47,2.18h-.68l-1.19-1.84-.54.55v1.29h-.56Z"/>
    <path d="M500.3,354.19a1.65,1.65,0,0,1-.68-.14,1.46,1.46,0,0,1-.51-.37,1.89,1.89,0,0,1-.31-.6,2.67,2.67,0,0,1-.11-.78,2.79,2.79,0,0,1,.11-.79,1.74,1.74,0,0,1,.31-.59,1.37,1.37,0,0,1,.51-.38,1.65,1.65,0,0,1,.68-.13,1.39,1.39,0,0,1,.86.23,1.46,1.46,0,0,1,.49.61l-.47.24a.78.78,0,0,0-.32-.43,1,1,0,0,0-.56-.16,1.15,1.15,0,0,0-.44.08.94.94,0,0,0-.32.23,1.11,1.11,0,0,0-.19.34,1.51,1.51,0,0,0-.06.44v.61a1.17,1.17,0,0,0,.26.78.91.91,0,0,0,.75.31,1,1,0,0,0,1-.63l.41.27a1.43,1.43,0,0,1-1.39.86Z"/>
    <path d="M502.48,348.92H503v2.15h0a1.21,1.21,0,0,1,.38-.48,1.07,1.07,0,0,1,.65-.18,1.13,1.13,0,0,1,.88.36,1.46,1.46,0,0,1,.33,1v2.31h-.56v-2.22c0-.65-.28-1-.82-1a1.26,1.26,0,0,0-.33.05.88.88,0,0,0-.28.12.6.6,0,0,0-.2.22.56.56,0,0,0-.07.3v2.51h-.56Z"/>
    <path d="M509.08,354.1a.56.56,0,0,1-.46-.17.89.89,0,0,1-.17-.42h0a.93.93,0,0,1-.39.51,1.43,1.43,0,0,1-1.55-.13,1,1,0,0,1-.32-.8.91.91,0,0,1,.38-.78,2,2,0,0,1,1.16-.27h.72v-.36a.79.79,0,0,0-.21-.59.94.94,0,0,0-.65-.2,1,1,0,0,0-.55.15,1.13,1.13,0,0,0-.36.39l-.34-.32a1.39,1.39,0,0,1,.47-.5,1.54,1.54,0,0,1,.81-.2,1.45,1.45,0,0,1,1,.32,1.1,1.1,0,0,1,.37.89v2h.41v.49Zm-1.61-.39a1.52,1.52,0,0,0,.38,0,.83.83,0,0,0,.3-.14.66.66,0,0,0,.2-.21.46.46,0,0,0,.07-.26v-.59h-.74a1.3,1.3,0,0,0-.71.14.46.46,0,0,0-.22.4v.15a.47.47,0,0,0,.2.41A.81.81,0,0,0,507.47,353.71Z"/>
    <path d="M510.47,349.64a.37.37,0,0,1-.26-.08.31.31,0,0,1-.08-.23v-.09a.3.3,0,0,1,.08-.23.42.42,0,0,1,.52,0,.3.3,0,0,1,.08.23v.09a.31.31,0,0,1-.08.23A.37.37,0,0,1,510.47,349.64Zm-.28.85h.56v3.61h-.56Z"/>
    <path d="M511.94,354.1v-3.61h.56v.58h0a1.19,1.19,0,0,1,.37-.48,1.07,1.07,0,0,1,.65-.18,1.15,1.15,0,0,1,.89.36,1.5,1.5,0,0,1,.32,1v2.31h-.56v-2.22c0-.65-.27-1-.82-1a1.13,1.13,0,0,0-.32.05.93.93,0,0,0-.29.12.7.7,0,0,0-.2.22.56.56,0,0,0-.07.3v2.51Z"/>
    <path d="M517.62,354.1v-4.88h2a1.31,1.31,0,0,1,1,.37,1.68,1.68,0,0,1,0,2.05,1.31,1.31,0,0,1-1,.38h-1.36v2.08Zm.59-2.6h1.36a.77.77,0,0,0,.54-.18.68.68,0,0,0,.19-.52v-.37a.66.66,0,0,0-.19-.51.73.73,0,0,0-.54-.19h-1.36Z"/>
    <path d="M522.41,354.1a.58.58,0,0,1-.45-.16.6.6,0,0,1-.15-.42v-4.6h.56v4.69h.53v.49Z"/>
    <path d="M526.34,354.1a.52.52,0,0,1-.45-.17.8.8,0,0,1-.17-.42h0a.93.93,0,0,1-.39.51,1.41,1.41,0,0,1-1.54-.13,1,1,0,0,1-.32-.8.9.9,0,0,1,.37-.78A2,2,0,0,1,525,352h.71v-.36a.79.79,0,0,0-.21-.59.91.91,0,0,0-.64-.2.94.94,0,0,0-.55.15,1.16,1.16,0,0,0-.37.39l-.34-.32a1.39,1.39,0,0,1,.47-.5,1.58,1.58,0,0,1,.82-.2,1.49,1.49,0,0,1,1,.32,1.12,1.12,0,0,1,.36.89v2h.41v.49Zm-1.61-.39a1.46,1.46,0,0,0,.38,0,.83.83,0,0,0,.3-.14.66.66,0,0,0,.2-.21.46.46,0,0,0,.07-.26v-.59h-.74a1.27,1.27,0,0,0-.7.14.44.44,0,0,0-.22.4v.15a.47.47,0,0,0,.19.41A.82.82,0,0,0,524.73,353.71Z"/>
    <path d="M528.25,354.1a.55.55,0,0,1-.44-.16.57.57,0,0,1-.15-.43V351h-.6v-.5h.34a.3.3,0,0,0,.24-.07.37.37,0,0,0,.07-.26v-.67h.51v1H529v.5h-.79v2.62H529v.49Z"/>
    <path d="M530.11,351h-.59v-.5h.59v-.73a.93.93,0,0,1,.19-.61.75.75,0,0,1,.6-.23h.54v.5h-.78v1.07h.78v.5h-.78v3.11h-.55Z"/>
    <path d="M533.54,354.19a1.59,1.59,0,0,1-.66-.14,1.4,1.4,0,0,1-.52-.38,1.77,1.77,0,0,1-.33-.59,2.6,2.6,0,0,1,0-1.56,1.93,1.93,0,0,1,.33-.6,1.52,1.52,0,0,1,.52-.38,1.74,1.74,0,0,1,1.32,0,1.62,1.62,0,0,1,.52.38,1.93,1.93,0,0,1,.33.6,2.6,2.6,0,0,1,0,1.56,1.77,1.77,0,0,1-.33.59,1.49,1.49,0,0,1-.52.38A1.59,1.59,0,0,1,533.54,354.19Zm0-.5a1,1,0,0,0,.74-.28,1.11,1.11,0,0,0,.29-.85V352a1.13,1.13,0,0,0-.29-.86,1,1,0,0,0-.74-.28,1,1,0,0,0-.74.28,1.18,1.18,0,0,0-.29.86v.52a1.15,1.15,0,0,0,.29.85A1,1,0,0,0,533.54,353.69Z"/>
    <path d="M536.1,354.1v-3.61h.56v.67h0a1,1,0,0,1,1-.67H538v.56h-.33a1.31,1.31,0,0,0-.71.17.51.51,0,0,0-.25.43v2.45Z"/>
    <path d="M538.67,354.1v-3.61h.56v.58h0a2.2,2.2,0,0,1,.15-.26,1,1,0,0,1,.19-.21.87.87,0,0,1,.27-.14,1.07,1.07,0,0,1,.37,0,1.3,1.3,0,0,1,.66.17,1,1,0,0,1,.44.55h0a1,1,0,0,1,.36-.5,1.13,1.13,0,0,1,.74-.22,1.09,1.09,0,0,1,.86.36,1.5,1.5,0,0,1,.31,1v2.31h-.56v-2.22a1.16,1.16,0,0,0-.19-.73.71.71,0,0,0-.6-.25,1.13,1.13,0,0,0-.32.05.83.83,0,0,0-.27.12.67.67,0,0,0-.19.22.66.66,0,0,0-.07.3v2.51h-.56v-2.22a1.16,1.16,0,0,0-.19-.73.69.69,0,0,0-.58-.25,1.13,1.13,0,0,0-.32.05.79.79,0,0,0-.28.12.67.67,0,0,0-.19.22.56.56,0,0,0-.07.3v2.51Z"/>
    <path d="M490.21,362.59a1.65,1.65,0,0,1-.68-.14,1.34,1.34,0,0,1-.51-.37,1.71,1.71,0,0,1-.31-.6,2.37,2.37,0,0,1-.11-.78,2.48,2.48,0,0,1,.11-.79,1.58,1.58,0,0,1,.31-.59,1.37,1.37,0,0,1,.51-.38,1.65,1.65,0,0,1,.68-.13,1.39,1.39,0,0,1,.86.23,1.46,1.46,0,0,1,.49.61l-.47.24a.82.82,0,0,0-.32-.43,1,1,0,0,0-.56-.16,1.15,1.15,0,0,0-.44.08.94.94,0,0,0-.32.23,1.11,1.11,0,0,0-.19.34,1.51,1.51,0,0,0-.06.44V361a1.16,1.16,0,0,0,.26.79.93.93,0,0,0,.75.3,1,1,0,0,0,1-.63l.4.27a1.45,1.45,0,0,1-.52.63A1.55,1.55,0,0,1,490.21,362.59Z"/>
    <path d="M493.75,362.59a1.64,1.64,0,0,1-.67-.14,1.27,1.27,0,0,1-.51-.38,1.77,1.77,0,0,1-.33-.59,2.59,2.59,0,0,1,0-1.56,1.93,1.93,0,0,1,.33-.6,1.48,1.48,0,0,1,.51-.38,1.63,1.63,0,0,1,.67-.13,1.59,1.59,0,0,1,.66.13,1.62,1.62,0,0,1,.52.38,1.93,1.93,0,0,1,.33.6,2.59,2.59,0,0,1,0,1.56,1.77,1.77,0,0,1-.33.59,1.37,1.37,0,0,1-.52.38A1.59,1.59,0,0,1,493.75,362.59Zm0-.5a1,1,0,0,0,.74-.28,1.15,1.15,0,0,0,.29-.85v-.52a1.18,1.18,0,0,0-.29-.86,1.12,1.12,0,0,0-1.48,0,1.18,1.18,0,0,0-.29.86V361a1.15,1.15,0,0,0,.29.85A1,1,0,0,0,493.75,362.09Z"/>
    <path d="M496.3,362.5v-3.61h.57v.58h0a1.21,1.21,0,0,1,.38-.48,1,1,0,0,1,.64-.18,1.14,1.14,0,0,1,.89.36,1.46,1.46,0,0,1,.33,1v2.31h-.56v-2.22c0-.65-.28-1-.82-1a1.2,1.2,0,0,0-.33.05.88.88,0,0,0-.28.12.6.6,0,0,0-.2.22.58.58,0,0,0-.07.3v2.51Z"/>
    <path d="M501.37,362.59a1.7,1.7,0,0,1-.85-.2,1.87,1.87,0,0,1-.58-.51l.4-.32a1.51,1.51,0,0,0,.47.41,1.27,1.27,0,0,0,.6.14A.88.88,0,0,0,502,362a.57.57,0,0,0,.07-.8.8.8,0,0,0-.5-.2l-.28,0a3,3,0,0,1-.47-.1,1.25,1.25,0,0,1-.36-.2.76.76,0,0,1-.25-.31.94.94,0,0,1-.09-.43,1.08,1.08,0,0,1,.1-.46,1,1,0,0,1,.27-.34,1.31,1.31,0,0,1,.41-.2,2.1,2.1,0,0,1,.51-.06,1.47,1.47,0,0,1,1.26.58l-.37.33a1.06,1.06,0,0,0-.35-.3,1.13,1.13,0,0,0-.58-.14.82.82,0,0,0-.53.15.51.51,0,0,0-.18.41.43.43,0,0,0,.18.39,1.22,1.22,0,0,0,.52.17l.28.05a1.5,1.5,0,0,1,.85.34.9.9,0,0,1,.25.67,1.05,1.05,0,0,1-.35.83A1.49,1.49,0,0,1,501.37,362.59Z"/>
    <path d="M505.05,362.59a1.59,1.59,0,0,1-.66-.14,1.37,1.37,0,0,1-.52-.38,1.77,1.77,0,0,1-.33-.59,2.59,2.59,0,0,1,0-1.56,1.93,1.93,0,0,1,.33-.6,1.62,1.62,0,0,1,.52-.38,1.57,1.57,0,0,1,1.84.38,2,2,0,0,1,.34.6,2.59,2.59,0,0,1,0,1.56,1.79,1.79,0,0,1-.34.59,1.34,1.34,0,0,1-.51.38A1.6,1.6,0,0,1,505.05,362.59Zm0-.5a1,1,0,0,0,.75-.28,1.15,1.15,0,0,0,.28-.85v-.52a1.17,1.17,0,0,0-.28-.86,1.13,1.13,0,0,0-1.49,0,1.17,1.17,0,0,0-.28.86V361a1.15,1.15,0,0,0,.28.85A1,1,0,0,0,505.05,362.09Z"/>
    <path d="M508.2,362.5a.57.57,0,0,1-.44-.16.6.6,0,0,1-.15-.42v-4.6h.56V362h.53v.49Z"/>
    <path d="M510.87,362.59a1.6,1.6,0,0,1-.67-.14,1.27,1.27,0,0,1-.51-.38,1.77,1.77,0,0,1-.33-.59,2.82,2.82,0,0,1,0-1.56,1.93,1.93,0,0,1,.33-.6,1.48,1.48,0,0,1,.51-.38,1.6,1.6,0,0,1,.67-.13,1.51,1.51,0,0,1,.65.13,1.38,1.38,0,0,1,.49.37,1.49,1.49,0,0,1,.31.55,2,2,0,0,1,.11.7v.27h-2.59V361a1.21,1.21,0,0,0,.07.43,1.13,1.13,0,0,0,.21.35,1.14,1.14,0,0,0,.33.23,1.34,1.34,0,0,0,.46.08,1.1,1.1,0,0,0,.6-.16,1,1,0,0,0,.39-.46l.4.29a1.44,1.44,0,0,1-.55.6A1.65,1.65,0,0,1,510.87,362.59Zm0-3.31a1,1,0,0,0-.42.08.87.87,0,0,0-.32.22.91.91,0,0,0-.22.35,1.18,1.18,0,0,0-.07.43v.05h2v-.08a1.14,1.14,0,0,0-.26-.77A.91.91,0,0,0,510.87,359.28Z"/>
    <path d="M515.62,357.62v3a1.77,1.77,0,0,0,.26,1.06,1,1,0,0,0,.91.36,1.06,1.06,0,0,0,.91-.36,1.84,1.84,0,0,0,.26-1.06v-3h.58v2.88a4.09,4.09,0,0,1-.09.92,1.75,1.75,0,0,1-.3.66,1.33,1.33,0,0,1-.55.38,2.54,2.54,0,0,1-.83.13,2.45,2.45,0,0,1-.83-.13,1.15,1.15,0,0,1-.53-.38,1.6,1.6,0,0,1-.29-.66,4.09,4.09,0,0,1-.09-.92v-2.88Z"/>
    <path d="M519.58,362.5V362h.69v-3.9h-.69v-.49h2v.49h-.69V362h.69v.49Z"/>
  </g>
  <g>
    <path d="M466.47,208.89v-.49h.69v-3.9h-.69V204h2v.49h-.69v3.9h.69v.49Z"/>
    <path d="M469.5,204h2a1.29,1.29,0,0,1,.95.34,1.2,1.2,0,0,1,.35.92,1.26,1.26,0,0,1-.08.46,1,1,0,0,1-.19.31.87.87,0,0,1-.26.18,1,1,0,0,1-.26.08v0a1.28,1.28,0,0,1,.3.07,1.06,1.06,0,0,1,.56.55,1.38,1.38,0,0,1,.1.52,1.47,1.47,0,0,1-.1.56,1.43,1.43,0,0,1-.26.45,1.18,1.18,0,0,1-.4.29,1,1,0,0,1-.5.11H469.5Zm.59,2.11h1.35a.77.77,0,0,0,.54-.18.6.6,0,0,0,.2-.5v-.24a.61.61,0,0,0-.2-.5.77.77,0,0,0-.54-.18h-1.35Zm0,2.25h1.45a.84.84,0,0,0,.59-.19.69.69,0,0,0,.22-.56v-.24a.68.68,0,0,0-.22-.56.84.84,0,0,0-.59-.2h-1.45Z"/>
    <path d="M477.88,204.78h0l-.41.81-1.17,2.13-1.17-2.13-.41-.81h0v4.11h-.57V204h.78l1.4,2.63h0L477.7,204h.75v4.88h-.57Z"/>
    <path d="M481.41,204h2a1.29,1.29,0,0,1,.95.34,1.24,1.24,0,0,1,.35.92,1.26,1.26,0,0,1-.08.46,1.17,1.17,0,0,1-.19.31.87.87,0,0,1-.26.18,1.08,1.08,0,0,1-.26.08v0a1.05,1.05,0,0,1,.61.27,1.14,1.14,0,0,1,.24.35,1.21,1.21,0,0,1,.11.52,1.69,1.69,0,0,1-.1.56,1.43,1.43,0,0,1-.26.45,1.28,1.28,0,0,1-.4.29,1,1,0,0,1-.5.11h-2.22Zm.58,2.11h1.36a.77.77,0,0,0,.54-.18.63.63,0,0,0,.2-.5v-.24a.64.64,0,0,0-.2-.5.77.77,0,0,0-.54-.18H482Zm0,2.25h1.45a.86.86,0,0,0,.6-.19.72.72,0,0,0,.22-.56v-.24a.71.71,0,0,0-.22-.56.87.87,0,0,0-.6-.2H482Z"/>
    <path d="M486.52,208.89a.58.58,0,0,1-.45-.16.6.6,0,0,1-.15-.42v-4.6h.56v4.68H487v.5Z"/>
    <path d="M489.19,209a1.59,1.59,0,0,1-.66-.14,1.4,1.4,0,0,1-.52-.38,1.77,1.77,0,0,1-.33-.59,2.41,2.41,0,0,1-.12-.78,2.37,2.37,0,0,1,.12-.78,1.93,1.93,0,0,1,.33-.6,1.4,1.4,0,0,1,.52-.38,1.74,1.74,0,0,1,1.32,0,1.49,1.49,0,0,1,.52.38,1.93,1.93,0,0,1,.33.6,2.37,2.37,0,0,1,.12.78,2.41,2.41,0,0,1-.12.78,1.77,1.77,0,0,1-.33.59,1.49,1.49,0,0,1-.52.38A1.59,1.59,0,0,1,489.19,209Zm0-.5a1,1,0,0,0,.74-.28,1.16,1.16,0,0,0,.29-.86v-.51a1.16,1.16,0,0,0-.29-.86,1.12,1.12,0,0,0-1.48,0,1.16,1.16,0,0,0-.29.86v.51a1.16,1.16,0,0,0,.29.86A1,1,0,0,0,489.19,208.48Z"/>
    <path d="M493.09,209a1.65,1.65,0,0,1-.68-.14,1.37,1.37,0,0,1-.51-.38,1.74,1.74,0,0,1-.31-.59,2.67,2.67,0,0,1-.11-.78,2.79,2.79,0,0,1,.11-.79,1.74,1.74,0,0,1,.31-.59,1.37,1.37,0,0,1,.51-.38,1.65,1.65,0,0,1,.68-.13,1.39,1.39,0,0,1,.86.23,1.46,1.46,0,0,1,.49.61l-.47.24a.78.78,0,0,0-.32-.43.93.93,0,0,0-.56-.16,1.19,1.19,0,0,0-.44.08.94.94,0,0,0-.32.23.92.92,0,0,0-.18.34,1.23,1.23,0,0,0-.07.44v.61a1.17,1.17,0,0,0,.26.78.91.91,0,0,0,.75.31,1,1,0,0,0,1-.63l.41.27a1.39,1.39,0,0,1-.53.62A1.46,1.46,0,0,1,493.09,209Z"/>
    <path d="M495.27,203.71h.56V207h0l.56-.61,1-1.1h.68l-1.34,1.43,1.47,2.18h-.68l-1.19-1.84-.54.55v1.29h-.56Z"/>
    <path d="M500.3,209a1.65,1.65,0,0,1-.68-.14,1.37,1.37,0,0,1-.51-.38,1.74,1.74,0,0,1-.31-.59,2.67,2.67,0,0,1-.11-.78,2.79,2.79,0,0,1,.11-.79,1.74,1.74,0,0,1,.31-.59,1.37,1.37,0,0,1,.51-.38,1.65,1.65,0,0,1,.68-.13,1.39,1.39,0,0,1,.86.23,1.46,1.46,0,0,1,.49.61l-.47.24a.78.78,0,0,0-.32-.43.93.93,0,0,0-.56-.16,1.15,1.15,0,0,0-.44.08.94.94,0,0,0-.32.23,1.11,1.11,0,0,0-.19.34,1.51,1.51,0,0,0-.06.44v.61a1.17,1.17,0,0,0,.26.78.91.91,0,0,0,.75.31,1,1,0,0,0,1-.63l.41.27a1.46,1.46,0,0,1-.53.62A1.48,1.48,0,0,1,500.3,209Z"/>
    <path d="M502.48,203.71H503v2.15h0a1.21,1.21,0,0,1,.38-.48,1.07,1.07,0,0,1,.65-.18,1.13,1.13,0,0,1,.88.36,1.45,1.45,0,0,1,.33,1v2.32h-.56v-2.22c0-.65-.28-1-.82-1a1.86,1.86,0,0,0-.33,0,.9.9,0,0,0-.28.13.6.6,0,0,0-.2.22.56.56,0,0,0-.07.3v2.51h-.56Z"/>
    <path d="M509.08,208.89a.56.56,0,0,1-.46-.17.89.89,0,0,1-.17-.42h0a.93.93,0,0,1-.39.51,1.43,1.43,0,0,1-1.55-.13,1,1,0,0,1-.32-.8.91.91,0,0,1,.38-.78,2,2,0,0,1,1.16-.27h.72v-.36a.79.79,0,0,0-.21-.59.94.94,0,0,0-.65-.2,1,1,0,0,0-.55.15,1,1,0,0,0-.36.39l-.34-.32a1.39,1.39,0,0,1,.47-.5,1.77,1.77,0,0,1,1.83.12,1.1,1.1,0,0,1,.37.89v2h.41v.5Zm-1.61-.39a1.52,1.52,0,0,0,.38-.05.83.83,0,0,0,.3-.14.66.66,0,0,0,.2-.21.48.48,0,0,0,.07-.26v-.59h-.74a1.3,1.3,0,0,0-.71.14.46.46,0,0,0-.22.4v.15a.48.48,0,0,0,.2.41A.81.81,0,0,0,507.47,208.5Z"/>
    <path d="M510.47,204.43a.33.33,0,0,1-.26-.09.27.27,0,0,1-.08-.22V204a.3.3,0,0,1,.08-.23.42.42,0,0,1,.52,0,.3.3,0,0,1,.08.23v.09a.27.27,0,0,1-.08.22A.33.33,0,0,1,510.47,204.43Zm-.28.85h.56v3.61h-.56Z"/>
    <path d="M511.94,208.89v-3.61h.56v.58h0a1.19,1.19,0,0,1,.37-.48,1.07,1.07,0,0,1,.65-.18,1.15,1.15,0,0,1,.89.36,1.49,1.49,0,0,1,.32,1v2.32h-.56v-2.22c0-.65-.27-1-.82-1a1.65,1.65,0,0,0-.32,0,1,1,0,0,0-.29.13.7.7,0,0,0-.2.22.56.56,0,0,0-.07.3v2.51Z"/>
    <path d="M517.62,208.89V204h2a1.31,1.31,0,0,1,1,.37,1.68,1.68,0,0,1,0,2.05,1.31,1.31,0,0,1-1,.38h-1.36v2.08Zm.59-2.6h1.36a.77.77,0,0,0,.54-.18.69.69,0,0,0,.19-.52v-.37a.66.66,0,0,0-.19-.51.73.73,0,0,0-.54-.19h-1.36Z"/>
    <path d="M522.41,208.89a.58.58,0,0,1-.45-.16.6.6,0,0,1-.15-.42v-4.6h.56v4.68h.53v.5Z"/>
    <path d="M526.34,208.89a.52.52,0,0,1-.45-.17.8.8,0,0,1-.17-.42h0a.93.93,0,0,1-.39.51,1.41,1.41,0,0,1-1.54-.13,1,1,0,0,1-.32-.8.9.9,0,0,1,.37-.78,2,2,0,0,1,1.17-.27h.71v-.36a.79.79,0,0,0-.21-.59.91.91,0,0,0-.64-.2.94.94,0,0,0-.55.15,1.07,1.07,0,0,0-.37.39l-.34-.32a1.39,1.39,0,0,1,.47-.5,1.78,1.78,0,0,1,1.84.12,1.12,1.12,0,0,1,.36.89v2h.41v.5Zm-1.61-.39a1.46,1.46,0,0,0,.38-.05.83.83,0,0,0,.3-.14.66.66,0,0,0,.2-.21.48.48,0,0,0,.07-.26v-.59h-.74a1.27,1.27,0,0,0-.7.14.44.44,0,0,0-.22.4v.15a.48.48,0,0,0,.19.41A.82.82,0,0,0,524.73,208.5Z"/>
    <path d="M528.25,208.89a.55.55,0,0,1-.44-.16.58.58,0,0,1-.15-.43v-2.52h-.6v-.5h.34a.34.34,0,0,0,.24-.07.37.37,0,0,0,.07-.26v-.67h.51v1H529v.5h-.79v2.61H529v.5Z"/>
    <path d="M530.11,205.78h-.59v-.5h.59v-.73a.93.93,0,0,1,.19-.61.75.75,0,0,1,.6-.23h.54v.5h-.78v1.07h.78v.5h-.78v3.11h-.55Z"/>
    <path d="M533.54,209a1.59,1.59,0,0,1-.66-.14,1.4,1.4,0,0,1-.52-.38,1.77,1.77,0,0,1-.33-.59,2.41,2.41,0,0,1-.12-.78,2.37,2.37,0,0,1,.12-.78,1.93,1.93,0,0,1,.33-.6,1.4,1.4,0,0,1,.52-.38,1.74,1.74,0,0,1,1.32,0,1.49,1.49,0,0,1,.52.38,1.93,1.93,0,0,1,.33.6,2.37,2.37,0,0,1,.12.78,2.41,2.41,0,0,1-.12.78,1.77,1.77,0,0,1-.33.59,1.49,1.49,0,0,1-.52.38A1.59,1.59,0,0,1,533.54,209Zm0-.5a1,1,0,0,0,.74-.28,1.12,1.12,0,0,0,.29-.86v-.51a1.12,1.12,0,0,0-.29-.86,1,1,0,0,0-.74-.28,1,1,0,0,0-.74.28,1.16,1.16,0,0,0-.29.86v.51a1.16,1.16,0,0,0,.29.86A1,1,0,0,0,533.54,208.48Z"/>
    <path d="M536.1,208.89v-3.61h.56v.66h0a1.16,1.16,0,0,1,.35-.46,1.12,1.12,0,0,1,.7-.2H538v.56h-.33a1.31,1.31,0,0,0-.71.17.51.51,0,0,0-.25.43v2.45Z"/>
    <path d="M538.67,208.89v-3.61h.56v.58h0a2.2,2.2,0,0,1,.15-.26,1,1,0,0,1,.19-.21.87.87,0,0,1,.27-.14,1.07,1.07,0,0,1,.37-.05,1.3,1.3,0,0,1,.66.17,1,1,0,0,1,.44.55h0a1.09,1.09,0,0,1,.36-.51,1.18,1.18,0,0,1,.74-.21,1.09,1.09,0,0,1,.86.36,1.49,1.49,0,0,1,.31,1v2.32h-.56v-2.22a1.14,1.14,0,0,0-.19-.73.68.68,0,0,0-.6-.25,1.65,1.65,0,0,0-.32,0,.84.84,0,0,0-.27.13.67.67,0,0,0-.19.22.66.66,0,0,0-.07.3v2.51h-.56v-2.22a1.14,1.14,0,0,0-.19-.73.67.67,0,0,0-.58-.25,1.65,1.65,0,0,0-.32,0,.8.8,0,0,0-.28.13.67.67,0,0,0-.19.22.56.56,0,0,0-.07.3v2.51Z"/>
    <path d="M493.54,217.38a1.6,1.6,0,0,1-.67-.14,1.37,1.37,0,0,1-.51-.38,1.48,1.48,0,0,1-.33-.59,2.6,2.6,0,0,1,0-1.56,1.6,1.6,0,0,1,.33-.6,1.48,1.48,0,0,1,.51-.38,1.77,1.77,0,0,1,1.33,0,1.48,1.48,0,0,1,.51.38,1.77,1.77,0,0,1,.34.6,2.59,2.59,0,0,1,0,1.56,1.63,1.63,0,0,1-.34.59,1.37,1.37,0,0,1-.51.38A1.59,1.59,0,0,1,493.54,217.38Zm0-.5a1,1,0,0,0,.74-.28,1.15,1.15,0,0,0,.29-.85v-.52a1.16,1.16,0,0,0-.29-.86,1,1,0,0,0-.74-.28,1.07,1.07,0,0,0-.75.28,1.16,1.16,0,0,0-.28.86v.52a1.15,1.15,0,0,0,.28.85A1,1,0,0,0,493.54,216.88Z"/>
    <path d="M496.09,213.68h.56v.58h0a1,1,0,0,1,.41-.5,1.23,1.23,0,0,1,.65-.16,1.39,1.39,0,0,1,.61.13,1.29,1.29,0,0,1,.46.38,1.73,1.73,0,0,1,.3.59,3.22,3.22,0,0,1,.1.79,3.08,3.08,0,0,1-.1.78,1.88,1.88,0,0,1-.3.6,1.37,1.37,0,0,1-.46.37,1.4,1.4,0,0,1-.61.14,1.1,1.1,0,0,1-1.06-.67h0v2h-.56Zm1.49,3.2a1,1,0,0,0,.75-.3,1.13,1.13,0,0,0,.28-.78v-.62a1.14,1.14,0,0,0-.28-.79,1,1,0,0,0-.75-.3,1.13,1.13,0,0,0-.36.06,1,1,0,0,0-.3.14.57.57,0,0,0-.19.22.57.57,0,0,0-.08.28v1.35a.62.62,0,0,0,.08.31.72.72,0,0,0,.19.24,1,1,0,0,0,.3.14A1.49,1.49,0,0,0,497.58,216.88Z"/>
    <path d="M501.51,217.38a1.6,1.6,0,0,1-.67-.14,1.37,1.37,0,0,1-.51-.38,1.77,1.77,0,0,1-.33-.59,2.82,2.82,0,0,1,0-1.56,1.93,1.93,0,0,1,.33-.6,1.48,1.48,0,0,1,.51-.38,1.6,1.6,0,0,1,.67-.13,1.51,1.51,0,0,1,.65.13,1.48,1.48,0,0,1,.49.36,1.61,1.61,0,0,1,.31.56,2.23,2.23,0,0,1,.11.7v.27h-2.6v.17a1.22,1.22,0,0,0,.08.43,1,1,0,0,0,.21.34.86.86,0,0,0,.33.23,1.13,1.13,0,0,0,.45.09,1.08,1.08,0,0,0,.6-.16,1.06,1.06,0,0,0,.4-.46l.4.28a1.46,1.46,0,0,1-.55.61A1.67,1.67,0,0,1,501.51,217.38Zm0-3.31a1,1,0,0,0-.42.08.91.91,0,0,0-.33.22,1,1,0,0,0-.21.35,1.18,1.18,0,0,0-.08.43v0h2v-.08a1.14,1.14,0,0,0-.26-.77A.91.91,0,0,0,501.51,214.07Z"/>
    <path d="M504,217.29v-3.61h.56v.66h0a1.07,1.07,0,0,1,.35-.46,1.11,1.11,0,0,1,.69-.2h.22v.56h-.33a1.31,1.31,0,0,0-.71.17.52.52,0,0,0-.26.43v2.45Z"/>
    <path d="M509.19,217.29a.52.52,0,0,1-.45-.17.8.8,0,0,1-.17-.42h0a.93.93,0,0,1-.39.51,1.41,1.41,0,0,1-1.54-.13,1,1,0,0,1-.32-.8.9.9,0,0,1,.37-.78,2,2,0,0,1,1.17-.27h.71v-.36a.79.79,0,0,0-.21-.59.91.91,0,0,0-.64-.2.94.94,0,0,0-.55.15,1.16,1.16,0,0,0-.37.39l-.34-.32a1.39,1.39,0,0,1,.47-.5,1.57,1.57,0,0,1,.81-.2,1.5,1.5,0,0,1,1,.32,1.12,1.12,0,0,1,.36.89v2h.41v.5Zm-1.61-.39a1.46,1.46,0,0,0,.38-.05.83.83,0,0,0,.3-.14.66.66,0,0,0,.2-.21.46.46,0,0,0,.07-.26v-.59h-.74a1.33,1.33,0,0,0-.71.14.45.45,0,0,0-.21.4v.15a.47.47,0,0,0,.19.41A.82.82,0,0,0,507.58,216.9Z"/>
    <path d="M511.1,217.29a.55.55,0,0,1-.44-.16.57.57,0,0,1-.16-.43v-2.52h-.59v-.5h.34a.3.3,0,0,0,.24-.07.37.37,0,0,0,.07-.26v-.67h.51v1h.79v.5h-.79v2.61h.73v.5Z"/>
    <path d="M514.12,217.38a1.59,1.59,0,0,1-.66-.14,1.49,1.49,0,0,1-.52-.38,1.77,1.77,0,0,1-.33-.59,2.6,2.6,0,0,1,0-1.56,1.93,1.93,0,0,1,.33-.6,1.62,1.62,0,0,1,.52-.38,1.59,1.59,0,0,1,.66-.13,1.52,1.52,0,0,1,1.18.51,2,2,0,0,1,.34.6,2.82,2.82,0,0,1,0,1.56,1.79,1.79,0,0,1-.34.59,1.4,1.4,0,0,1-.52.38A1.53,1.53,0,0,1,514.12,217.38Zm0-.5a1,1,0,0,0,.75-.28,1.15,1.15,0,0,0,.28-.85v-.52a1.16,1.16,0,0,0-.28-.86,1.07,1.07,0,0,0-.75-.28,1,1,0,0,0-.74.28,1.16,1.16,0,0,0-.29.86v.52a1.15,1.15,0,0,0,.29.85A1,1,0,0,0,514.12,216.88Z"/>
    <path d="M516.68,217.29v-3.61h.56v.66h0a1.26,1.26,0,0,1,.35-.46,1.12,1.12,0,0,1,.7-.2h.21v.56h-.33a1.31,1.31,0,0,0-.71.17.51.51,0,0,0-.25.43v2.45Z"/>
  </g>
  <text transform="translate(261.71 208.89)" font-size="7" font-family="IBMPlexSans, IBM Plex Sans">Security Context <tspan x="9.64" y="8.4">Constraint</tspan></text>
  <text transform="translate(371.78 208.89)" font-size="7" font-family="IBMPlexSans, IBM Plex Sans">Docker registry <tspan x="-4.34" y="8.4">credentials secret</tspan></text>
  <g>
    <path d="M357,281.19v-.49h.69v-3.91H357v-.49h2v.49h-.69v3.91h.69v.49Z"/>
    <path d="M360,276.3h2a1.28,1.28,0,0,1,.95.35,1.18,1.18,0,0,1,.35.91,1.05,1.05,0,0,1-.08.46,1,1,0,0,1-.19.32.87.87,0,0,1-.26.18,1,1,0,0,1-.26.08v0a1.28,1.28,0,0,1,.3.07,1,1,0,0,1,.31.2,1.16,1.16,0,0,1,.25.35,1.13,1.13,0,0,1,.1.51,1.52,1.52,0,0,1-.1.57,1.28,1.28,0,0,1-.26.44,1.08,1.08,0,0,1-.4.3,1.18,1.18,0,0,1-.5.11H360Zm.59,2.12h1.35a.81.81,0,0,0,.55-.18.62.62,0,0,0,.19-.5v-.24a.62.62,0,0,0-.19-.5.81.81,0,0,0-.55-.18h-1.35Zm0,2.25H362a.84.84,0,0,0,.59-.19.71.71,0,0,0,.22-.57v-.23a.71.71,0,0,0-.22-.57.84.84,0,0,0-.59-.19h-1.45Z"/>
    <path d="M368.38,277.07h0l-.41.82L366.76,280l-1.17-2.13-.41-.82h0v4.12h-.58V276.3h.79l1.4,2.63h0l1.41-2.63H369v4.89h-.57Z"/>
    <path d="M371.91,276.3h2a1.29,1.29,0,0,1,.95.35,1.36,1.36,0,0,1,.27,1.37,1,1,0,0,1-.19.32.87.87,0,0,1-.26.18,1.08,1.08,0,0,1-.26.08v0a1.28,1.28,0,0,1,.3.07,1.08,1.08,0,0,1,.31.2,1.23,1.23,0,0,1,.35.86,1.52,1.52,0,0,1-.1.57,1.28,1.28,0,0,1-.26.44,1.19,1.19,0,0,1-.9.41h-2.22Zm.59,2.12h1.35a.77.77,0,0,0,.54-.18.63.63,0,0,0,.2-.5v-.24a.63.63,0,0,0-.2-.5.77.77,0,0,0-.54-.18H372.5Zm0,2.25H374a.84.84,0,0,0,.59-.19.74.74,0,0,0,.22-.57v-.23a.74.74,0,0,0-.22-.57.84.84,0,0,0-.59-.19H372.5Z"/>
    <path d="M377,281.19a.55.55,0,0,1-.6-.58V276H377v4.68h.53v.5Z"/>
    <path d="M379.69,281.27a1.59,1.59,0,0,1-.66-.13,1.62,1.62,0,0,1-.52-.38,1.93,1.93,0,0,1-.33-.6,2.56,2.56,0,0,1,0-1.55,1.73,1.73,0,0,1,.33-.6,1.37,1.37,0,0,1,.52-.38,1.59,1.59,0,0,1,.66-.14,1.56,1.56,0,0,1,.66.14,1.37,1.37,0,0,1,.52.38,1.73,1.73,0,0,1,.33.6,2.56,2.56,0,0,1,0,1.55,1.93,1.93,0,0,1-.33.6,1.62,1.62,0,0,1-.52.38A1.56,1.56,0,0,1,379.69,281.27Zm0-.49a1,1,0,0,0,.74-.28,1.13,1.13,0,0,0,.29-.86v-.52a1.11,1.11,0,0,0-.29-.85,1,1,0,0,0-.74-.28,1,1,0,0,0-.74.28,1.15,1.15,0,0,0-.29.85v.52a1.18,1.18,0,0,0,.29.86A1,1,0,0,0,379.69,280.78Z"/>
    <path d="M383.59,281.27a1.65,1.65,0,0,1-.68-.13,1.36,1.36,0,0,1-.5-.38,1.6,1.6,0,0,1-.32-.59,2.79,2.79,0,0,1-.11-.79,2.67,2.67,0,0,1,.11-.78,1.73,1.73,0,0,1,.32-.6,1.24,1.24,0,0,1,.5-.37,1.65,1.65,0,0,1,.68-.14,1.34,1.34,0,0,1,1.35.85l-.47.24a.85.85,0,0,0-.32-.44,1,1,0,0,0-.56-.15,1.19,1.19,0,0,0-.44.08.91.91,0,0,0-.32.22,1,1,0,0,0-.18.35,1.21,1.21,0,0,0-.07.43v.62a1.17,1.17,0,0,0,.26.78.94.94,0,0,0,.75.31,1,1,0,0,0,1-.63l.41.27a1.44,1.44,0,0,1-.52.62A1.51,1.51,0,0,1,383.59,281.27Z"/>
    <path d="M385.77,276h.56v3.28h0l.55-.61,1-1.1h.68L387.27,279l1.47,2.19h-.68l-1.19-1.84-.54.55v1.29h-.56Z"/>
    <path d="M390.8,281.27a1.65,1.65,0,0,1-.68-.13,1.48,1.48,0,0,1-.51-.38,1.74,1.74,0,0,1-.31-.59,2.79,2.79,0,0,1-.11-.79,2.67,2.67,0,0,1,.11-.78,1.89,1.89,0,0,1,.31-.6,1.34,1.34,0,0,1,.51-.37,1.65,1.65,0,0,1,.68-.14,1.37,1.37,0,0,1,1.35.85l-.47.24a.85.85,0,0,0-.32-.44,1,1,0,0,0-.56-.15,1.19,1.19,0,0,0-.44.08.91.91,0,0,0-.32.22,1,1,0,0,0-.18.35,1.21,1.21,0,0,0-.07.43v.62a1.17,1.17,0,0,0,.26.78.94.94,0,0,0,.75.31,1,1,0,0,0,1-.63l.41.27a1.39,1.39,0,0,1-.53.62A1.45,1.45,0,0,1,390.8,281.27Z"/>
    <path d="M393,276h.56v2.15h0a1.18,1.18,0,0,1,.38-.49,1.07,1.07,0,0,1,.65-.18,1.13,1.13,0,0,1,.88.36,1.46,1.46,0,0,1,.33,1v2.32h-.56V279c0-.65-.28-1-.82-1a1.24,1.24,0,0,0-.33,0,.9.9,0,0,0-.28.13.67.67,0,0,0-.2.21.62.62,0,0,0-.07.31v2.51H393Z"/>
    <path d="M399.58,281.19a.55.55,0,0,1-.45-.17.81.81,0,0,1-.18-.42h0a.94.94,0,0,1-.39.5,1.15,1.15,0,0,1-.65.17,1.31,1.31,0,0,1-.9-.29,1,1,0,0,1-.32-.8.91.91,0,0,1,.38-.78,1.93,1.93,0,0,1,1.16-.28h.72v-.35a.77.77,0,0,0-.21-.59.88.88,0,0,0-.64-.2.94.94,0,0,0-.55.14,1.26,1.26,0,0,0-.37.39l-.34-.31a1.32,1.32,0,0,1,.47-.5,1.48,1.48,0,0,1,.81-.21,1.55,1.55,0,0,1,1,.32,1.16,1.16,0,0,1,.36.9v2h.41v.5ZM398,280.8a1.46,1.46,0,0,0,.38-.05,1,1,0,0,0,.3-.14.66.66,0,0,0,.2-.21.48.48,0,0,0,.07-.26v-.6h-.74a1.43,1.43,0,0,0-.71.14.48.48,0,0,0-.22.41v.15a.5.5,0,0,0,.2.41A.81.81,0,0,0,398,280.8Z"/>
    <path d="M401,276.73a.33.33,0,0,1-.26-.09.3.3,0,0,1-.08-.23v-.09a.27.27,0,0,1,.08-.22.42.42,0,0,1,.52,0,.27.27,0,0,1,.08.22v.09a.3.3,0,0,1-.08.23A.33.33,0,0,1,401,276.73Zm-.28.85h.56v3.61h-.56Z"/>
    <path d="M402.44,281.19v-3.61H403v.58h0a1.16,1.16,0,0,1,.37-.49,1.07,1.07,0,0,1,.65-.18,1.15,1.15,0,0,1,.89.36,1.5,1.5,0,0,1,.32,1v2.32h-.56V279c0-.65-.27-1-.82-1a1.12,1.12,0,0,0-.32,0,1,1,0,0,0-.29.13.67.67,0,0,0-.2.21.74.74,0,0,0-.07.31v2.51Z"/>
    <path d="M408.12,281.19V276.3h1.95a1.31,1.31,0,0,1,1,.38,1.64,1.64,0,0,1,0,2.05,1.31,1.31,0,0,1-1,.37h-1.36v2.09Zm.59-2.6h1.36a.77.77,0,0,0,.54-.19.67.67,0,0,0,.2-.52v-.36a.69.69,0,0,0-.2-.52.77.77,0,0,0-.54-.18h-1.36Z"/>
    <path d="M412.91,281.19a.55.55,0,0,1-.6-.58V276h.56v4.68h.53v.5Z"/>
    <path d="M416.84,281.19a.55.55,0,0,1-.45-.17.8.8,0,0,1-.17-.42h0a.94.94,0,0,1-.39.5,1.15,1.15,0,0,1-.65.17,1.29,1.29,0,0,1-.89-.29,1,1,0,0,1-.32-.8.9.9,0,0,1,.37-.78,1.94,1.94,0,0,1,1.17-.28h.71v-.35a.77.77,0,0,0-.21-.59.86.86,0,0,0-.64-.2,1,1,0,0,0-.55.14,1.26,1.26,0,0,0-.37.39l-.33-.31a1.22,1.22,0,0,1,.46-.5,1.49,1.49,0,0,1,.82-.21,1.52,1.52,0,0,1,1,.32,1.16,1.16,0,0,1,.36.9v2h.42v.5Zm-1.61-.39a1.6,1.6,0,0,0,.39-.05,1.38,1.38,0,0,0,.3-.14.63.63,0,0,0,.19-.21.48.48,0,0,0,.07-.26v-.6h-.74a1.36,1.36,0,0,0-.7.14.46.46,0,0,0-.22.41v.15a.49.49,0,0,0,.19.41A.82.82,0,0,0,415.23,280.8Z"/>
    <path d="M418.75,281.19a.57.57,0,0,1-.44-.17.59.59,0,0,1-.15-.43v-2.52h-.6v-.49h.34a.34.34,0,0,0,.25-.08.4.4,0,0,0,.06-.25v-.67h.51v1h.79v.49h-.79v2.62h.73v.5Z"/>
    <path d="M420.61,278.07H420v-.49h.59v-.73a.91.91,0,0,1,.19-.61.75.75,0,0,1,.6-.23h.54v.5h-.77v1.07h.77v.49h-.77v3.12h-.56Z"/>
    <path d="M424,281.27a1.59,1.59,0,0,1-.66-.13,1.62,1.62,0,0,1-.52-.38,1.93,1.93,0,0,1-.33-.6,2.56,2.56,0,0,1,0-1.55,1.73,1.73,0,0,1,.33-.6,1.37,1.37,0,0,1,.52-.38,1.59,1.59,0,0,1,.66-.14,1.56,1.56,0,0,1,.66.14,1.37,1.37,0,0,1,.52.38,1.58,1.58,0,0,1,.33.6,2.56,2.56,0,0,1,0,1.55,1.75,1.75,0,0,1-.33.6,1.62,1.62,0,0,1-.52.38A1.56,1.56,0,0,1,424,281.27Zm0-.49a1,1,0,0,0,.74-.28,1.13,1.13,0,0,0,.29-.86v-.52a1.11,1.11,0,0,0-.29-.85A1,1,0,0,0,424,278a1,1,0,0,0-.74.28,1.15,1.15,0,0,0-.29.85v.52a1.18,1.18,0,0,0,.29.86A1,1,0,0,0,424,280.78Z"/>
    <path d="M426.6,281.19v-3.61h.56v.66h0a1.16,1.16,0,0,1,.35-.46,1.06,1.06,0,0,1,.7-.2h.21v.56h-.33a1.22,1.22,0,0,0-.71.17.5.5,0,0,0-.25.43v2.45Z"/>
    <path d="M429.17,281.19v-3.61h.56v.58h0a2.2,2.2,0,0,1,.15-.26,1,1,0,0,1,.19-.21,1.17,1.17,0,0,1,.27-.15,1.38,1.38,0,0,1,.37-.05,1.35,1.35,0,0,1,.66.17,1,1,0,0,1,.44.56h0a1.12,1.12,0,0,1,.37-.51,1.15,1.15,0,0,1,.73-.22,1.07,1.07,0,0,1,.86.36,1.5,1.5,0,0,1,.31,1v2.32h-.56V279a1.13,1.13,0,0,0-.19-.72.68.68,0,0,0-.6-.25,1.12,1.12,0,0,0-.32,0,.84.84,0,0,0-.27.13.64.64,0,0,0-.19.21.74.74,0,0,0-.07.31v2.51h-.55V279a1.19,1.19,0,0,0-.19-.72.7.7,0,0,0-.59-.25,1.12,1.12,0,0,0-.32,0,.8.8,0,0,0-.28.13.64.64,0,0,0-.19.21.62.62,0,0,0-.07.31v2.51Z"/>
    <path d="M368.05,289.67a1.62,1.62,0,0,1-.68-.13,1.37,1.37,0,0,1-.51-.38,1.58,1.58,0,0,1-.31-.59,2.48,2.48,0,0,1-.11-.79,2.37,2.37,0,0,1,.11-.78,1.71,1.71,0,0,1,.31-.6,1.34,1.34,0,0,1,.51-.37,1.62,1.62,0,0,1,.68-.14,1.37,1.37,0,0,1,1.35.85l-.47.24a.9.9,0,0,0-.32-.44,1,1,0,0,0-.56-.15,1.15,1.15,0,0,0-.44.08.83.83,0,0,0-.32.22,1,1,0,0,0-.19.35,1.49,1.49,0,0,0-.06.43v.62a1.16,1.16,0,0,0,.25.78,1,1,0,0,0,.76.31,1,1,0,0,0,1-.63l.4.27a1.37,1.37,0,0,1-.52.62A1.47,1.47,0,0,1,368.05,289.67Z"/>
    <path d="M371.59,289.67a1.63,1.63,0,0,1-.67-.13,1.48,1.48,0,0,1-.51-.38,1.93,1.93,0,0,1-.33-.6,2.56,2.56,0,0,1,0-1.55,1.73,1.73,0,0,1,.33-.6,1.27,1.27,0,0,1,.51-.38,1.64,1.64,0,0,1,.67-.14,1.59,1.59,0,0,1,.66.14,1.27,1.27,0,0,1,.51.38,1.6,1.6,0,0,1,.34.6,2.56,2.56,0,0,1,0,1.55,1.77,1.77,0,0,1-.34.6,1.48,1.48,0,0,1-.51.38A1.59,1.59,0,0,1,371.59,289.67Zm0-.49a1,1,0,0,0,.74-.28,1.18,1.18,0,0,0,.29-.86v-.52a1.15,1.15,0,0,0-.29-.85,1,1,0,0,0-.74-.28,1,1,0,0,0-.74.28,1.15,1.15,0,0,0-.29.85V288a1.18,1.18,0,0,0,.29.86A1,1,0,0,0,371.59,289.18Z"/>
    <path d="M374.14,289.59V286h.56v.58h0a1.18,1.18,0,0,1,.38-.49,1,1,0,0,1,.64-.18,1.14,1.14,0,0,1,.89.36,1.45,1.45,0,0,1,.32,1v2.32h-.55v-2.22c0-.66-.28-1-.82-1a1.19,1.19,0,0,0-.33,0,.9.9,0,0,0-.28.13.57.57,0,0,0-.2.21.62.62,0,0,0-.08.31v2.51Z"/>
    <path d="M379.2,289.67a1.68,1.68,0,0,1-.84-.19,1.89,1.89,0,0,1-.58-.51l.4-.33a1.47,1.47,0,0,0,.46.41,1.23,1.23,0,0,0,.61.15.84.84,0,0,0,.55-.16.49.49,0,0,0,.2-.43.52.52,0,0,0-.13-.36.86.86,0,0,0-.5-.21l-.29,0a2.21,2.21,0,0,1-.46-.11,1.23,1.23,0,0,1-.36-.19.93.93,0,0,1-.25-.31.94.94,0,0,1-.09-.43,1.12,1.12,0,0,1,.1-.47,1.09,1.09,0,0,1,.27-.33,1.12,1.12,0,0,1,.41-.2,2.09,2.09,0,0,1,.51-.07,1.5,1.5,0,0,1,.74.16,1.61,1.61,0,0,1,.52.42l-.37.34a1.35,1.35,0,0,0-.35-.31,1.13,1.13,0,0,0-.58-.13.82.82,0,0,0-.53.15.51.51,0,0,0-.18.41.42.42,0,0,0,.18.38,1.36,1.36,0,0,0,.52.18l.28,0a1.5,1.5,0,0,1,.85.35.9.9,0,0,1,.25.67,1,1,0,0,1-.36.82A1.45,1.45,0,0,1,379.2,289.67Z"/>
    <path d="M382.89,289.67a1.59,1.59,0,0,1-.66-.13,1.62,1.62,0,0,1-.52-.38,1.93,1.93,0,0,1-.33-.6,2.56,2.56,0,0,1,0-1.55,1.73,1.73,0,0,1,.33-.6,1.37,1.37,0,0,1,.52-.38,1.59,1.59,0,0,1,.66-.14,1.53,1.53,0,0,1,.66.14,1.37,1.37,0,0,1,.52.38,1.74,1.74,0,0,1,.34.6,2.79,2.79,0,0,1,0,1.55,2,2,0,0,1-.34.6,1.62,1.62,0,0,1-.52.38A1.53,1.53,0,0,1,382.89,289.67Zm0-.49a1.07,1.07,0,0,0,.75-.28,1.17,1.17,0,0,0,.28-.86v-.52a1.15,1.15,0,0,0-.28-.85,1,1,0,0,0-.75-.28,1,1,0,0,0-.74.28,1.15,1.15,0,0,0-.29.85V288a1.18,1.18,0,0,0,.29.86A1,1,0,0,0,382.89,289.18Z"/>
    <path d="M386,289.59a.55.55,0,0,1-.59-.58v-4.6H386v4.68h.53v.5Z"/>
    <path d="M388.71,289.67a1.6,1.6,0,0,1-.67-.13,1.48,1.48,0,0,1-.51-.38,1.93,1.93,0,0,1-.33-.6,2.79,2.79,0,0,1,0-1.55,1.73,1.73,0,0,1,.33-.6A1.27,1.27,0,0,1,388,286a1.6,1.6,0,0,1,.67-.14,1.51,1.51,0,0,1,.65.14,1.36,1.36,0,0,1,.49.36,1.53,1.53,0,0,1,.31.56,2,2,0,0,1,.11.7v.27h-2.6v.16a1.18,1.18,0,0,0,.08.43,1,1,0,0,0,.21.35.86.86,0,0,0,.33.23,1.14,1.14,0,0,0,.46.09,1.07,1.07,0,0,0,.59-.17,1,1,0,0,0,.4-.46l.4.29a1.38,1.38,0,0,1-.55.6A1.56,1.56,0,0,1,388.71,289.67Zm0-3.31a1.16,1.16,0,0,0-.42.08,1,1,0,0,0-.54.57,1.23,1.23,0,0,0-.08.44v.05h2v-.08a1.12,1.12,0,0,0-.26-.77A.92.92,0,0,0,388.71,286.36Z"/>
    <path d="M394.55,285.22v4.37H394v-4.37h-1.55v-.52h3.69v.52Z"/>
    <path d="M396.91,289.59V284.7h.59v4.37h2.08v.52Z"/>
    <path d="M401.79,289.67a2,2,0,0,1-1.73-.85l.43-.36a2,2,0,0,0,.58.52,1.45,1.45,0,0,0,.74.18,1.15,1.15,0,0,0,.8-.26.87.87,0,0,0,.28-.67.7.7,0,0,0-.21-.54,1.78,1.78,0,0,0-.7-.3l-.4-.09a2.25,2.25,0,0,1-1-.47,1.08,1.08,0,0,1-.36-.87,1.34,1.34,0,0,1,.12-.58,1.07,1.07,0,0,1,.34-.42,1.35,1.35,0,0,1,.51-.25,2.22,2.22,0,0,1,.65-.09,2.12,2.12,0,0,1,.95.2,1.91,1.91,0,0,1,.67.6l-.44.32a1.57,1.57,0,0,0-.49-.44,1.42,1.42,0,0,0-.72-.16,1.18,1.18,0,0,0-.74.2.68.68,0,0,0-.26.59.63.63,0,0,0,.22.53,1.72,1.72,0,0,0,.69.29l.4.09a2.06,2.06,0,0,1,1,.49,1.18,1.18,0,0,1,.33.87,1.48,1.48,0,0,1-.12.61,1.29,1.29,0,0,1-.33.46,1.53,1.53,0,0,1-.53.3A2.19,2.19,0,0,1,401.79,289.67Z"/>
    <path d="M407.16,289.67a1.68,1.68,0,0,1-.84-.19,1.89,1.89,0,0,1-.58-.51l.39-.33a1.49,1.49,0,0,0,.47.41,1.21,1.21,0,0,0,.6.15.85.85,0,0,0,.56-.16.51.51,0,0,0,.2-.43.52.52,0,0,0-.13-.36.9.9,0,0,0-.5-.21l-.29,0a2.21,2.21,0,0,1-.46-.11,1.43,1.43,0,0,1-.37-.19,1,1,0,0,1-.24-.31.94.94,0,0,1-.09-.43,1,1,0,0,1,.1-.47,1.09,1.09,0,0,1,.27-.33,1,1,0,0,1,.41-.2,2.09,2.09,0,0,1,.51-.07,1.53,1.53,0,0,1,.74.16,1.61,1.61,0,0,1,.52.42l-.37.34a1.35,1.35,0,0,0-.35-.31,1.13,1.13,0,0,0-.58-.13.8.8,0,0,0-.53.15.51.51,0,0,0-.18.41.42.42,0,0,0,.18.38,1.37,1.37,0,0,0,.51.18l.28,0a1.5,1.5,0,0,1,.86.35.9.9,0,0,1,.25.67,1,1,0,0,1-.36.82A1.45,1.45,0,0,1,407.16,289.67Z"/>
    <path d="M410.85,289.67a1.57,1.57,0,0,1-.67-.13,1.48,1.48,0,0,1-.51-.38,1.6,1.6,0,0,1-.33-.6,2.56,2.56,0,0,1,0-1.55,1.46,1.46,0,0,1,.33-.6,1.27,1.27,0,0,1,.51-.38,1.57,1.57,0,0,1,.67-.14,1.55,1.55,0,0,1,.65.14,1.45,1.45,0,0,1,.49.36,1.69,1.69,0,0,1,.31.56,2.23,2.23,0,0,1,.11.7v.27h-2.6v.16a1.18,1.18,0,0,0,.07.43,1,1,0,0,0,.21.35.89.89,0,0,0,.34.23,1.06,1.06,0,0,0,.45.09,1.08,1.08,0,0,0,.6-.17,1,1,0,0,0,.39-.46l.4.29a1.36,1.36,0,0,1-.54.6A1.58,1.58,0,0,1,410.85,289.67Zm0-3.31a1.08,1.08,0,0,0-.42.08,1,1,0,0,0-.33.23,1.08,1.08,0,0,0-.21.34,1,1,0,0,0-.08.44v.05h2v-.08a1.07,1.07,0,0,0-.26-.77A.9.9,0,0,0,410.85,286.36Z"/>
    <path d="M414.67,289.67a1.68,1.68,0,0,1-.68-.13,1.26,1.26,0,0,1-.5-.38,1.6,1.6,0,0,1-.32-.59,2.79,2.79,0,0,1-.11-.79,2.67,2.67,0,0,1,.11-.78,1.73,1.73,0,0,1,.32-.6,1.24,1.24,0,0,1,.5-.37,1.69,1.69,0,0,1,.68-.14,1.45,1.45,0,0,1,.87.24,1.4,1.4,0,0,1,.49.61l-.47.24a.92.92,0,0,0-.33-.44,1,1,0,0,0-.56-.15,1.23,1.23,0,0,0-.44.08.87.87,0,0,0-.31.22.85.85,0,0,0-.19.35,1.49,1.49,0,0,0-.06.43v.62a1.16,1.16,0,0,0,.25.78.94.94,0,0,0,.75.31,1,1,0,0,0,1-.63l.41.27a1.44,1.44,0,0,1-.52.62A1.49,1.49,0,0,1,414.67,289.67Z"/>
    <path d="M416.85,289.59V286h.56v.66h0a1.07,1.07,0,0,1,.35-.46,1,1,0,0,1,.69-.2h.22v.56h-.33a1.2,1.2,0,0,0-.71.17.51.51,0,0,0-.26.43v2.45Z"/>
    <path d="M420.78,289.67a1.6,1.6,0,0,1-.67-.13,1.48,1.48,0,0,1-.51-.38,1.93,1.93,0,0,1-.33-.6,2.56,2.56,0,0,1,0-1.55,1.73,1.73,0,0,1,.33-.6,1.27,1.27,0,0,1,.51-.38,1.6,1.6,0,0,1,.67-.14,1.51,1.51,0,0,1,.65.14,1.45,1.45,0,0,1,.49.36,1.69,1.69,0,0,1,.31.56,2.23,2.23,0,0,1,.11.7v.27h-2.6v.16a1.18,1.18,0,0,0,.08.43.78.78,0,0,0,.21.35.86.86,0,0,0,.33.23,1.1,1.1,0,0,0,.45.09,1.08,1.08,0,0,0,.6-.17,1.07,1.07,0,0,0,.4-.46l.4.29a1.38,1.38,0,0,1-.55.6A1.58,1.58,0,0,1,420.78,289.67Zm0-3.31a1.08,1.08,0,0,0-.42.08,1,1,0,0,0-.33.23,1.08,1.08,0,0,0-.21.34,1.23,1.23,0,0,0-.08.44v.05h2v-.08a1.08,1.08,0,0,0-.27-.77A.88.88,0,0,0,420.78,286.36Z"/>
    <path d="M424.06,289.59a.57.57,0,0,1-.44-.17.58.58,0,0,1-.15-.42v-2.53h-.6V286h.34a.3.3,0,0,0,.24-.08.34.34,0,0,0,.07-.25V285H424v1h.79v.49H424v2.62h.73v.5Z"/>
    <path d="M384.41,298.07a1.85,1.85,0,0,1-.67-.12,1.42,1.42,0,0,1-.54-.36,1.88,1.88,0,0,1-.36-.6,2.31,2.31,0,0,1-.13-.82,4.21,4.21,0,0,1,.17-1.18,3.22,3.22,0,0,1,.49-1,2.52,2.52,0,0,1,.78-.71,2.11,2.11,0,0,1,1-.26,1.91,1.91,0,0,1,.68.12,1.61,1.61,0,0,1,.89,1,2.22,2.22,0,0,1,.13.81,4.21,4.21,0,0,1-.17,1.18,3,3,0,0,1-.49,1,2.52,2.52,0,0,1-.78.71A2.08,2.08,0,0,1,384.41,298.07Zm.06-.51a1.46,1.46,0,0,0,1.08-.43,2.24,2.24,0,0,0,.59-1.19l.14-.7c0-.09,0-.18,0-.26a1.85,1.85,0,0,0,0-.23,1.24,1.24,0,0,0-.31-.89,1.18,1.18,0,0,0-.89-.33,1.46,1.46,0,0,0-1.08.43,2.24,2.24,0,0,0-.59,1.19l-.14.7c0,.09,0,.18,0,.26s0,.16,0,.23a1.24,1.24,0,0,0,.32.89A1.15,1.15,0,0,0,384.47,297.56Z" fill="#757575"/>
    <path d="M388.06,294.38h.54l-.16.78h0a1.79,1.79,0,0,1,.5-.66,1.05,1.05,0,0,1,.67-.21,1,1,0,0,1,.8.37,1.54,1.54,0,0,1,.3,1,3.36,3.36,0,0,1-.11.82,2.48,2.48,0,0,1-.33.78,1.8,1.8,0,0,1-.55.58,1.35,1.35,0,0,1-.78.22,1.1,1.1,0,0,1-.31,0,.8.8,0,0,1-.28-.13.63.63,0,0,1-.22-.21.86.86,0,0,1-.13-.29h0l-.4,2h-.54Zm.85,3.2a1,1,0,0,0,.73-.29,1.54,1.54,0,0,0,.39-.81l.11-.52a2.38,2.38,0,0,0,0-.36A1,1,0,0,0,390,295a.62.62,0,0,0-.53-.23.93.93,0,0,0-.42.1,1.92,1.92,0,0,0-.34.26,1.69,1.69,0,0,0-.28.38,1.77,1.77,0,0,0-.17.49l-.15.73a.86.86,0,0,0,0,.32.48.48,0,0,0,.12.27.73.73,0,0,0,.26.19A1.22,1.22,0,0,0,388.91,297.58Z" fill="#757575"/>
    <path d="M392,298a.5.5,0,0,1-.37-.12.45.45,0,0,1-.12-.32.56.56,0,0,1,0-.17l.51-2.53h-.53l.09-.47h.27a.33.33,0,0,0,.26-.08.49.49,0,0,0,.1-.27l.14-.65h.49l-.19,1h.76l-.09.47h-.76l-.54,2.66h.7l-.09.48Z" fill="#757575"/>
    <path d="M394.17,298a.53.53,0,0,1-.37-.12.45.45,0,0,1-.12-.32,1.28,1.28,0,0,1,0-.17l.6-3h.54l-.63,3.13h.51l-.09.48Zm.6-4.46a.33.33,0,0,1-.23-.07.24.24,0,0,1-.07-.18.18.18,0,0,1,0-.06s0-.07,0-.13a.33.33,0,0,1,.38-.28.3.3,0,0,1,.23.07.27.27,0,0,1,.06.17v.06a.58.58,0,0,1,0,.14.31.31,0,0,1-.11.21A.47.47,0,0,1,394.77,293.53Z" fill="#757575"/>
    <path d="M396.82,298.07a1.47,1.47,0,0,1-.53-.09,1.15,1.15,0,0,1-.41-.28,1.6,1.6,0,0,1-.27-.46,2.11,2.11,0,0,1-.1-.65,2.78,2.78,0,0,1,.14-.87A2.41,2.41,0,0,1,396,295a2.05,2.05,0,0,1,.59-.51,1.61,1.61,0,0,1,.76-.19,1.3,1.3,0,0,1,.52.1,1,1,0,0,1,.41.28,1.17,1.17,0,0,1,.27.46,1.85,1.85,0,0,1,.1.65,2.83,2.83,0,0,1-.14.87,2.41,2.41,0,0,1-.38.73,1.77,1.77,0,0,1-.59.5A1.49,1.49,0,0,1,396.82,298.07Zm.07-.47a1,1,0,0,0,.7-.29,1.62,1.62,0,0,0,.42-.85l.1-.52a2.14,2.14,0,0,0,0-.32.87.87,0,0,0-.22-.62.81.81,0,0,0-.62-.23,1,1,0,0,0-.7.29,1.46,1.46,0,0,0-.42.84l-.11.53a1.91,1.91,0,0,0,0,.32.89.89,0,0,0,.21.61A.79.79,0,0,0,396.89,297.6Z" fill="#757575"/>
    <path d="M399.27,298l.73-3.61h.54l-.15.71h0a1.44,1.44,0,0,1,.45-.6,1,1,0,0,1,.65-.2.86.86,0,0,1,.7.27,1.05,1.05,0,0,1,.24.73,1.8,1.8,0,0,1,0,.22,1.13,1.13,0,0,1,0,.25l-.35,1.75h.51l-.09.48H402a.48.48,0,0,1-.33-.1.37.37,0,0,1-.12-.31v-.06a.25.25,0,0,1,0-.08l.34-1.68,0-.2v-.17a.68.68,0,0,0-.13-.46.51.51,0,0,0-.42-.15,1,1,0,0,0-.67.29,1.66,1.66,0,0,0-.3.43,1.8,1.8,0,0,0-.17.47l-.41,2Z" fill="#757575"/>
    <path d="M406,298a.4.4,0,0,1-.46-.44.62.62,0,0,1,0-.18l0-.17h0a1.75,1.75,0,0,1-.5.67,1.11,1.11,0,0,1-.67.2,1,1,0,0,1-.8-.36,1.59,1.59,0,0,1-.3-1,3.43,3.43,0,0,1,.11-.82,2.7,2.7,0,0,1,.33-.78,1.87,1.87,0,0,1,.55-.57,1.35,1.35,0,0,1,.78-.23,1.65,1.65,0,0,1,.31,0,.8.8,0,0,1,.28.13.88.88,0,0,1,.22.21.86.86,0,0,1,.13.29h0l.12-.58h.54l-.63,3.13h.51l-.09.48Zm-1.46-.41a.93.93,0,0,0,.42-.09,1.67,1.67,0,0,0,.35-.26,2.13,2.13,0,0,0,.29-.4,2,2,0,0,0,.16-.47l.15-.74a.86.86,0,0,0,0-.32.52.52,0,0,0-.12-.26.77.77,0,0,0-.27-.19,1.19,1.19,0,0,0-.4-.07,1,1,0,0,0-.73.29,1.54,1.54,0,0,0-.39.81l-.11.53a2.36,2.36,0,0,0,0,.35,1,1,0,0,0,.17.6A.61.61,0,0,0,404.57,297.58Z" fill="#757575"/>
    <path d="M407.9,298a.49.49,0,0,1-.36-.12.42.42,0,0,1-.13-.32.61.61,0,0,1,0-.17l.91-4.57h.54l-.94,4.7h.54l-.09.48Z" fill="#757575"/>
  </g>
  <text transform="translate(184.59 281.21)" font-size="7" font-family="IBMPlexSans, IBM Plex Sans">Openshift Container <tspan x="5.97" y="8.4">Platform project</tspan></text>
  <text transform="translate(112.73 281.21)" font-size="7" font-family="IBMPlexSans, IBM Plex Sans">Openshift Container <tspan x="11.7" y="8.4">Platform CLI</tspan></text>
</svg>
